{"glyphs":{"0":{"ha":848,"x_min":61,"x_max":783,"o":"m 547 607 q 541 639 547 623 q 527 642 534 640 q 515 643 521 643 l 393 643 q 356 635 374 643 q 326 614 339 627 q 305 584 313 602 q 297 547 297 566 l 297 304 q 297 291 297 297 q 300 278 298 284 q 317 274 309 276 q 334 272 325 272 l 454 272 q 491 279 474 272 q 520 299 508 286 q 540 328 533 311 q 547 364 547 345 l 547 607 m 172 21 q 156 34 164 27 q 140 50 148 41 q 80 138 100 90 q 61 243 61 186 l 61 729 q 80 833 61 786 q 140 921 100 881 q 334 1002 219 1002 l 454 1002 q 646 921 567 1002 q 662 903 654 911 q 676 885 669 895 l 701 860 l 700 861 l 704 859 q 783 668 783 779 l 783 182 q 764 78 783 125 q 705 -8 745 31 q 619 -67 667 -48 q 515 -86 572 -86 l 393 -86 q 290 -67 338 -86 q 203 -8 243 -48 l 172 21 m 697 243 l 697 729 q 627 900 697 828 q 547 954 590 936 q 454 972 505 972 l 334 972 q 240 954 283 972 q 160 900 197 936 q 90 729 90 830 l 90 243 q 107 150 90 193 q 160 71 124 106 q 334 0 233 0 l 454 0 q 627 71 555 0 q 680 149 663 106 q 697 243 697 192 m 576 364 q 567 316 576 338 q 541 278 557 294 q 503 252 525 262 q 454 243 480 243 l 334 243 q 286 252 309 243 q 247 278 264 262 q 221 317 231 295 q 211 364 211 339 l 211 607 q 221 654 211 632 q 247 693 231 677 q 286 720 264 710 q 334 729 309 729 l 454 729 q 502 720 479 729 q 540 693 524 710 q 567 654 557 677 q 576 607 576 632 l 576 364 z "},"1":{"ha":848,"x_min":243,"x_max":602,"o":"m 250 -29 l 243 -29 l 243 272 l 304 272 l 304 646 l 250 700 l 243 700 l 243 1002 l 484 1002 l 484 994 l 541 937 l 541 272 l 545 272 l 545 265 l 602 208 l 602 -86 l 307 -86 l 250 -29 m 515 0 l 515 243 l 454 243 l 454 972 l 272 972 l 272 729 l 334 729 l 334 243 l 272 243 l 272 0 l 515 0 z "},"2":{"ha":848,"x_min":61,"x_max":783,"o":"m 297 272 l 726 272 l 726 265 l 783 208 l 783 -86 l 125 -86 l 68 -29 l 61 -29 l 61 304 q 81 408 61 361 q 140 496 100 455 q 229 556 181 536 q 334 576 276 576 l 424 576 q 448 581 437 576 q 468 594 460 586 q 481 614 477 603 q 486 637 486 625 l 486 643 l 125 643 l 68 700 l 61 700 l 61 1002 l 454 1002 q 646 921 567 1002 q 662 903 654 911 q 676 885 669 895 l 701 860 l 700 861 l 704 859 q 783 668 783 779 l 783 607 q 704 418 783 497 q 618 359 665 378 q 515 339 570 339 l 364 339 q 338 334 350 339 q 316 320 326 329 q 302 299 307 311 q 297 273 297 287 l 297 272 m 697 0 l 697 243 l 211 243 l 211 335 q 218 370 211 353 q 238 398 226 386 q 268 418 251 410 q 302 425 284 425 l 454 425 q 547 444 505 425 q 627 497 590 462 q 697 668 697 569 l 697 729 q 627 900 697 828 q 547 954 590 936 q 454 972 505 972 l 90 972 l 90 729 l 424 729 q 459 722 442 729 q 488 702 475 715 q 508 673 500 690 q 515 637 515 656 q 508 602 515 618 q 488 574 500 586 q 459 554 475 562 q 424 547 442 547 l 334 547 q 161 475 233 547 q 90 304 90 404 l 90 0 l 697 0 z "},"3":{"ha":848,"x_min":61,"x_max":783,"o":"m 68 700 l 61 700 l 61 1002 l 454 1002 q 646 921 567 1002 q 662 903 654 911 q 676 885 669 895 l 701 860 l 700 861 l 704 859 q 783 668 783 779 l 783 656 q 732 498 783 569 l 730 498 q 699 461 716 477 q 661 431 681 444 q 668 421 665 425 q 675 412 671 416 l 696 392 l 704 385 q 763 295 742 347 q 783 182 783 243 q 704 -7 783 71 q 618 -66 665 -47 q 515 -86 570 -86 l 125 -86 l 68 -29 l 61 -29 l 61 272 l 424 272 q 448 277 437 272 q 468 290 460 281 q 481 310 477 299 q 486 335 486 321 l 486 339 l 248 339 l 189 396 l 182 396 l 182 576 l 424 576 q 448 581 437 576 q 468 594 460 586 q 481 614 477 603 q 486 637 486 625 l 486 643 l 125 643 l 68 700 m 697 243 q 686 323 697 285 q 653 394 675 362 q 601 450 632 426 q 529 486 569 473 q 597 520 567 498 q 650 575 627 543 q 686 642 674 606 q 697 717 697 678 l 697 729 q 627 900 697 828 q 547 954 590 936 q 454 972 505 972 l 90 972 l 90 729 l 424 729 q 459 722 442 729 q 488 702 475 715 q 508 673 500 690 q 515 637 515 656 q 508 602 515 618 q 488 574 500 586 q 459 554 475 562 q 424 547 442 547 l 211 547 l 211 425 l 424 425 q 459 418 442 425 q 488 398 475 410 q 508 370 500 386 q 515 335 515 353 q 508 299 515 316 q 488 270 500 283 q 459 250 475 258 q 424 243 442 243 l 90 243 l 90 0 l 454 0 q 627 72 554 0 q 697 243 697 144 z "},"4":{"ha":848,"x_min":61,"x_max":783,"o":"m 297 441 l 547 441 l 547 1002 l 726 1002 l 726 994 l 783 937 l 783 -86 l 611 -86 l 554 -29 l 547 -29 l 547 83 l 125 83 l 68 140 l 61 140 l 61 758 l 240 758 l 240 751 l 297 694 l 297 441 m 697 0 l 697 972 l 576 972 l 576 412 l 211 412 l 211 729 l 90 729 l 90 170 l 576 170 l 576 0 l 697 0 z "},"5":{"ha":848,"x_min":61,"x_max":783,"o":"m 297 576 l 454 576 q 646 496 565 576 q 662 477 654 486 q 676 460 669 468 l 701 435 l 700 436 l 704 432 q 783 243 783 355 l 783 182 q 704 -7 783 71 q 618 -66 665 -47 q 515 -86 570 -86 l 125 -86 l 68 -29 l 61 -29 l 61 272 l 424 272 q 448 277 437 272 q 468 290 460 281 q 481 310 477 299 q 486 335 486 321 l 486 339 l 125 339 l 68 396 l 61 396 l 61 1002 l 665 1002 l 665 994 l 724 937 l 724 643 l 297 643 l 297 576 m 697 243 l 697 304 q 627 475 697 404 q 547 529 590 511 q 454 547 505 547 l 211 547 l 211 729 l 636 729 l 636 972 l 90 972 l 90 425 l 424 425 q 459 418 442 425 q 488 398 475 410 q 508 370 500 386 q 515 335 515 353 q 508 299 515 316 q 488 270 500 283 q 459 250 475 258 q 424 243 442 243 l 90 243 l 90 0 l 454 0 q 627 72 554 0 q 697 243 697 144 z "},"6":{"ha":848,"x_min":61,"x_max":783,"o":"m 547 339 l 364 339 q 338 334 350 339 q 316 320 326 329 q 302 299 307 311 q 297 273 297 287 l 297 272 l 302 272 l 485 272 q 509 277 498 272 q 529 290 521 281 q 543 310 538 299 q 547 335 547 321 l 547 339 m 393 643 q 334 624 359 643 q 300 576 309 606 l 309 576 l 454 576 q 646 496 565 576 q 662 477 654 486 q 676 460 669 468 l 701 435 l 700 436 l 704 432 q 783 243 783 355 l 783 182 q 764 78 783 125 q 705 -8 745 31 q 619 -67 667 -48 q 515 -86 572 -86 l 393 -86 q 204 -7 283 -86 l 176 20 q 158 35 167 27 q 140 52 149 42 q 61 243 61 131 l 61 729 q 80 834 61 787 q 140 922 100 882 q 228 982 180 963 q 334 1002 276 1002 l 665 1002 l 665 994 l 724 937 l 724 643 l 393 643 m 697 243 l 697 304 q 627 475 697 404 q 547 529 590 511 q 454 547 505 547 l 309 547 q 271 539 289 547 q 240 518 253 532 q 219 488 227 505 q 211 450 211 470 l 211 607 q 220 655 211 633 q 246 694 230 677 q 285 720 262 710 q 334 729 307 729 l 636 729 l 636 972 l 334 972 q 160 901 232 972 q 90 729 90 832 l 90 243 q 161 72 90 143 q 334 0 231 0 l 454 0 q 627 71 555 0 q 680 149 663 106 q 697 243 697 192 m 576 335 q 569 299 576 316 q 549 270 562 283 q 520 250 536 258 q 485 243 503 243 l 302 243 q 268 250 284 243 q 238 270 251 258 q 218 299 226 283 q 211 335 211 316 q 218 370 211 353 q 238 398 226 386 q 268 418 251 410 q 302 425 284 425 l 485 425 q 520 418 503 425 q 549 398 536 410 q 569 370 562 386 q 576 335 576 353 z "},"7":{"ha":848,"x_min":37,"x_max":783,"o":"m 68 700 l 61 700 l 61 1002 l 726 1002 l 726 994 l 783 937 l 783 661 l 335 -86 l 106 -86 l 49 -29 l 37 -29 l 441 643 l 125 643 l 68 700 m 697 729 l 697 972 l 90 972 l 90 729 l 528 729 l 90 0 l 260 0 l 697 729 z "},"8":{"ha":848,"x_min":61,"x_max":783,"o":"m 547 339 l 364 339 q 338 334 350 339 q 316 320 326 329 q 302 299 307 311 q 297 273 297 287 l 297 272 l 302 272 l 485 272 q 509 277 498 272 q 529 290 521 281 q 543 310 538 299 q 547 335 547 321 l 547 339 m 547 643 l 364 643 q 338 638 350 643 q 316 624 326 633 q 302 603 307 615 q 297 578 297 591 l 297 576 l 302 576 l 485 576 q 509 581 498 576 q 529 594 521 586 q 543 614 538 603 q 547 637 547 625 l 547 643 m 172 21 q 156 34 164 27 q 140 50 148 41 q 80 138 100 90 q 61 243 61 185 l 61 279 q 154 486 61 408 q 61 693 61 565 l 61 729 q 80 834 61 787 q 140 922 100 882 q 228 982 180 963 q 334 1002 276 1002 l 454 1002 q 560 982 512 1002 q 647 922 608 963 q 662 905 656 913 q 675 889 669 897 l 705 860 q 764 772 745 820 q 783 668 783 725 l 783 632 q 760 516 783 567 q 689 427 737 465 l 711 404 q 783 218 783 332 l 783 182 q 764 78 783 125 q 705 -8 745 31 q 619 -67 667 -48 q 515 -86 572 -86 l 393 -86 q 290 -67 336 -86 q 203 -8 243 -48 l 172 21 m 697 243 l 697 279 q 582 486 697 415 q 697 693 697 557 l 697 729 q 680 823 697 781 q 627 901 663 866 q 454 972 555 972 l 334 972 q 160 901 232 972 q 90 729 90 832 l 90 693 q 205 486 90 557 q 90 279 90 415 l 90 243 q 160 71 90 140 q 334 0 233 0 l 454 0 q 627 71 555 0 q 680 149 663 106 q 697 243 697 192 m 576 637 q 569 602 576 618 q 549 574 562 586 q 520 554 536 562 q 485 547 503 547 l 302 547 q 268 554 284 547 q 238 574 251 562 q 218 602 226 586 q 211 637 211 618 q 218 673 211 656 q 238 702 226 690 q 268 722 251 715 q 302 729 284 729 l 485 729 q 520 722 503 729 q 549 702 536 715 q 569 673 562 690 q 576 637 576 656 m 576 335 q 569 299 576 316 q 549 270 562 283 q 520 250 536 258 q 485 243 503 243 l 302 243 q 268 250 284 243 q 238 270 251 258 q 218 299 226 283 q 211 335 211 316 q 218 370 211 353 q 238 398 226 386 q 268 418 251 410 q 302 425 284 425 l 485 425 q 520 418 503 425 q 549 398 536 410 q 569 370 562 386 q 576 335 576 353 z "},"9":{"ha":848,"x_min":61,"x_max":783,"o":"m 547 643 l 364 643 q 338 638 350 643 q 316 624 326 633 q 302 603 307 615 q 297 578 297 591 l 297 576 l 302 576 l 485 576 q 509 581 498 576 q 529 594 521 586 q 543 614 538 603 q 547 637 547 625 l 547 643 m 176 444 q 158 459 167 452 q 140 476 149 467 q 61 668 61 555 l 61 729 q 80 834 61 787 q 140 922 100 882 q 228 982 180 963 q 334 1002 276 1002 l 454 1002 q 646 921 567 1002 q 662 903 654 911 q 676 885 669 895 l 701 860 l 700 861 l 704 859 q 783 668 783 779 l 783 182 q 764 78 783 125 q 705 -8 745 31 q 619 -67 667 -48 q 515 -86 572 -86 l 186 -86 l 129 -29 l 121 -29 l 121 272 l 454 272 q 511 291 487 272 q 543 339 534 309 l 393 339 q 204 418 284 339 l 176 444 m 697 243 l 697 729 q 627 900 697 828 q 547 954 590 936 q 454 972 505 972 l 334 972 q 160 901 232 972 q 90 729 90 832 l 90 668 q 161 497 90 568 q 240 444 197 462 q 334 425 283 425 l 479 425 q 517 433 499 425 q 548 454 534 441 q 569 485 561 467 q 576 522 576 503 l 576 364 q 567 316 576 338 q 541 278 557 294 q 503 252 525 262 q 454 243 480 243 l 150 243 l 150 0 l 454 0 q 627 71 555 0 q 680 149 663 106 q 697 243 697 192 m 576 637 q 569 602 576 618 q 549 574 562 586 q 520 554 536 562 q 485 547 503 547 l 302 547 q 268 554 284 547 q 238 574 251 562 q 218 602 226 586 q 211 637 211 618 q 218 673 211 656 q 238 702 226 690 q 268 722 251 715 q 302 729 284 729 l 485 729 q 520 722 503 729 q 549 702 536 715 q 569 673 562 690 q 576 637 576 656 z "}," ":{"ha":547,"x_min":0,"x_max":0,"o":""},"!":{"ha":411,"x_min":58,"x_max":349,"o":"m 68 -29 l 61 -29 l 61 199 l 289 199 l 289 192 l 346 135 l 346 -86 l 125 -86 l 68 -29 m 290 994 l 349 937 l 296 205 l 175 205 l 118 262 l 111 262 l 58 1002 l 292 1002 l 290 994 m 260 972 l 90 972 l 139 292 l 211 292 l 260 972 m 260 0 l 260 170 l 90 170 l 90 0 l 260 0 z "},"\"":{"ha":677,"x_min":57,"x_max":616,"o":"m 558 1054 l 616 997 l 561 607 l 444 607 l 387 664 l 380 664 l 342 943 l 294 607 l 178 607 l 121 664 l 113 664 l 57 1063 l 293 1063 l 292 1054 l 330 1015 l 325 1063 l 559 1063 l 558 1054 m 528 1034 l 357 1034 l 406 693 l 479 693 l 528 1034 m 260 1034 l 90 1034 l 139 693 l 211 693 l 260 1034 z "},"#":{"ha":872,"x_min":61,"x_max":808,"o":"m 421 612 l 446 612 l 449 643 l 424 643 l 421 612 m 664 612 l 751 612 l 751 606 l 808 549 l 808 400 l 646 400 l 633 254 l 485 254 l 428 311 l 421 311 l 428 400 l 403 400 l 390 254 l 241 254 l 184 311 l 178 311 l 184 400 l 125 400 l 68 457 l 61 457 l 61 612 l 203 612 l 205 643 l 125 643 l 68 700 l 61 700 l 61 856 l 224 856 l 237 1002 l 393 1002 l 392 994 l 450 937 l 441 856 l 467 856 l 481 1002 l 636 1002 l 635 994 l 693 937 l 685 856 l 751 856 l 751 848 l 808 791 l 808 643 l 667 643 l 664 612 m 722 486 l 722 583 l 570 583 l 583 729 l 722 729 l 722 827 l 591 827 l 604 972 l 507 972 l 494 827 l 349 827 l 361 972 l 264 972 l 252 827 l 90 827 l 90 729 l 243 729 l 229 583 l 90 583 l 90 486 l 221 486 l 208 340 l 306 340 l 318 486 l 464 486 l 452 340 l 549 340 l 561 486 l 722 486 m 486 729 l 472 583 l 326 583 l 340 729 l 486 729 z "},"$":{"ha":848,"x_min":61,"x_max":783,"o":"m 393 643 q 374 636 380 643 l 454 636 q 646 557 566 636 q 662 538 654 547 q 676 519 669 529 l 701 496 l 700 497 l 704 493 q 783 304 783 416 q 704 114 783 193 q 541 36 635 44 l 541 -86 l 368 -86 l 311 -29 l 304 -29 l 304 35 l 125 35 l 68 92 l 61 92 l 61 393 l 454 393 q 472 400 463 393 l 393 400 q 204 479 283 400 l 176 505 q 158 520 167 513 q 140 538 149 528 q 61 729 61 616 q 140 921 61 842 q 304 999 208 988 l 304 1122 l 484 1122 l 484 1116 l 541 1059 l 541 1002 l 726 1002 l 726 994 l 783 937 l 783 643 l 393 643 m 697 364 q 627 536 697 465 q 454 607 553 607 l 334 607 q 310 612 321 607 q 290 626 298 617 q 277 645 281 634 q 272 668 272 656 q 290 711 272 693 q 334 729 308 729 l 697 729 l 697 972 l 454 972 l 454 1093 l 334 1093 l 334 972 q 161 900 233 972 q 90 729 90 829 q 161 558 90 629 q 334 486 231 486 l 454 486 q 497 468 479 486 q 515 425 515 450 q 511 402 515 413 q 497 383 506 391 q 478 369 489 374 q 454 364 467 364 l 90 364 l 90 121 l 334 121 l 334 0 l 454 0 l 454 121 q 547 139 505 121 q 627 193 590 157 q 697 364 697 264 z "},"%":{"ha":1419,"x_min":61,"x_max":1356,"o":"m 425 699 l 425 704 l 334 704 q 307 699 319 704 q 286 685 295 694 q 272 664 277 675 q 267 637 267 652 l 267 546 l 272 546 l 364 546 q 408 564 390 546 q 425 607 425 581 l 425 699 m 1149 364 l 1149 370 l 1055 370 q 1009 351 1028 370 q 990 304 990 332 l 990 211 l 996 211 l 1086 211 q 1131 229 1114 211 q 1149 273 1149 246 l 1149 364 m 827 583 q 836 594 831 589 q 846 606 840 600 q 915 651 878 636 q 996 667 951 667 l 1086 667 q 1167 651 1131 667 q 1236 606 1204 636 q 1250 590 1244 598 q 1261 574 1256 582 l 1295 542 q 1356 395 1356 479 l 1356 121 q 1295 -26 1356 35 q 1147 -86 1234 -86 l 1055 -86 q 908 -25 970 -86 l 876 5 q 861 19 868 12 q 846 33 853 26 q 827 54 835 44 l 827 -86 l 654 -86 l 597 -29 l 589 -29 l 589 326 q 581 317 585 321 q 571 307 576 313 q 424 248 511 248 l 334 248 q 186 309 247 248 l 153 340 q 137 353 144 346 q 122 367 130 359 q 61 517 61 430 l 61 790 q 122 939 61 878 q 272 1002 185 1002 l 364 1002 q 445 986 408 1002 q 513 939 481 970 q 526 923 520 931 q 539 908 532 916 l 571 876 l 589 854 l 589 1002 l 770 1002 l 770 994 l 827 937 l 827 583 m 1268 182 l 1268 456 q 1215 585 1268 530 q 1086 637 1162 637 l 996 637 q 867 585 920 637 q 812 456 812 530 l 812 182 q 867 53 812 107 q 996 0 920 0 l 1086 0 q 1215 53 1164 0 q 1268 182 1268 106 m 741 0 l 741 972 l 618 972 l 618 0 l 741 0 m 546 517 l 546 790 q 492 918 546 866 q 433 959 466 945 q 364 972 401 972 l 272 972 q 143 918 197 972 q 90 790 90 865 l 90 517 q 143 387 90 441 q 272 335 197 335 l 364 335 q 434 348 401 335 q 492 386 466 360 q 532 446 519 414 q 546 517 546 478 m 1178 273 q 1171 237 1178 254 q 1152 208 1164 220 q 1123 189 1139 196 q 1086 182 1106 182 l 996 182 q 961 189 977 182 q 931 209 944 197 q 911 238 919 222 q 904 273 904 255 l 904 364 q 911 399 904 382 q 931 428 919 416 q 961 448 944 441 q 996 456 977 456 l 1086 456 q 1121 448 1105 456 q 1151 428 1138 441 q 1171 399 1163 416 q 1178 364 1178 382 l 1178 273 m 454 607 q 448 571 454 587 q 429 543 441 555 q 400 524 416 530 q 364 517 383 517 l 272 517 q 237 524 254 517 q 208 544 220 531 q 188 572 195 556 q 180 607 180 589 l 180 699 q 188 734 180 718 q 208 763 195 751 q 237 783 220 776 q 272 790 254 790 l 364 790 q 399 783 382 790 q 427 763 415 776 q 447 734 439 751 q 454 699 454 718 l 454 607 z "},"&":{"ha":848,"x_min":61,"x_max":783,"o":"m 358 272 l 364 272 l 473 272 l 473 339 l 424 339 q 377 320 396 339 q 358 273 358 301 l 358 272 m 711 272 l 726 272 l 726 265 l 783 208 l 783 -86 l 393 -86 q 204 -7 283 -86 l 176 20 q 158 35 167 27 q 140 52 149 42 q 61 243 61 131 q 93 380 61 317 q 186 484 125 444 l 172 497 q 124 542 145 516 q 90 597 104 567 q 68 660 75 627 q 61 729 61 694 q 140 921 61 842 q 229 982 181 962 q 334 1002 276 1002 l 726 1002 l 726 994 l 783 937 l 783 643 l 424 643 q 377 624 396 643 q 358 578 358 605 l 358 576 l 364 576 l 726 576 l 726 568 l 783 511 l 783 339 l 711 339 l 711 272 m 697 0 l 697 243 l 625 243 l 625 425 l 697 425 l 697 547 l 364 547 q 329 554 345 547 q 299 574 312 562 q 279 602 287 586 q 272 637 272 618 q 279 673 272 656 q 299 702 287 690 q 329 722 312 715 q 364 729 345 729 l 697 729 l 697 972 l 334 972 q 161 900 233 972 q 90 729 90 829 q 101 649 90 687 q 134 578 113 610 q 186 523 155 547 q 257 486 217 499 q 186 450 217 473 q 134 394 155 426 q 101 323 113 362 q 90 243 90 285 q 161 72 90 143 q 334 0 231 0 l 697 0 m 503 243 l 364 243 q 329 250 345 243 q 299 270 312 258 q 279 299 287 283 q 272 335 272 316 q 279 370 272 353 q 299 398 287 386 q 329 418 312 410 q 364 425 345 425 l 503 425 l 503 243 z "},"'":{"ha":411,"x_min":57,"x_max":350,"o":"m 292 1054 l 350 997 l 294 607 l 178 607 l 121 664 l 113 664 l 57 1063 l 293 1063 l 292 1054 m 260 1034 l 90 1034 l 139 693 l 211 693 l 260 1034 z "},"(":{"ha":545,"x_min":61,"x_max":419,"o":"m 297 182 q 297 173 297 178 q 298 164 297 168 q 329 154 312 157 q 363 150 345 150 l 363 143 l 419 86 l 419 -182 l 393 -208 q 291 -188 338 -208 q 204 -129 244 -168 l 176 -102 q 158 -87 167 -95 q 140 -71 149 -79 q 61 121 61 9 l 61 850 q 81 955 61 907 q 140 1043 100 1002 q 236 1103 181 1083 q 363 1122 290 1122 l 363 1116 l 419 1059 l 419 764 q 372 756 394 764 q 333 736 350 749 q 307 705 317 723 q 297 668 297 688 l 297 182 m 334 -122 l 334 121 q 286 131 309 121 q 247 157 264 140 q 221 196 231 174 q 211 243 211 218 l 211 729 q 221 776 211 754 q 247 814 231 798 q 286 840 264 831 q 334 850 309 850 l 334 1093 q 161 1022 231 1093 q 90 850 90 951 l 90 121 q 161 -50 90 21 q 240 -104 197 -85 q 334 -122 283 -122 z "},")":{"ha":545,"x_min":121,"x_max":481,"o":"m 129 821 l 121 821 l 121 1122 q 248 1103 193 1122 q 343 1043 302 1083 q 359 1024 351 1034 q 374 1006 366 1015 l 401 979 q 460 893 440 941 q 481 790 481 846 l 481 61 q 460 -42 481 5 q 401 -129 440 -90 q 308 -188 361 -168 q 186 -208 254 -208 l 129 -151 l 121 -151 l 121 150 q 169 157 146 150 q 208 178 191 165 q 233 208 224 191 q 243 243 243 224 l 243 729 q 241 742 243 735 q 237 755 239 749 q 212 762 225 761 q 186 764 199 764 l 129 821 m 393 121 l 393 850 q 322 1022 393 951 q 150 1093 252 1093 l 150 850 q 198 840 176 850 q 237 814 220 831 q 262 776 253 798 q 272 729 272 754 l 272 243 q 262 196 272 218 q 237 157 253 174 q 198 131 220 140 q 150 121 176 121 l 150 -122 q 244 -104 201 -122 q 322 -50 287 -85 q 393 121 393 21 z "},"*":{"ha":710,"x_min":52,"x_max":654,"o":"m 596 657 l 654 599 l 579 469 l 460 539 l 460 400 l 311 400 l 254 457 l 248 457 l 248 501 l 191 469 l 134 526 l 129 524 l 52 661 l 150 718 l 117 737 l 64 789 l 52 798 l 129 935 l 248 865 l 248 1002 l 403 1002 l 403 994 l 460 937 l 460 899 l 519 935 l 529 918 l 579 868 l 654 737 l 558 684 l 597 661 l 596 657 m 558 650 l 422 729 l 558 808 l 510 893 l 374 812 l 374 972 l 277 972 l 277 812 l 139 893 l 90 808 l 228 729 l 90 650 l 139 566 l 277 646 l 277 486 l 374 486 l 374 646 l 510 566 l 558 650 z "},"+":{"ha":726,"x_min":61,"x_max":663,"o":"m 468 503 l 606 503 l 606 496 l 663 439 l 663 290 l 468 290 l 468 96 l 319 96 l 262 153 l 256 153 l 256 290 l 125 290 l 68 347 l 61 347 l 61 503 l 256 503 l 256 697 l 411 697 l 411 690 l 468 633 l 468 503 m 576 376 l 576 473 l 382 473 l 382 668 l 285 668 l 285 473 l 90 473 l 90 376 l 285 376 l 285 182 l 382 182 l 382 376 l 576 376 z "},",":{"ha":411,"x_min":57,"x_max":350,"o":"m 292 192 l 350 135 l 294 -257 l 178 -257 l 121 -200 l 113 -200 l 57 199 l 293 199 l 292 192 m 260 170 l 90 170 l 139 -171 l 211 -171 l 260 170 z "},"-":{"ha":726,"x_min":61,"x_max":663,"o":"m 68 347 l 61 347 l 61 503 l 606 503 l 606 496 l 663 439 l 663 290 l 125 290 l 68 347 m 576 376 l 576 473 l 90 473 l 90 376 l 576 376 z "},"­":{"ha":726,"x_min":61,"x_max":663,"o":"m 68 347 l 61 347 l 61 503 l 606 503 l 606 496 l 663 439 l 663 290 l 125 290 l 68 347 m 576 376 l 576 473 l 90 473 l 90 376 l 576 376 z "},".":{"ha":411,"x_min":61,"x_max":346,"o":"m 68 -29 l 61 -29 l 61 199 l 289 199 l 289 192 l 346 135 l 346 -86 l 125 -86 l 68 -29 m 260 0 l 260 170 l 90 170 l 90 0 l 260 0 z "},"/":{"ha":710,"x_min":22,"x_max":684,"o":"m 625 1048 l 684 991 l 250 -200 l 87 -142 l 33 -86 l 22 -83 l 457 1116 l 627 1054 l 625 1048 m 589 1036 l 475 1078 l 60 -64 l 174 -106 l 589 1036 z "},":":{"ha":411,"x_min":61,"x_max":346,"o":"m 68 -29 l 61 -29 l 61 199 l 289 199 l 289 192 l 346 135 l 346 -86 l 125 -86 l 68 -29 m 68 457 l 61 457 l 61 685 l 289 685 l 289 677 l 346 621 l 346 400 l 125 400 l 68 457 m 260 486 l 260 656 l 90 656 l 90 486 l 260 486 m 260 0 l 260 170 l 90 170 l 90 0 l 260 0 z "},";":{"ha":411,"x_min":57,"x_max":350,"o":"m 68 457 l 61 457 l 61 685 l 289 685 l 289 677 l 346 621 l 346 400 l 125 400 l 68 457 m 292 192 l 350 135 l 294 -257 l 178 -257 l 121 -200 l 113 -200 l 57 199 l 293 199 l 292 192 m 260 486 l 260 656 l 90 656 l 90 486 l 260 486 m 260 170 l 90 170 l 139 -171 l 211 -171 l 260 170 z "},";":{"ha":411,"x_min":57,"x_max":350,"o":"m 68 457 l 61 457 l 61 685 l 289 685 l 289 677 l 346 621 l 346 400 l 125 400 l 68 457 m 292 192 l 350 135 l 294 -257 l 178 -257 l 121 -200 l 113 -200 l 57 199 l 293 199 l 292 192 m 260 486 l 260 656 l 90 656 l 90 486 l 260 486 m 260 170 l 90 170 l 139 -171 l 211 -171 l 260 170 z "},"<":{"ha":701,"x_min":61,"x_max":647,"o":"m 589 197 l 647 140 l 567 16 l 125 302 l 78 349 l 61 361 l 61 490 l 507 781 l 519 758 l 567 714 l 647 589 l 321 378 l 593 201 l 589 197 m 550 193 l 193 425 l 550 657 l 497 739 l 90 473 l 90 376 l 497 111 l 550 193 z "},"=":{"ha":726,"x_min":61,"x_max":663,"o":"m 68 237 l 61 237 l 61 393 l 606 393 l 606 386 l 663 329 l 663 180 l 125 180 l 68 237 m 68 457 l 61 457 l 61 612 l 606 612 l 606 606 l 663 549 l 663 400 l 125 400 l 68 457 m 576 486 l 576 583 l 90 583 l 90 486 l 576 486 m 576 267 l 576 364 l 90 364 l 90 267 l 576 267 z "},">":{"ha":701,"x_min":47,"x_max":636,"o":"m 68 636 l 47 648 l 134 781 l 579 490 l 579 484 l 636 427 l 636 302 l 196 16 l 138 72 l 134 71 l 47 201 l 379 416 l 114 589 l 68 636 m 550 376 l 550 473 l 143 739 l 90 657 l 447 425 l 90 193 l 143 111 l 550 376 z "},"?":{"ha":775,"x_min":61,"x_max":711,"o":"m 129 -29 l 121 -29 l 121 199 l 350 199 l 350 192 l 407 135 l 407 -86 l 186 -86 l 129 -29 m 68 700 l 61 700 l 61 1002 l 382 1002 q 574 921 493 1002 q 589 903 582 911 q 604 885 597 895 l 632 859 q 711 668 711 779 q 692 566 711 613 q 632 479 672 518 q 441 400 553 400 l 370 400 l 357 205 l 236 205 l 179 262 l 171 262 l 144 636 l 382 636 q 400 643 389 636 l 125 643 l 68 700 m 625 729 q 607 822 625 780 q 553 900 589 864 q 475 954 517 936 q 382 972 433 972 l 90 972 l 90 729 l 382 729 q 405 724 394 729 q 424 711 416 720 q 437 691 432 703 q 441 668 441 680 q 437 645 441 656 q 424 626 432 634 q 405 612 416 617 q 382 607 394 607 l 176 607 l 199 292 l 272 292 l 286 486 l 382 486 q 553 558 481 486 q 625 729 625 631 m 321 0 l 321 170 l 150 170 l 150 0 l 321 0 z "},"@":{"ha":1213,"x_min":61,"x_max":1149,"o":"m 529 301 q 524 242 526 264 q 522 211 522 220 l 610 211 q 657 230 637 211 q 681 277 677 249 q 685 338 684 315 q 688 370 686 361 l 604 370 q 577 364 590 370 q 554 350 564 359 q 537 328 544 340 q 529 301 530 315 m 175 -222 q 157 -208 165 -216 q 140 -192 148 -200 q 80 -104 100 -152 q 61 0 61 -57 l 61 729 q 80 833 61 786 q 140 921 100 881 q 334 1002 219 1002 l 819 1002 q 1011 921 930 1002 q 1027 903 1019 911 q 1042 885 1036 895 l 1069 859 q 1149 668 1149 779 l 1149 182 q 1071 -8 1149 68 q 879 -86 993 -86 l 718 -86 l 708 -77 q 668 -85 690 -82 q 618 -87 646 -87 l 587 -87 q 573 -86 580 -86 q 564 -86 567 -86 q 427 -32 485 -86 l 390 4 q 376 15 382 9 q 364 26 370 20 q 306 167 306 84 q 306 174 306 168 q 307 186 306 180 l 332 458 q 355 537 336 501 q 406 606 373 574 q 478 651 440 636 q 558 667 515 667 l 650 667 q 796 606 732 667 l 794 606 q 805 593 800 600 q 814 582 810 587 l 848 549 l 847 549 l 850 545 q 891 484 878 517 q 904 412 904 451 q 904 404 904 409 q 903 392 904 398 l 878 117 q 928 148 908 124 q 947 207 947 172 l 947 765 q 942 798 947 784 q 929 800 935 799 q 917 802 922 802 l 357 802 q 320 794 338 802 q 290 773 303 786 q 269 742 277 760 q 261 704 261 724 l 261 -97 q 261 -110 261 -104 q 264 -122 262 -116 q 296 -129 283 -129 l 970 -129 l 970 -136 l 1026 -193 l 1026 -329 l 393 -329 q 203 -250 283 -329 l 175 -222 m 1063 243 l 1063 729 q 1044 822 1063 780 q 990 900 1026 864 q 819 972 919 972 l 334 972 q 240 954 283 972 q 160 900 197 936 q 90 729 90 830 l 90 0 q 160 -171 90 -101 q 334 -243 231 -243 l 940 -243 l 940 -158 l 296 -158 q 249 -149 271 -158 q 210 -122 227 -139 q 184 -83 194 -106 q 175 -36 175 -61 l 175 765 q 184 812 175 790 q 210 851 194 835 q 249 878 227 868 q 296 888 271 888 l 856 888 q 903 878 881 888 q 941 851 925 868 q 967 812 958 835 q 977 765 977 790 l 977 207 q 967 159 977 181 q 942 120 958 136 q 904 94 926 104 q 856 85 882 85 l 783 85 l 817 456 q 818 466 818 462 q 818 472 818 471 q 770 590 818 544 q 650 637 722 637 l 558 637 q 425 585 484 637 q 361 456 368 530 l 336 182 q 335 172 335 176 q 335 167 335 168 q 347 102 335 131 q 383 47 359 73 q 503 0 433 0 q 515 0 508 0 q 529 -1 522 0 l 558 -1 q 690 61 682 -1 l 685 0 l 819 0 q 991 71 921 0 q 1063 243 1063 142 m 717 374 q 715 343 717 368 q 710 273 713 319 q 699 238 708 255 q 676 209 690 222 q 646 189 663 197 q 610 182 629 182 l 519 182 q 486 188 501 182 q 459 206 471 195 q 442 233 448 218 q 436 267 436 248 q 438 295 436 271 q 443 364 439 320 q 454 399 445 382 q 477 428 463 416 q 507 448 490 441 q 543 456 524 456 l 635 456 q 694 433 671 456 q 717 374 717 410 z "},"A":{"ha":848,"x_min":61,"x_max":783,"o":"m 297 393 l 547 393 l 547 607 q 546 623 547 615 q 542 639 545 631 q 529 642 535 640 q 515 643 523 643 l 393 643 q 356 635 374 643 q 326 614 339 627 q 305 584 313 602 q 297 547 297 566 l 297 393 m 68 -29 l 61 -29 l 61 729 q 140 921 61 842 q 229 982 181 962 q 334 1002 276 1002 l 454 1002 q 560 982 512 1002 q 647 922 608 963 q 662 905 656 913 q 675 889 669 897 l 705 860 q 764 772 745 820 q 783 668 783 725 l 783 -86 l 611 -86 l 554 -29 l 547 -29 l 547 157 l 297 157 l 297 -86 l 125 -86 l 68 -29 m 697 0 l 697 729 q 680 823 697 781 q 627 901 663 866 q 454 972 555 972 l 334 972 q 161 900 233 972 q 90 729 90 829 l 90 0 l 211 0 l 211 243 l 576 243 l 576 0 l 697 0 m 576 364 l 211 364 l 211 607 q 221 654 211 632 q 247 693 231 677 q 286 720 264 710 q 334 729 309 729 l 454 729 q 503 720 480 729 q 541 694 525 710 q 567 655 557 677 q 576 607 576 633 l 576 364 z "},"B":{"ha":848,"x_min":61,"x_max":783,"o":"m 486 339 l 297 339 l 297 272 l 424 272 q 448 277 437 272 q 468 290 460 281 q 481 310 477 299 q 486 335 486 321 l 486 339 m 486 643 l 297 643 l 297 576 l 424 576 q 448 581 437 576 q 468 594 460 586 q 481 614 477 603 q 486 637 486 625 l 486 643 m 68 -29 l 61 -29 l 61 1002 l 454 1002 q 646 921 567 1002 q 662 903 654 911 q 676 885 669 895 l 704 859 q 783 668 783 779 l 783 656 q 732 498 783 569 l 730 498 q 699 461 716 477 q 661 431 681 444 q 673 412 667 422 l 675 412 l 696 392 l 704 385 q 763 295 742 347 q 783 182 783 243 q 704 -7 783 71 q 618 -66 665 -47 q 515 -86 570 -86 l 125 -86 l 68 -29 m 697 243 q 686 323 697 285 q 653 394 675 362 q 601 450 632 426 q 529 486 569 473 q 597 520 567 498 q 650 575 627 543 q 686 642 674 606 q 697 717 697 678 l 697 729 q 627 900 697 828 q 547 954 590 936 q 454 972 505 972 l 90 972 l 90 0 l 454 0 q 627 72 554 0 q 697 243 697 144 m 515 637 q 508 602 515 618 q 488 574 500 586 q 459 554 475 562 q 424 547 442 547 l 211 547 l 211 729 l 424 729 q 459 722 442 729 q 488 702 475 715 q 508 673 500 690 q 515 637 515 656 m 515 335 q 508 299 515 316 q 488 270 500 283 q 459 250 475 258 q 424 243 442 243 l 211 243 l 211 425 l 424 425 q 459 418 442 425 q 488 398 475 410 q 508 370 500 386 q 515 335 515 353 z "},"C":{"ha":848,"x_min":61,"x_max":783,"o":"m 297 304 q 297 291 297 297 q 300 278 298 284 q 317 274 309 276 q 334 272 325 272 l 726 272 l 726 265 l 783 208 l 783 -86 l 393 -86 q 204 -7 283 -86 l 176 20 q 158 35 167 27 q 140 52 149 42 q 61 243 61 131 l 61 729 q 140 921 61 842 q 229 982 181 962 q 334 1002 276 1002 l 726 1002 l 726 994 l 783 937 l 783 643 l 393 643 q 356 635 374 643 q 326 614 339 627 q 305 584 313 602 q 297 547 297 566 l 297 304 m 697 0 l 697 243 l 334 243 q 286 252 309 243 q 247 278 264 262 q 221 317 231 295 q 211 364 211 339 l 211 607 q 221 654 211 632 q 247 693 231 677 q 286 720 264 710 q 334 729 309 729 l 697 729 l 697 972 l 334 972 q 161 900 233 972 q 90 729 90 829 l 90 243 q 161 72 90 143 q 334 0 231 0 l 697 0 z "},"D":{"ha":848,"x_min":61,"x_max":783,"o":"m 547 607 q 541 639 547 623 q 527 642 534 640 q 515 643 521 643 l 297 643 l 297 272 l 454 272 q 491 279 474 272 q 520 299 508 286 q 540 328 533 311 q 547 364 547 345 l 547 607 m 68 -29 l 61 -29 l 61 1002 l 454 1002 q 646 921 567 1002 q 662 903 654 911 q 676 885 669 895 l 704 859 q 783 668 783 779 l 783 182 q 764 78 783 125 q 705 -8 745 31 q 619 -67 667 -48 q 515 -86 572 -86 l 125 -86 l 68 -29 m 697 243 l 697 729 q 627 900 697 828 q 547 954 590 936 q 454 972 505 972 l 90 972 l 90 0 l 454 0 q 627 71 555 0 q 680 149 663 106 q 697 243 697 192 m 576 364 q 567 316 576 338 q 541 278 557 294 q 503 252 525 262 q 454 243 480 243 l 211 243 l 211 729 l 454 729 q 502 720 479 729 q 540 693 524 710 q 567 654 557 677 q 576 607 576 632 l 576 364 z "},"E":{"ha":726,"x_min":61,"x_max":663,"o":"m 297 304 q 297 291 297 297 q 300 277 298 284 q 334 272 316 272 l 606 272 l 606 265 l 663 208 l 663 -86 l 393 -86 q 290 -67 336 -86 q 203 -8 243 -48 l 172 21 q 156 34 164 27 q 140 50 148 41 q 80 138 100 90 q 61 243 61 185 l 61 1002 l 606 1002 l 606 994 l 663 937 l 663 643 l 297 643 l 297 576 l 484 576 l 484 568 l 541 511 l 541 339 l 297 339 l 297 304 m 576 0 l 576 243 l 334 243 q 285 252 307 243 q 246 278 262 262 q 220 316 230 294 q 211 364 211 338 l 211 425 l 454 425 l 454 547 l 211 547 l 211 729 l 576 729 l 576 972 l 90 972 l 90 243 q 160 71 90 140 q 334 0 233 0 l 576 0 z "},"F":{"ha":696,"x_min":61,"x_max":663,"o":"m 68 -29 l 61 -29 l 61 729 q 80 834 61 787 q 140 922 100 882 q 228 982 180 963 q 334 1002 276 1002 l 606 1002 l 606 994 l 663 937 l 663 643 l 393 643 q 334 624 359 643 q 300 576 309 606 l 484 576 l 484 568 l 541 511 l 541 339 l 297 339 l 297 -86 l 125 -86 l 68 -29 m 576 729 l 576 972 l 334 972 q 160 901 232 972 q 90 729 90 832 l 90 0 l 211 0 l 211 425 l 454 425 l 454 547 l 211 547 l 211 607 q 220 655 211 633 q 246 694 230 677 q 285 720 262 710 q 334 729 307 729 l 576 729 z "},"G":{"ha":848,"x_min":61,"x_max":783,"o":"m 176 20 q 158 35 167 27 q 140 52 149 42 q 61 243 61 131 l 61 729 q 140 921 61 842 q 229 982 181 962 q 334 1002 276 1002 l 726 1002 l 726 994 l 783 937 l 783 643 l 393 643 q 356 635 374 643 q 326 614 339 627 q 305 584 313 602 q 297 547 297 566 l 297 304 q 297 291 297 297 q 300 278 298 284 q 317 274 309 276 q 334 272 325 272 l 534 272 l 534 339 l 429 339 l 372 396 l 364 396 l 364 576 l 714 576 l 714 568 l 772 511 l 772 -86 l 393 -86 q 204 -7 283 -86 l 176 20 m 697 729 l 697 972 l 334 972 q 161 900 233 972 q 90 729 90 829 l 90 243 q 161 72 90 143 q 334 0 231 0 l 685 0 l 685 547 l 393 547 l 393 425 l 564 425 l 564 243 l 334 243 q 286 252 309 243 q 247 278 264 262 q 221 317 231 295 q 211 364 211 339 l 211 607 q 221 654 211 632 q 247 693 231 677 q 286 720 264 710 q 334 729 309 729 l 697 729 z "},"H":{"ha":848,"x_min":61,"x_max":783,"o":"m 297 636 l 547 636 l 547 1002 l 726 1002 l 726 994 l 783 937 l 783 -86 l 611 -86 l 554 -29 l 547 -29 l 547 278 l 297 278 l 297 -86 l 125 -86 l 68 -29 l 61 -29 l 61 1002 l 240 1002 l 240 994 l 297 937 l 297 636 m 697 0 l 697 972 l 576 972 l 576 607 l 211 607 l 211 972 l 90 972 l 90 0 l 211 0 l 211 364 l 576 364 l 576 0 l 697 0 z "},"I":{"ha":484,"x_min":61,"x_max":419,"o":"m 68 -29 l 61 -29 l 61 272 l 121 272 l 121 646 l 68 700 l 61 700 l 61 1002 l 363 1002 l 363 994 l 419 937 l 419 643 l 358 643 l 358 272 l 363 272 l 363 265 l 419 208 l 419 -86 l 125 -86 l 68 -29 m 334 0 l 334 243 l 272 243 l 272 729 l 334 729 l 334 972 l 90 972 l 90 729 l 150 729 l 150 243 l 90 243 l 90 0 l 334 0 z "},"J":{"ha":606,"x_min":61,"x_max":541,"o":"m 68 700 l 61 700 l 61 1002 l 484 1002 l 484 994 l 541 937 l 541 182 q 522 78 541 125 q 463 -8 503 31 q 272 -86 387 -86 l 125 -86 l 68 -29 l 61 -29 l 61 272 l 211 272 q 248 279 231 272 q 278 299 265 286 q 297 328 290 311 q 304 364 304 345 l 304 643 l 125 643 l 68 700 m 454 243 l 454 972 l 90 972 l 90 729 l 334 729 l 334 364 q 324 316 334 338 q 298 278 315 294 q 260 252 282 262 q 211 243 237 243 l 90 243 l 90 0 l 211 0 q 383 71 313 0 q 437 149 420 106 q 454 243 454 192 z "},"K":{"ha":848,"x_min":61,"x_max":783,"o":"m 297 636 l 454 636 q 491 643 474 636 q 520 663 508 650 q 540 692 533 675 q 547 729 547 709 l 547 1002 l 726 1002 l 726 994 l 783 937 l 783 644 q 755 521 783 578 q 675 427 726 464 l 704 399 q 763 311 742 361 q 783 207 783 262 l 783 -86 l 611 -86 l 554 -29 l 547 -29 l 547 243 q 542 275 547 262 q 529 277 535 277 q 515 278 523 278 l 297 278 l 297 -86 l 125 -86 l 68 -29 l 61 -29 l 61 1002 l 240 1002 l 240 994 l 297 937 l 297 636 m 697 0 l 697 267 q 688 335 697 302 q 661 397 678 368 q 618 448 644 425 q 562 486 593 471 q 618 524 593 501 q 661 575 644 547 q 688 636 678 604 q 697 704 697 669 l 697 972 l 576 972 l 576 729 q 567 681 576 703 q 541 642 557 659 q 503 616 525 626 q 454 607 480 607 l 211 607 l 211 972 l 90 972 l 90 0 l 211 0 l 211 364 l 454 364 q 503 355 480 364 q 541 330 525 346 q 567 291 557 313 q 576 243 576 269 l 576 0 l 697 0 z "},"L":{"ha":726,"x_min":61,"x_max":663,"o":"m 297 304 q 297 291 297 297 q 300 277 298 284 q 334 272 316 272 l 606 272 l 606 265 l 663 208 l 663 -86 l 393 -86 q 290 -67 336 -86 q 203 -8 243 -48 l 172 21 q 156 34 164 27 q 140 50 148 41 q 80 138 100 90 q 61 243 61 185 l 61 1002 l 240 1002 l 240 994 l 297 937 l 297 304 m 576 0 l 576 243 l 334 243 q 285 252 307 243 q 246 278 262 262 q 220 316 230 294 q 211 364 211 338 l 211 972 l 90 972 l 90 243 q 160 71 90 140 q 334 0 233 0 l 576 0 z "},"M":{"ha":1335,"x_min":61,"x_max":1270,"o":"m 68 -29 l 61 -29 l 61 729 q 140 921 61 842 q 229 982 181 962 q 334 1002 276 1002 l 406 1002 q 529 972 471 1002 q 625 889 587 942 l 639 876 q 737 968 677 935 q 868 1002 797 1002 l 940 1002 q 1132 921 1053 1002 q 1148 903 1141 911 q 1162 885 1155 895 l 1187 860 l 1186 861 l 1190 859 q 1270 668 1270 779 l 1270 -86 l 1097 -86 l 1040 -29 l 1034 -29 l 1034 607 q 1026 639 1034 624 q 1014 642 1020 640 q 1002 643 1007 643 l 879 643 q 841 635 859 643 q 811 615 824 628 q 791 585 798 603 q 783 547 783 568 l 783 -86 l 611 -86 l 554 -29 l 547 -29 l 547 607 q 546 623 547 615 q 542 639 545 631 q 529 642 535 640 q 515 643 523 643 l 393 643 q 356 635 374 643 q 326 614 339 627 q 305 584 313 602 q 297 547 297 566 l 297 -86 l 125 -86 l 68 -29 m 1183 0 l 1183 729 q 1112 900 1183 829 q 1033 954 1076 936 q 940 972 991 972 l 868 972 q 792 961 828 972 q 725 928 755 949 q 671 876 694 906 q 636 807 648 845 q 602 876 624 845 q 549 928 579 906 q 481 961 518 949 q 406 972 445 972 l 334 972 q 161 900 233 972 q 90 729 90 829 l 90 0 l 211 0 l 211 607 q 221 654 211 632 q 247 693 231 677 q 286 720 264 710 q 334 729 309 729 l 454 729 q 503 720 480 729 q 541 694 525 710 q 567 655 557 677 q 576 607 576 633 l 576 0 l 697 0 l 697 607 q 707 655 697 633 q 732 694 716 677 q 771 720 749 710 q 819 729 793 729 l 940 729 q 987 720 965 729 q 1026 693 1010 710 q 1053 654 1043 677 q 1063 607 1063 632 l 1063 0 l 1183 0 z "},"N":{"ha":848,"x_min":61,"x_max":783,"o":"m 68 -29 l 61 -29 l 61 729 q 80 833 61 786 q 140 921 100 881 q 334 1002 219 1002 l 454 1002 q 560 982 512 1002 q 647 922 608 963 q 662 905 656 913 q 675 889 669 897 l 705 860 q 764 772 745 820 q 783 668 783 725 l 783 -86 l 611 -86 l 554 -29 l 547 -29 l 547 607 q 546 623 547 615 q 542 639 545 631 q 529 642 535 640 q 515 643 523 643 l 393 643 q 356 635 374 643 q 326 614 339 627 q 305 584 313 602 q 297 547 297 566 l 297 -86 l 125 -86 l 68 -29 m 697 0 l 697 729 q 680 823 697 781 q 627 901 663 866 q 454 972 555 972 l 334 972 q 240 954 283 972 q 160 900 197 936 q 90 729 90 830 l 90 0 l 211 0 l 211 607 q 221 654 211 632 q 247 693 231 677 q 286 720 264 710 q 334 729 309 729 l 454 729 q 503 720 480 729 q 541 694 525 710 q 567 655 557 677 q 576 607 576 633 l 576 0 l 697 0 z "},"O":{"ha":848,"x_min":61,"x_max":783,"o":"m 547 607 q 541 639 547 623 q 527 642 534 640 q 515 643 521 643 l 393 643 q 356 635 374 643 q 326 614 339 627 q 305 584 313 602 q 297 547 297 566 l 297 304 q 297 291 297 297 q 300 278 298 284 q 317 274 309 276 q 334 272 325 272 l 454 272 q 491 279 474 272 q 520 299 508 286 q 540 328 533 311 q 547 364 547 345 l 547 607 m 172 21 q 156 34 164 27 q 140 50 148 41 q 80 138 100 90 q 61 243 61 186 l 61 729 q 80 833 61 786 q 140 921 100 881 q 334 1002 219 1002 l 454 1002 q 646 921 567 1002 q 662 903 654 911 q 676 885 669 895 l 701 860 l 700 861 l 704 859 q 783 668 783 779 l 783 182 q 764 78 783 125 q 705 -8 745 31 q 619 -67 667 -48 q 515 -86 572 -86 l 393 -86 q 290 -67 338 -86 q 203 -8 243 -48 l 172 21 m 697 243 l 697 729 q 627 900 697 828 q 547 954 590 936 q 454 972 505 972 l 334 972 q 240 954 283 972 q 160 900 197 936 q 90 729 90 830 l 90 243 q 107 150 90 193 q 160 71 124 106 q 334 0 233 0 l 454 0 q 627 71 555 0 q 680 149 663 106 q 697 243 697 192 m 576 364 q 567 316 576 338 q 541 278 557 294 q 503 252 525 262 q 454 243 480 243 l 334 243 q 286 252 309 243 q 247 278 264 262 q 221 317 231 295 q 211 364 211 339 l 211 607 q 221 654 211 632 q 247 693 231 677 q 286 720 264 710 q 334 729 309 729 l 454 729 q 502 720 479 729 q 540 693 524 710 q 567 654 557 677 q 576 607 576 632 l 576 364 z "},"P":{"ha":848,"x_min":61,"x_max":783,"o":"m 486 643 l 297 643 l 297 576 l 424 576 q 448 581 437 576 q 468 594 460 586 q 481 614 477 603 q 486 637 486 625 l 486 643 m 68 -29 l 61 -29 l 61 1002 l 454 1002 q 646 921 567 1002 q 662 903 654 911 q 676 885 669 895 l 701 860 l 700 861 l 704 859 q 783 668 783 779 l 783 607 q 704 418 783 497 q 618 359 665 378 q 515 339 570 339 l 297 339 l 297 -86 l 125 -86 l 68 -29 m 697 668 l 697 729 q 627 900 697 828 q 547 954 590 936 q 454 972 505 972 l 90 972 l 90 0 l 211 0 l 211 425 l 454 425 q 547 444 505 425 q 627 497 590 462 q 697 668 697 569 m 515 637 q 508 602 515 618 q 488 574 500 586 q 459 554 475 562 q 424 547 442 547 l 211 547 l 211 729 l 424 729 q 459 722 442 729 q 488 702 475 715 q 508 673 500 690 q 515 637 515 656 z "},"Q":{"ha":848,"x_min":61,"x_max":783,"o":"m 547 607 q 541 639 547 623 q 527 642 534 640 q 515 643 521 643 l 393 643 q 356 635 374 643 q 326 614 339 627 q 305 584 313 602 q 297 547 297 566 l 297 304 q 297 291 297 297 q 300 278 298 284 q 317 274 309 276 q 334 272 325 272 l 454 272 q 491 279 474 272 q 520 299 508 286 q 540 328 533 311 q 547 364 547 345 l 547 607 m 545 -86 q 576 -93 560 -93 l 726 -93 l 726 -100 l 783 -157 l 783 -452 l 636 -452 q 532 -432 579 -452 q 446 -374 486 -412 l 415 -343 q 399 -330 407 -337 q 383 -315 391 -323 q 323 -227 342 -275 q 304 -122 304 -180 l 304 -72 q 251 -46 276 -62 q 204 -8 226 -30 l 175 20 q 157 34 165 26 q 140 50 149 41 q 61 243 61 130 l 61 729 q 140 921 61 842 q 229 982 181 962 q 334 1002 276 1002 l 454 1002 q 646 921 567 1002 q 662 903 654 911 q 676 885 669 895 l 704 859 q 783 668 783 779 l 783 182 q 764 78 783 125 q 705 -8 745 31 q 543 -85 637 -77 l 545 -86 m 697 -366 l 697 -122 l 576 -122 q 528 -113 551 -122 q 490 -87 506 -103 q 464 -48 473 -71 q 454 0 454 -26 q 627 71 555 0 q 680 149 663 106 q 697 243 697 192 l 697 729 q 627 900 697 828 q 547 954 590 936 q 454 972 505 972 l 334 972 q 161 900 233 972 q 90 729 90 829 l 90 243 q 161 71 90 142 q 334 0 232 0 l 334 -122 q 350 -216 334 -174 q 403 -294 367 -259 q 576 -366 476 -366 l 697 -366 m 576 364 q 567 316 576 338 q 541 278 557 294 q 503 252 525 262 q 454 243 480 243 l 334 243 q 286 252 309 243 q 247 278 264 262 q 221 317 231 295 q 211 364 211 339 l 211 607 q 221 654 211 632 q 247 693 231 677 q 286 720 264 710 q 334 729 309 729 l 454 729 q 502 720 479 729 q 540 693 524 710 q 567 654 557 677 q 576 607 576 632 l 576 364 z "},"R":{"ha":848,"x_min":61,"x_max":783,"o":"m 486 643 l 297 643 l 297 576 l 424 576 q 448 581 437 576 q 468 594 460 586 q 481 614 477 603 q 486 637 486 625 l 486 643 m 68 -29 l 61 -29 l 61 1002 l 454 1002 q 646 921 567 1002 q 662 903 654 911 q 676 885 669 895 l 704 859 q 783 668 783 779 q 775 596 783 631 q 752 531 768 562 q 715 475 737 500 q 664 432 692 450 q 675 418 669 425 l 711 383 q 765 299 747 347 q 783 195 783 252 l 783 -86 l 611 -86 l 554 -29 l 547 -29 l 547 256 q 543 296 547 277 q 529 330 538 315 q 508 336 519 334 q 485 339 496 339 l 297 339 l 297 -86 l 125 -86 l 68 -29 m 697 0 l 697 256 q 686 334 697 297 q 653 400 675 370 q 601 451 632 429 q 529 486 569 473 q 601 523 569 499 q 653 578 632 547 q 686 649 675 610 q 697 729 697 687 q 627 900 697 828 q 547 954 590 936 q 454 972 505 972 l 90 972 l 90 0 l 211 0 l 211 425 l 424 425 q 536 374 493 425 q 566 319 556 349 q 576 256 576 290 l 576 0 l 697 0 m 515 637 q 508 602 515 618 q 488 574 500 586 q 459 554 475 562 q 424 547 442 547 l 211 547 l 211 729 l 424 729 q 459 722 442 729 q 488 702 475 715 q 508 673 500 690 q 515 637 515 656 z "},"S":{"ha":848,"x_min":61,"x_max":783,"o":"m 358 576 l 364 576 l 454 576 q 646 496 565 576 q 662 477 654 486 q 676 460 669 468 l 704 432 q 783 243 783 355 l 783 182 q 704 -7 783 71 q 618 -66 665 -47 q 515 -86 570 -86 l 125 -86 l 68 -29 l 61 -29 l 61 272 l 424 272 q 448 277 437 272 q 468 290 460 281 q 481 310 477 299 q 486 335 486 321 l 486 339 l 393 339 q 204 418 284 339 l 176 444 q 158 459 167 452 q 140 476 149 467 q 61 668 61 555 l 61 729 q 140 921 61 842 q 229 982 181 962 q 334 1002 276 1002 l 726 1002 l 726 994 l 783 937 l 783 643 l 424 643 q 377 624 396 643 q 358 578 358 605 l 358 576 m 697 243 l 697 304 q 627 475 697 404 q 547 529 590 511 q 454 547 505 547 l 364 547 q 329 554 345 547 q 299 574 312 562 q 279 602 287 586 q 272 637 272 618 q 279 673 272 656 q 299 702 287 690 q 329 722 312 715 q 364 729 345 729 l 697 729 l 697 972 l 334 972 q 161 900 233 972 q 90 729 90 829 l 90 668 q 161 497 90 568 q 240 444 197 462 q 334 425 283 425 l 424 425 q 459 418 442 425 q 488 398 475 410 q 508 370 500 386 q 515 335 515 353 q 508 299 515 316 q 488 270 500 283 q 459 250 475 258 q 424 243 442 243 l 90 243 l 90 0 l 454 0 q 627 72 554 0 q 697 243 697 144 z "},"T":{"ha":787,"x_min":31,"x_max":753,"o":"m 37 700 l 31 700 l 31 1002 l 696 1002 l 696 994 l 753 937 l 753 643 l 510 643 l 510 -86 l 338 -86 l 281 -29 l 273 -29 l 273 643 l 94 643 l 37 700 m 667 729 l 667 972 l 60 972 l 60 729 l 302 729 l 302 0 l 424 0 l 424 729 l 667 729 z "},"U":{"ha":848,"x_min":61,"x_max":783,"o":"m 297 304 q 297 291 297 297 q 300 278 298 284 q 317 274 309 276 q 334 272 325 272 l 454 272 q 491 279 474 272 q 520 299 508 286 q 540 328 533 311 q 547 364 547 345 l 547 1002 l 726 1002 l 726 994 l 783 937 l 783 182 q 764 78 783 125 q 705 -8 745 31 q 619 -67 667 -48 q 515 -86 572 -86 l 393 -86 q 290 -67 338 -86 q 203 -8 243 -48 l 172 21 q 156 34 164 27 q 140 50 148 41 q 80 138 100 90 q 61 243 61 186 l 61 1002 l 240 1002 l 240 994 l 297 937 l 297 304 m 697 243 l 697 972 l 576 972 l 576 364 q 567 316 576 338 q 541 278 557 294 q 503 252 525 262 q 454 243 480 243 l 334 243 q 286 252 309 243 q 247 278 264 262 q 221 317 231 295 q 211 364 211 339 l 211 972 l 90 972 l 90 243 q 107 150 90 193 q 160 71 124 106 q 334 0 233 0 l 454 0 q 627 71 555 0 q 680 149 663 106 q 697 243 697 192 z "},"V":{"ha":848,"x_min":61,"x_max":783,"o":"m 297 272 l 454 272 q 491 279 474 272 q 520 299 508 286 q 540 328 533 311 q 547 364 547 345 l 547 1002 l 726 1002 l 726 994 l 783 937 l 783 182 q 764 78 783 125 q 705 -8 745 31 q 619 -67 667 -48 q 515 -86 572 -86 l 125 -86 l 68 -29 l 61 -29 l 61 1002 l 240 1002 l 240 994 l 297 937 l 297 272 m 697 243 l 697 972 l 576 972 l 576 364 q 567 316 576 338 q 541 278 557 294 q 503 252 525 262 q 454 243 480 243 l 211 243 l 211 972 l 90 972 l 90 0 l 454 0 q 627 71 555 0 q 680 149 663 106 q 697 243 697 192 z "},"W":{"ha":1335,"x_min":61,"x_max":1270,"o":"m 783 304 q 784 291 783 297 q 786 277 784 284 q 819 272 802 272 l 940 272 q 976 279 959 272 q 1006 300 993 287 q 1026 329 1019 313 q 1034 364 1034 346 l 1034 1002 l 1213 1002 l 1213 994 l 1270 937 l 1270 182 q 1190 -7 1270 71 q 1002 -86 1113 -86 l 928 -86 q 823 -66 873 -86 q 737 -8 774 -46 l 699 28 q 695 32 696 30 q 692 33 694 33 q 649 -17 673 5 q 596 -54 625 -39 q 534 -78 567 -69 q 467 -86 501 -86 l 393 -86 q 204 -7 283 -86 l 176 20 q 158 35 167 27 q 140 52 149 42 q 61 243 61 131 l 61 1002 l 240 1002 l 240 994 l 297 937 l 297 304 q 297 291 297 297 q 300 278 298 284 q 317 274 309 276 q 334 272 325 272 l 454 272 q 491 279 474 272 q 520 299 508 286 q 540 328 533 311 q 547 364 547 345 l 547 1002 l 726 1002 l 726 994 l 783 937 l 783 304 m 1183 243 l 1183 972 l 1063 972 l 1063 364 q 1053 317 1063 339 q 1026 278 1043 295 q 987 252 1010 262 q 940 243 965 243 l 819 243 q 771 252 793 243 q 732 278 749 262 q 707 316 716 294 q 697 364 697 338 l 697 972 l 576 972 l 576 364 q 567 316 576 338 q 541 278 557 294 q 503 252 525 262 q 454 243 480 243 l 334 243 q 286 252 309 243 q 247 278 264 262 q 221 317 231 295 q 211 364 211 339 l 211 972 l 90 972 l 90 243 q 161 72 90 143 q 334 0 231 0 l 406 0 q 481 12 445 0 q 549 44 518 23 q 602 97 579 66 q 636 165 624 127 q 671 97 648 127 q 725 44 694 66 q 792 12 755 23 q 868 0 828 0 l 940 0 q 1112 72 1040 0 q 1183 243 1183 143 z "},"X":{"ha":848,"x_min":61,"x_max":783,"o":"m 541 304 q 541 291 541 297 q 543 278 541 284 q 560 274 551 276 q 576 272 568 272 l 726 272 l 726 265 l 783 208 l 783 -86 l 685 -86 q 528 -35 598 -86 q 494 -7 509 -22 l 464 24 q 455 28 460 26 q 447 35 450 31 q 380 -35 420 -7 q 224 -86 311 -86 l 125 -86 l 68 -29 l 61 -29 l 61 272 l 211 272 q 247 279 230 272 q 277 300 264 287 q 297 329 290 313 q 304 364 304 346 l 304 607 q 302 623 304 615 q 297 639 300 631 q 284 642 291 640 q 272 643 277 643 l 125 643 l 68 700 l 61 700 l 61 1002 l 163 1002 q 249 986 207 1002 q 332 942 291 971 l 330 942 q 361 914 347 928 q 386 884 374 900 l 395 875 q 422 910 407 894 q 457 942 438 926 l 456 942 q 538 986 496 971 q 625 1002 581 1002 l 726 1002 l 726 994 l 783 937 l 783 643 l 636 643 q 599 635 616 643 q 569 614 582 627 q 548 584 556 602 q 541 547 541 566 l 541 304 m 697 0 l 697 243 l 576 243 q 529 252 551 243 q 491 278 507 262 q 464 317 474 295 q 454 364 454 339 l 454 607 q 464 654 454 632 q 491 693 474 677 q 529 720 507 710 q 576 729 551 729 l 697 729 l 697 972 l 625 972 q 482 925 546 972 q 428 872 450 902 q 393 804 406 842 q 359 872 382 842 q 306 925 337 902 q 163 972 241 972 l 90 972 l 90 729 l 211 729 q 258 720 236 729 q 297 693 281 710 q 324 654 314 677 q 334 607 334 632 l 334 364 q 324 317 334 339 q 297 278 314 295 q 258 252 281 262 q 211 243 236 243 l 90 243 l 90 0 l 163 0 q 306 46 240 0 q 359 100 337 70 q 393 168 382 130 q 428 100 406 130 q 482 46 450 70 q 625 0 547 0 l 697 0 z "},"Y":{"ha":848,"x_min":61,"x_max":783,"o":"m 297 596 q 297 582 297 589 q 300 570 298 576 q 317 566 309 568 q 334 564 325 564 l 454 564 q 491 571 474 564 q 520 590 508 578 q 540 620 533 603 q 547 656 547 636 l 547 1002 l 726 1002 l 726 994 l 783 937 l 783 473 q 764 370 783 417 q 705 283 745 322 q 630 230 671 249 q 541 207 589 210 l 541 -86 l 368 -86 l 311 -29 l 304 -29 l 304 218 q 251 244 276 229 q 204 283 226 260 l 176 311 q 158 325 167 317 q 140 342 149 332 q 61 534 61 421 l 61 1002 l 240 1002 l 240 994 l 297 937 l 297 596 m 697 534 l 697 972 l 576 972 l 576 656 q 567 608 576 630 q 541 570 557 586 q 503 544 525 553 q 454 534 480 534 l 334 534 q 286 544 309 534 q 247 570 264 553 q 221 609 231 587 q 211 656 211 631 l 211 972 l 90 972 l 90 534 q 108 441 90 484 q 161 363 125 398 q 334 292 231 292 l 334 0 l 454 0 l 454 292 q 627 363 555 292 q 680 441 663 398 q 697 534 697 484 z "},"Z":{"ha":848,"x_min":61,"x_max":783,"o":"m 444 272 l 726 272 l 726 265 l 783 208 l 783 -86 l 125 -86 l 68 -29 l 61 -29 l 61 254 l 401 643 l 125 643 l 68 700 l 61 700 l 61 1002 l 726 1002 l 726 994 l 783 937 l 783 659 l 444 272 m 697 0 l 697 243 l 272 243 l 697 729 l 697 972 l 90 972 l 90 729 l 515 729 l 90 243 l 90 0 l 697 0 z "},"[":{"ha":545,"x_min":61,"x_max":419,"o":"m 297 150 l 363 150 l 363 143 l 419 86 l 419 -208 l 125 -208 l 68 -151 l 61 -151 l 61 1122 l 363 1122 l 363 1116 l 419 1059 l 419 764 l 297 764 l 297 150 m 334 -122 l 334 121 l 211 121 l 211 850 l 334 850 l 334 1093 l 90 1093 l 90 -122 l 334 -122 z "},"\\":{"ha":710,"x_min":22,"x_max":684,"o":"m 461 -142 l 457 -143 l 22 1054 l 192 1116 l 196 1103 l 250 1050 l 684 -142 l 519 -200 l 461 -142 m 589 -64 l 174 1078 l 60 1036 l 475 -106 l 589 -64 z "},"]":{"ha":545,"x_min":121,"x_max":481,"o":"m 129 821 l 121 821 l 121 1122 l 422 1122 l 422 1116 l 481 1059 l 481 -208 l 186 -208 l 129 -151 l 121 -151 l 121 150 l 243 150 l 243 764 l 186 764 l 129 821 m 393 -122 l 393 1093 l 150 1093 l 150 850 l 272 850 l 272 121 l 150 121 l 150 -122 l 393 -122 z "},"^":{"ha":733,"x_min":52,"x_max":677,"o":"m 62 507 l 52 513 l 268 1002 l 404 1002 l 410 990 l 463 937 l 677 454 l 542 393 l 484 452 l 479 450 l 378 675 l 253 393 l 117 454 l 62 507 m 583 529 l 385 972 l 288 972 l 90 529 l 179 489 l 336 842 l 494 489 l 583 529 z "},"_":{"ha":547,"x_min":0,"x_max":547,"o":"m 0 0 l 0 121 l 547 121 l 547 0 l 0 0 z "},"`":{"ha":411,"x_min":40,"x_max":358,"o":"m 176 772 l 170 772 l 40 1002 l 205 1002 l 210 990 l 264 937 l 358 715 l 233 715 l 176 772 m 260 802 l 187 972 l 90 972 l 187 802 l 260 802 z "},"a":{"ha":848,"x_min":61,"x_max":783,"o":"m 547 486 q 546 503 547 494 q 542 518 545 511 q 529 520 535 519 q 515 521 523 521 l 393 521 q 356 513 374 521 q 326 493 339 506 q 305 463 313 480 q 297 425 297 445 l 297 304 q 297 291 297 297 q 300 278 298 284 q 317 274 309 276 q 334 272 325 272 l 454 272 q 490 279 473 272 q 519 300 507 287 q 540 329 532 313 q 547 364 547 346 l 547 486 m 176 20 q 158 35 167 27 q 140 52 149 42 q 61 243 61 131 l 61 607 q 81 712 61 665 q 140 800 100 760 q 229 859 181 840 q 334 879 276 879 l 454 879 q 560 860 512 879 q 647 802 608 842 q 662 784 656 793 q 675 766 669 776 l 705 737 q 783 547 783 660 l 783 -86 l 611 -86 l 595 -69 q 556 -82 576 -79 q 515 -86 536 -86 l 393 -86 q 204 -7 283 -86 l 176 20 m 697 0 l 697 607 q 680 701 697 658 q 627 781 663 745 q 548 833 591 817 q 454 850 505 850 l 334 850 q 161 779 231 850 q 90 607 90 708 l 90 243 q 161 72 90 143 q 334 0 231 0 l 454 0 q 495 4 475 0 q 532 20 515 9 q 576 82 574 43 l 576 0 l 697 0 m 576 364 q 567 317 576 339 q 540 278 557 295 q 502 252 524 262 q 454 243 479 243 l 334 243 q 286 252 309 243 q 247 278 264 262 q 221 317 231 295 q 211 364 211 339 l 211 486 q 221 533 211 511 q 247 572 231 555 q 286 597 264 588 q 334 607 309 607 l 454 607 q 503 598 480 607 q 541 572 525 589 q 567 534 557 556 q 576 486 576 512 l 576 364 z "},"b":{"ha":848,"x_min":61,"x_max":783,"o":"m 547 486 q 541 518 547 503 q 527 520 534 519 q 515 521 521 521 l 393 521 q 356 513 374 521 q 326 493 339 506 q 305 463 313 480 q 297 425 297 445 l 297 304 q 297 291 297 297 q 300 277 298 284 q 334 272 316 272 l 454 272 q 490 279 473 272 q 519 300 507 287 q 540 329 532 313 q 547 364 547 346 l 547 486 m 297 876 q 315 879 307 878 q 334 879 324 879 l 454 879 q 646 800 566 879 q 662 781 654 791 q 676 762 669 772 l 704 736 q 764 650 744 697 q 783 547 783 602 l 783 182 q 704 -7 783 71 q 618 -66 665 -47 q 515 -86 570 -86 l 393 -86 q 290 -67 336 -86 q 203 -8 243 -48 l 172 21 q 156 34 164 27 q 140 50 148 41 q 80 138 100 90 q 61 243 61 185 l 61 1063 l 240 1063 l 240 1054 l 297 997 l 297 876 m 697 243 l 697 607 q 627 779 697 707 q 454 850 554 850 l 334 850 q 293 845 313 850 q 256 831 273 841 q 211 770 213 807 l 211 1034 l 90 1034 l 90 243 q 160 71 90 140 q 334 0 233 0 l 454 0 q 627 72 554 0 q 697 243 697 144 m 576 364 q 567 317 576 339 q 540 278 557 295 q 502 252 524 262 q 454 243 479 243 l 334 243 q 285 252 307 243 q 246 278 262 262 q 220 316 230 294 q 211 364 211 338 l 211 486 q 221 533 211 511 q 247 572 231 555 q 286 597 264 588 q 334 607 309 607 l 454 607 q 502 597 479 607 q 540 572 524 588 q 567 533 557 555 q 576 486 576 511 l 576 364 z "},"c":{"ha":848,"x_min":61,"x_max":783,"o":"m 297 304 q 297 291 297 297 q 300 278 298 284 q 317 274 309 276 q 334 272 325 272 l 726 272 l 726 265 l 783 208 l 783 -86 l 393 -86 q 204 -7 283 -86 l 176 20 q 158 35 167 27 q 140 52 149 42 q 61 243 61 131 l 61 607 q 81 712 61 665 q 140 800 100 760 q 229 859 181 840 q 334 879 276 879 l 726 879 l 726 872 l 783 815 l 783 521 l 393 521 q 356 513 374 521 q 326 493 339 506 q 305 463 313 480 q 297 425 297 445 l 297 304 m 697 0 l 697 243 l 334 243 q 286 252 309 243 q 247 278 264 262 q 221 317 231 295 q 211 364 211 339 l 211 486 q 221 533 211 511 q 247 572 231 555 q 286 597 264 588 q 334 607 309 607 l 697 607 l 697 850 l 334 850 q 161 779 231 850 q 90 607 90 708 l 90 243 q 161 72 90 143 q 334 0 231 0 l 697 0 z "},"d":{"ha":848,"x_min":61,"x_max":783,"o":"m 547 486 q 541 518 547 503 q 527 520 534 519 q 515 521 521 521 l 393 521 q 356 513 374 521 q 326 493 339 506 q 305 463 313 480 q 297 425 297 445 l 297 304 q 297 291 297 297 q 300 278 298 284 q 317 274 309 276 q 334 272 325 272 l 454 272 q 491 279 474 272 q 520 299 508 286 q 540 328 533 311 q 547 364 547 345 l 547 486 m 176 20 q 158 35 167 27 q 140 52 149 42 q 61 243 61 131 l 61 607 q 81 712 61 665 q 140 800 100 760 q 229 859 181 840 q 334 879 276 879 l 454 879 q 500 874 476 879 q 547 857 524 869 l 547 1063 l 726 1063 l 726 1054 l 783 997 l 783 182 q 764 78 783 125 q 705 -8 745 31 q 619 -67 667 -48 q 515 -86 572 -86 l 393 -86 q 204 -7 283 -86 l 176 20 m 697 243 l 697 1034 l 576 1034 l 576 770 q 532 831 574 807 q 495 845 515 841 q 454 850 475 850 l 334 850 q 161 779 231 850 q 90 607 90 708 l 90 243 q 161 72 90 143 q 334 0 231 0 l 454 0 q 627 71 555 0 q 680 149 663 106 q 697 243 697 192 m 576 364 q 567 316 576 338 q 541 278 557 294 q 503 252 525 262 q 454 243 480 243 l 334 243 q 286 252 309 243 q 247 278 264 262 q 221 317 231 295 q 211 364 211 339 l 211 486 q 221 533 211 511 q 247 572 231 555 q 286 597 264 588 q 334 607 309 607 l 454 607 q 502 597 479 607 q 540 572 524 588 q 567 533 557 555 q 576 486 576 511 l 576 364 z "},"e":{"ha":848,"x_min":61,"x_max":783,"o":"m 301 278 q 317 273 309 275 q 334 272 325 272 l 726 272 l 726 265 l 783 208 l 783 -86 l 393 -86 q 204 -7 283 -86 l 176 20 q 158 35 167 27 q 140 52 149 42 q 61 243 61 131 l 61 607 q 81 712 61 665 q 140 800 100 760 q 229 859 181 840 q 334 879 276 879 l 726 879 l 726 872 l 783 815 l 783 521 l 393 521 q 359 515 375 521 l 606 515 l 606 509 l 663 452 l 663 278 l 301 278 m 697 0 l 697 243 l 334 243 q 286 252 309 243 q 247 278 264 262 q 221 317 231 295 q 211 364 211 339 l 576 364 l 576 486 l 211 486 q 221 533 211 511 q 247 572 231 555 q 286 597 264 588 q 334 607 309 607 l 697 607 l 697 850 l 334 850 q 161 779 231 850 q 90 607 90 708 l 90 243 q 161 72 90 143 q 334 0 231 0 l 697 0 z "},"f":{"ha":696,"x_min":61,"x_max":663,"o":"m 68 -29 l 61 -29 l 61 790 q 80 895 61 848 q 140 983 100 943 q 334 1063 220 1063 l 606 1063 l 606 1054 l 663 997 l 663 704 l 393 704 q 355 696 373 704 q 325 676 338 689 q 304 646 312 663 q 297 607 297 628 l 297 576 l 484 576 l 484 568 l 541 511 l 541 339 l 297 339 l 297 -86 l 125 -86 l 68 -29 m 576 790 l 576 1034 l 334 1034 q 160 962 232 1034 q 90 790 90 893 l 90 0 l 211 0 l 211 425 l 454 425 l 454 547 l 211 547 l 211 668 q 220 716 211 694 q 246 755 230 739 q 285 781 262 771 q 334 790 307 790 l 576 790 z "},"g":{"ha":848,"x_min":61,"x_max":783,"o":"m 547 486 q 541 518 547 503 q 527 520 534 519 q 515 521 521 521 l 393 521 q 356 513 374 521 q 326 493 339 506 q 305 463 313 480 q 297 425 297 445 l 297 304 q 297 291 297 297 q 300 278 298 284 q 317 274 309 276 q 334 272 325 272 l 454 272 q 491 279 474 272 q 520 299 508 286 q 540 328 533 311 q 547 364 547 345 l 547 486 m 176 20 q 158 35 167 27 q 140 52 149 42 q 61 243 61 131 l 61 607 q 81 712 61 665 q 140 800 100 760 q 229 859 181 840 q 334 879 276 879 l 454 879 q 560 860 512 879 q 647 802 608 842 q 662 784 656 793 q 675 766 669 776 l 705 737 q 783 547 783 660 l 783 -182 q 764 -287 783 -239 q 705 -374 745 -334 q 515 -452 629 -452 l 368 -452 l 311 -395 l 304 -395 l 304 -93 l 454 -93 q 488 -86 472 -93 l 393 -86 q 204 -7 283 -86 l 176 20 m 697 -122 l 697 607 q 680 701 697 658 q 627 781 663 745 q 548 833 591 817 q 454 850 505 850 l 334 850 q 161 779 231 850 q 90 607 90 708 l 90 243 q 161 72 90 143 q 334 0 231 0 l 454 0 q 495 4 475 0 q 532 20 515 9 q 576 82 574 43 l 576 0 q 567 -48 576 -26 q 541 -87 557 -71 q 503 -113 525 -103 q 454 -122 480 -122 l 334 -122 l 334 -366 l 454 -366 q 627 -294 555 -366 q 680 -216 663 -259 q 697 -122 697 -174 m 576 364 q 567 316 576 338 q 541 278 557 294 q 503 252 525 262 q 454 243 480 243 l 334 243 q 286 252 309 243 q 247 278 264 262 q 221 317 231 295 q 211 364 211 339 l 211 486 q 221 533 211 511 q 247 572 231 555 q 286 597 264 588 q 334 607 309 607 l 454 607 q 502 597 479 607 q 540 572 524 588 q 567 533 557 555 q 576 486 576 511 l 576 364 z "},"h":{"ha":848,"x_min":61,"x_max":783,"o":"m 297 876 q 315 879 307 878 q 334 879 324 879 l 454 879 q 646 800 566 879 q 662 781 654 791 q 676 762 669 772 l 704 736 q 764 650 744 697 q 783 547 783 602 l 783 -86 l 611 -86 l 554 -29 l 547 -29 l 547 486 q 541 518 547 503 q 527 520 534 519 q 515 521 521 521 l 393 521 q 356 513 374 521 q 326 493 339 506 q 305 463 313 480 q 297 425 297 445 l 297 -86 l 125 -86 l 68 -29 l 61 -29 l 61 1063 l 240 1063 l 240 1054 l 297 997 l 297 876 m 697 0 l 697 607 q 627 779 697 707 q 454 850 554 850 l 334 850 q 293 845 313 850 q 256 831 273 841 q 211 770 211 807 l 211 1034 l 90 1034 l 90 0 l 211 0 l 211 486 q 221 533 211 511 q 247 572 231 555 q 286 597 264 588 q 334 607 309 607 l 454 607 q 502 597 479 607 q 540 572 524 588 q 567 533 557 555 q 576 486 576 511 l 576 0 l 697 0 z "},"i":{"ha":363,"x_min":61,"x_max":297,"o":"m 68 -29 l 61 -29 l 61 879 l 240 879 l 240 872 l 297 815 l 297 -86 l 125 -86 l 68 -29 m 211 0 l 211 850 l 90 850 l 90 0 l 211 0 z "},"j":{"ha":606,"x_min":61,"x_max":541,"o":"m 68 578 l 61 578 l 61 879 l 484 879 l 484 872 l 541 815 l 541 -182 q 522 -287 541 -239 q 463 -374 503 -334 q 272 -452 385 -452 l 125 -452 l 68 -395 l 61 -395 l 61 -93 l 211 -93 q 248 -86 231 -93 q 278 -66 265 -79 q 297 -37 290 -54 q 304 0 304 -20 l 304 521 l 125 521 l 68 578 m 454 -122 l 454 850 l 90 850 l 90 607 l 334 607 l 334 0 q 324 -48 334 -26 q 298 -87 315 -71 q 260 -113 282 -103 q 211 -122 237 -122 l 90 -122 l 90 -366 l 211 -366 q 383 -294 313 -366 q 437 -216 420 -259 q 454 -122 454 -174 z "},"k":{"ha":848,"x_min":61,"x_max":783,"o":"m 297 576 l 454 576 q 491 584 474 576 q 520 603 508 591 q 540 632 533 615 q 547 668 547 648 l 547 879 l 726 879 l 726 872 l 783 815 l 783 583 q 755 460 783 517 q 675 366 726 403 l 704 338 q 763 250 742 300 q 783 146 783 201 l 783 -86 l 611 -86 l 554 -29 l 547 -29 l 547 182 q 542 214 547 201 q 529 217 535 215 q 515 218 523 218 l 297 218 l 297 -86 l 125 -86 l 68 -29 l 61 -29 l 61 1063 l 240 1063 l 240 1054 l 297 997 l 297 576 m 697 0 l 697 207 q 688 274 697 241 q 661 336 678 307 q 618 387 644 364 q 562 425 593 410 q 618 463 593 440 q 661 514 644 486 q 688 576 678 543 q 697 644 697 609 l 697 850 l 576 850 l 576 668 q 567 620 576 642 q 541 582 557 598 q 503 556 525 566 q 454 547 480 547 l 211 547 l 211 1034 l 90 1034 l 90 0 l 211 0 l 211 304 l 454 304 q 503 295 480 304 q 541 269 525 286 q 567 231 557 253 q 576 182 576 208 l 576 0 l 697 0 z "},"l":{"ha":453,"x_min":61,"x_max":419,"o":"m 297 304 q 297 293 297 298 q 298 285 297 289 q 363 272 328 272 l 363 265 l 419 208 l 419 -61 l 393 -86 q 290 -67 336 -86 q 203 -8 243 -48 l 172 21 q 156 34 164 27 q 140 50 148 41 q 80 138 100 90 q 61 243 61 185 l 61 1063 l 240 1063 l 240 1054 l 297 997 l 297 304 m 334 0 l 334 243 q 285 252 307 243 q 246 278 262 262 q 220 316 230 294 q 211 364 211 338 l 211 1034 l 90 1034 l 90 243 q 160 71 90 140 q 334 0 233 0 z "},"m":{"ha":1335,"x_min":61,"x_max":1270,"o":"m 68 -29 l 61 -29 l 61 607 q 81 712 61 665 q 140 800 100 760 q 229 859 181 840 q 334 879 276 879 l 406 879 q 529 850 471 879 q 625 768 587 821 l 639 754 q 737 846 677 813 q 868 879 797 879 l 940 879 q 1132 800 1052 879 q 1148 781 1141 791 q 1162 762 1156 772 l 1187 739 l 1186 741 l 1190 736 q 1250 650 1230 697 q 1270 547 1270 602 l 1270 -86 l 1097 -86 l 1040 -29 l 1034 -29 l 1034 486 q 1026 518 1034 503 q 1014 520 1020 519 q 1002 521 1007 521 l 879 521 q 841 514 859 521 q 811 494 824 507 q 791 464 798 481 q 783 425 783 446 l 783 -86 l 611 -86 l 554 -29 l 547 -29 l 547 486 q 546 503 547 494 q 542 518 545 511 q 529 520 535 519 q 515 521 523 521 l 393 521 q 356 513 374 521 q 326 493 339 506 q 305 463 313 480 q 297 425 297 445 l 297 -86 l 125 -86 l 68 -29 m 1183 0 l 1183 607 q 1112 779 1183 708 q 940 850 1041 850 l 868 850 q 792 838 828 850 q 725 805 755 827 q 671 753 694 784 q 636 685 648 723 q 602 753 624 723 q 549 805 579 784 q 481 838 518 827 q 406 850 445 850 l 334 850 q 161 779 231 850 q 90 607 90 708 l 90 0 l 211 0 l 211 486 q 221 533 211 511 q 247 572 231 555 q 286 597 264 588 q 334 607 309 607 l 454 607 q 503 598 480 607 q 541 572 525 589 q 567 534 557 556 q 576 486 576 512 l 576 0 l 697 0 l 697 486 q 707 534 697 512 q 732 572 716 556 q 771 598 749 589 q 819 607 793 607 l 940 607 q 987 597 965 607 q 1026 572 1010 588 q 1053 533 1043 555 q 1063 486 1063 511 l 1063 0 l 1183 0 z "},"n":{"ha":848,"x_min":61,"x_max":783,"o":"m 68 -29 l 61 -29 l 61 607 q 80 712 61 665 q 140 800 100 760 q 334 879 220 879 l 454 879 q 560 860 512 879 q 647 802 608 842 q 662 784 656 793 q 675 766 669 776 l 705 737 q 783 547 783 660 l 783 -86 l 611 -86 l 554 -29 l 547 -29 l 547 486 q 546 503 547 494 q 542 518 545 511 q 529 520 535 519 q 515 521 523 521 l 393 521 q 356 513 374 521 q 326 493 339 506 q 305 463 313 480 q 297 425 297 445 l 297 -86 l 125 -86 l 68 -29 m 697 0 l 697 607 q 680 701 697 658 q 627 781 663 745 q 548 833 591 817 q 454 850 505 850 l 334 850 q 160 779 231 850 q 90 607 90 709 l 90 0 l 211 0 l 211 486 q 221 533 211 511 q 247 572 231 555 q 286 597 264 588 q 334 607 309 607 l 454 607 q 503 598 480 607 q 541 572 525 589 q 567 534 557 556 q 576 486 576 512 l 576 0 l 697 0 z "},"o":{"ha":848,"x_min":61,"x_max":783,"o":"m 547 486 q 541 518 547 503 q 527 520 534 519 q 515 521 521 521 l 393 521 q 356 513 374 521 q 326 493 339 506 q 305 463 313 480 q 297 425 297 445 l 297 304 q 297 291 297 297 q 300 278 298 284 q 317 274 309 276 q 334 272 325 272 l 454 272 q 491 279 474 272 q 520 299 508 286 q 540 328 533 311 q 547 364 547 345 l 547 486 m 172 21 q 156 34 164 27 q 140 50 148 41 q 80 138 100 90 q 61 243 61 186 l 61 607 q 80 712 61 665 q 140 800 100 760 q 334 879 220 879 l 454 879 q 646 800 566 879 q 662 781 654 791 q 676 762 669 772 l 701 739 l 700 741 l 704 736 q 764 650 744 697 q 783 547 783 602 l 783 182 q 764 78 783 125 q 705 -8 745 31 q 619 -67 667 -48 q 515 -86 572 -86 l 393 -86 q 290 -67 338 -86 q 203 -8 243 -48 l 172 21 m 697 243 l 697 607 q 627 779 697 707 q 454 850 554 850 l 334 850 q 160 779 231 850 q 90 607 90 709 l 90 243 q 107 150 90 193 q 160 71 124 106 q 334 0 233 0 l 454 0 q 627 71 555 0 q 680 149 663 106 q 697 243 697 192 m 576 364 q 567 316 576 338 q 541 278 557 294 q 503 252 525 262 q 454 243 480 243 l 334 243 q 286 252 309 243 q 247 278 264 262 q 221 317 231 295 q 211 364 211 339 l 211 486 q 221 533 211 511 q 247 572 231 555 q 286 597 264 588 q 334 607 309 607 l 454 607 q 502 597 479 607 q 540 572 524 588 q 567 533 557 555 q 576 486 576 511 l 576 364 z "},"p":{"ha":848,"x_min":61,"x_max":783,"o":"m 547 486 q 541 518 547 503 q 527 520 534 519 q 515 521 521 521 l 393 521 q 355 514 373 521 q 325 494 338 507 q 304 464 312 481 q 297 425 297 446 l 297 304 q 297 291 297 297 q 300 278 298 284 q 317 274 309 276 q 334 272 325 272 l 454 272 q 490 279 473 272 q 519 300 507 287 q 540 329 532 313 q 547 364 547 346 l 547 486 m 68 -272 l 61 -272 l 61 607 q 80 713 61 666 q 140 802 100 761 q 228 860 180 842 q 334 879 276 879 l 454 879 q 646 800 566 879 q 662 781 654 791 q 676 762 669 772 l 704 736 q 764 650 744 697 q 783 547 783 602 l 783 182 q 704 -7 783 71 q 618 -66 665 -47 q 515 -86 570 -86 l 393 -86 q 346 -81 369 -86 q 302 -64 322 -75 l 301 -62 q 297 -60 300 -62 l 297 -329 l 125 -329 l 68 -272 m 697 243 l 697 607 q 627 779 697 707 q 454 850 554 850 l 334 850 q 239 833 282 850 q 160 781 197 817 q 107 701 124 745 q 90 607 90 658 l 90 -243 l 211 -243 l 211 82 q 256 20 213 43 q 293 4 273 9 q 334 0 313 0 l 454 0 q 627 72 554 0 q 697 243 697 144 m 576 364 q 567 317 576 339 q 540 278 557 295 q 502 252 524 262 q 454 243 479 243 l 334 243 q 286 252 309 243 q 247 278 264 262 q 221 317 231 295 q 211 364 211 339 l 211 486 q 220 534 211 512 q 246 572 230 556 q 285 598 262 589 q 334 607 307 607 l 454 607 q 502 597 479 607 q 540 572 524 588 q 567 533 557 555 q 576 486 576 511 l 576 364 z "},"q":{"ha":848,"x_min":61,"x_max":783,"o":"m 547 486 q 546 503 547 494 q 542 518 545 511 q 529 520 535 519 q 515 521 523 521 l 393 521 q 356 513 374 521 q 326 493 339 506 q 305 463 313 480 q 297 425 297 445 l 297 304 q 297 291 297 297 q 300 278 298 284 q 317 274 309 276 q 334 272 325 272 l 454 272 q 490 279 473 272 q 519 300 507 287 q 540 329 532 313 q 547 364 547 346 l 547 486 m 176 20 q 158 35 167 27 q 140 52 149 42 q 61 243 61 131 l 61 607 q 81 712 61 665 q 140 800 100 760 q 229 859 181 840 q 334 879 276 879 l 454 879 q 560 860 512 879 q 647 802 608 842 q 662 784 656 793 q 675 766 669 776 l 703 741 l 701 742 l 705 737 q 783 547 783 660 l 783 -329 l 611 -329 l 554 -272 l 547 -272 l 547 -83 q 531 -85 539 -85 q 515 -86 524 -86 l 393 -86 q 204 -7 283 -86 l 176 20 m 697 -243 l 697 607 q 680 701 697 658 q 627 781 663 745 q 548 833 591 817 q 454 850 505 850 l 334 850 q 161 779 231 850 q 90 607 90 708 l 90 243 q 161 72 90 143 q 334 0 231 0 l 454 0 q 495 4 475 0 q 532 20 515 9 q 576 82 574 43 l 576 -243 l 697 -243 m 576 364 q 567 317 576 339 q 540 278 557 295 q 502 252 524 262 q 454 243 479 243 l 334 243 q 286 252 309 243 q 247 278 264 262 q 221 317 231 295 q 211 364 211 339 l 211 486 q 221 533 211 511 q 247 572 231 555 q 286 597 264 588 q 334 607 309 607 l 454 607 q 503 598 480 607 q 541 572 525 589 q 567 534 557 556 q 576 486 576 512 l 576 364 z "},"r":{"ha":696,"x_min":61,"x_max":663,"o":"m 68 -29 l 61 -29 l 61 879 l 240 879 l 240 872 l 250 861 q 291 875 270 871 q 334 879 313 879 l 606 879 l 606 872 l 663 815 l 663 521 l 393 521 q 356 513 374 521 q 326 493 339 506 q 305 463 313 480 q 297 425 297 445 l 297 -86 l 125 -86 l 68 -29 m 576 607 l 576 850 l 334 850 q 293 845 313 850 q 256 831 273 841 q 211 770 213 807 l 211 850 l 90 850 l 90 0 l 211 0 l 211 486 q 221 533 211 511 q 247 572 231 555 q 286 597 264 588 q 334 607 309 607 l 576 607 z "},"s":{"ha":848,"x_min":61,"x_max":783,"o":"m 393 521 q 374 515 379 521 l 454 515 q 646 435 567 515 q 662 417 654 425 q 676 399 669 408 l 701 374 l 700 375 l 704 372 q 783 182 783 293 q 704 -7 783 71 q 618 -66 665 -47 q 515 -86 570 -86 l 125 -86 l 68 -29 l 61 -29 l 61 272 l 454 272 q 464 274 460 272 q 472 278 468 276 l 393 278 q 291 298 338 278 q 204 357 244 318 l 176 383 q 158 398 167 391 q 140 415 149 406 q 81 503 100 456 q 61 607 61 550 q 81 712 61 665 q 140 800 100 760 q 229 859 181 840 q 334 879 276 879 l 726 879 l 726 872 l 783 815 l 783 521 l 393 521 m 697 243 q 627 414 697 343 q 547 468 590 450 q 454 486 505 486 l 334 486 q 290 504 308 486 q 272 547 272 522 q 290 590 272 572 q 334 607 307 607 l 697 607 l 697 850 l 334 850 q 161 779 231 850 q 90 607 90 708 q 161 436 90 507 q 334 364 232 364 l 454 364 q 478 359 467 364 q 497 347 489 355 q 511 328 506 338 q 515 304 515 317 q 498 260 515 278 q 454 243 480 243 l 90 243 l 90 0 l 454 0 q 627 72 554 0 q 697 243 697 144 z "},"t":{"ha":696,"x_min":61,"x_max":663,"o":"m 297 304 q 297 291 297 297 q 300 277 298 284 q 334 272 316 272 l 606 272 l 606 265 l 663 208 l 663 -86 l 393 -86 q 290 -67 336 -86 q 203 -8 243 -48 l 172 21 q 156 34 164 27 q 140 50 148 41 q 80 138 100 90 q 61 243 61 185 l 61 1002 l 240 1002 l 240 994 l 297 937 l 297 879 l 484 879 l 484 872 l 541 815 l 541 643 l 297 643 l 297 304 m 576 0 l 576 243 l 334 243 q 285 252 307 243 q 246 278 262 262 q 220 316 230 294 q 211 364 211 338 l 211 729 l 454 729 l 454 850 l 211 850 l 211 972 l 90 972 l 90 243 q 160 71 90 140 q 334 0 233 0 l 576 0 z "},"u":{"ha":848,"x_min":61,"x_max":783,"o":"m 297 304 q 297 291 297 297 q 300 278 298 284 q 317 274 309 276 q 334 272 325 272 l 454 272 q 491 279 474 272 q 520 299 508 286 q 540 328 533 311 q 547 364 547 345 l 547 879 l 726 879 l 726 872 l 783 815 l 783 182 q 764 78 783 125 q 705 -8 745 31 q 619 -67 667 -48 q 515 -86 572 -86 l 393 -86 q 290 -67 338 -86 q 203 -8 243 -48 l 172 21 q 156 34 164 27 q 140 50 148 41 q 80 138 100 90 q 61 243 61 186 l 61 879 l 240 879 l 240 872 l 297 815 l 297 304 m 697 243 l 697 850 l 576 850 l 576 364 q 567 316 576 338 q 541 278 557 294 q 503 252 525 262 q 454 243 480 243 l 334 243 q 286 252 309 243 q 247 278 264 262 q 221 317 231 295 q 211 364 211 339 l 211 850 l 90 850 l 90 243 q 107 150 90 193 q 160 71 124 106 q 334 0 233 0 l 454 0 q 627 71 555 0 q 680 149 663 106 q 697 243 697 192 z "},"v":{"ha":848,"x_min":61,"x_max":783,"o":"m 297 272 l 454 272 q 491 279 474 272 q 520 299 508 286 q 540 328 533 311 q 547 364 547 345 l 547 879 l 726 879 l 726 872 l 783 815 l 783 182 q 764 78 783 125 q 705 -8 745 31 q 619 -67 667 -48 q 515 -86 572 -86 l 125 -86 l 68 -29 l 61 -29 l 61 879 l 240 879 l 240 872 l 297 815 l 297 272 m 697 243 l 697 850 l 576 850 l 576 364 q 567 316 576 338 q 541 278 557 294 q 503 252 525 262 q 454 243 480 243 l 211 243 l 211 850 l 90 850 l 90 0 l 454 0 q 627 71 555 0 q 680 149 663 106 q 697 243 697 192 z "},"w":{"ha":1335,"x_min":61,"x_max":1270,"o":"m 783 304 q 784 291 783 297 q 786 277 784 284 q 819 272 802 272 l 940 272 q 976 279 959 272 q 1006 300 993 287 q 1026 329 1019 313 q 1034 364 1034 346 l 1034 879 l 1213 879 l 1213 872 l 1270 815 l 1270 182 q 1190 -7 1270 71 q 1002 -86 1113 -86 l 928 -86 q 823 -66 873 -86 q 737 -8 774 -46 l 699 28 q 695 32 696 30 q 692 33 694 33 q 649 -17 673 5 q 596 -54 625 -39 q 534 -78 567 -69 q 467 -86 501 -86 l 393 -86 q 204 -7 283 -86 l 176 20 q 158 35 167 27 q 140 52 149 42 q 61 243 61 131 l 61 879 l 240 879 l 240 872 l 297 815 l 297 304 q 297 291 297 297 q 300 278 298 284 q 317 274 309 276 q 334 272 325 272 l 454 272 q 491 279 474 272 q 520 299 508 286 q 540 328 533 311 q 547 364 547 345 l 547 879 l 726 879 l 726 872 l 783 815 l 783 304 m 1183 243 l 1183 850 l 1063 850 l 1063 364 q 1053 317 1063 339 q 1026 278 1043 295 q 987 252 1010 262 q 940 243 965 243 l 819 243 q 771 252 793 243 q 732 278 749 262 q 707 316 716 294 q 697 364 697 338 l 697 850 l 576 850 l 576 364 q 567 316 576 338 q 541 278 557 294 q 503 252 525 262 q 454 243 480 243 l 334 243 q 286 252 309 243 q 247 278 264 262 q 221 317 231 295 q 211 364 211 339 l 211 850 l 90 850 l 90 243 q 161 72 90 143 q 334 0 231 0 l 406 0 q 481 12 445 0 q 549 44 518 23 q 602 97 579 66 q 636 165 624 127 q 671 97 648 127 q 725 44 694 66 q 792 12 755 23 q 868 0 828 0 l 940 0 q 1112 72 1040 0 q 1183 243 1183 143 z "},"x":{"ha":848,"x_min":61,"x_max":783,"o":"m 541 304 q 541 291 541 297 q 543 278 541 284 q 560 274 551 276 q 576 272 568 272 l 726 272 l 726 265 l 783 208 l 783 -86 l 685 -86 q 528 -35 598 -86 q 494 -7 509 -22 l 464 24 q 455 28 460 26 q 447 35 450 31 q 380 -35 420 -7 q 224 -86 311 -86 l 125 -86 l 68 -29 l 61 -29 l 61 272 l 211 272 q 247 279 230 272 q 277 300 264 287 q 297 329 290 313 q 304 364 304 346 l 304 486 q 302 503 304 494 q 297 518 300 511 q 284 520 291 519 q 272 521 277 521 l 125 521 l 68 578 l 61 578 l 61 879 l 163 879 q 249 865 207 879 q 332 821 291 850 l 330 821 q 361 792 347 806 q 386 762 374 778 l 395 753 q 422 789 407 772 q 457 821 438 805 l 456 821 q 625 879 534 879 l 726 879 l 726 872 l 783 815 l 783 521 l 636 521 q 599 513 616 521 q 569 493 582 506 q 548 463 556 480 q 541 425 541 445 l 541 304 m 697 0 l 697 243 l 576 243 q 529 252 551 243 q 491 278 507 262 q 464 317 474 295 q 454 364 454 339 l 454 486 q 464 533 454 511 q 491 572 474 555 q 529 597 507 588 q 576 607 551 607 l 697 607 l 697 850 l 625 850 q 550 838 585 850 q 482 803 515 827 q 428 750 450 780 q 393 684 406 721 q 359 750 382 721 q 306 803 337 780 q 163 850 242 850 l 90 850 l 90 607 l 211 607 q 258 597 236 607 q 297 572 281 588 q 324 533 314 555 q 334 486 334 511 l 334 364 q 324 317 334 339 q 297 278 314 295 q 258 252 281 262 q 211 243 236 243 l 90 243 l 90 0 l 163 0 q 306 46 240 0 q 359 100 337 70 q 393 168 382 130 q 428 100 406 130 q 482 46 450 70 q 625 0 547 0 l 697 0 z "},"y":{"ha":848,"x_min":61,"x_max":783,"o":"m 297 304 q 297 291 297 297 q 300 278 298 284 q 317 274 309 276 q 334 272 325 272 l 454 272 q 491 279 474 272 q 520 299 508 286 q 540 328 533 311 q 547 364 547 345 l 547 879 l 726 879 l 726 872 l 783 815 l 783 -182 q 764 -287 783 -239 q 705 -374 745 -334 q 515 -452 629 -452 l 368 -452 l 311 -395 l 304 -395 l 304 -93 l 454 -93 q 488 -86 472 -93 l 393 -86 q 204 -7 283 -86 l 176 20 q 158 35 167 27 q 140 52 149 42 q 61 243 61 131 l 61 879 l 240 879 l 240 872 l 297 815 l 297 304 m 697 -122 l 697 850 l 576 850 l 576 364 q 567 316 576 338 q 541 278 557 294 q 503 252 525 262 q 454 243 480 243 l 334 243 q 286 252 309 243 q 247 278 264 262 q 221 317 231 295 q 211 364 211 339 l 211 850 l 90 850 l 90 243 q 161 72 90 143 q 334 0 231 0 l 454 0 q 495 4 475 0 q 532 20 515 9 q 576 82 574 43 l 576 0 q 567 -48 576 -26 q 541 -87 557 -71 q 503 -113 525 -103 q 454 -122 480 -122 l 334 -122 l 334 -366 l 454 -366 q 627 -294 555 -366 q 680 -216 663 -259 q 697 -122 697 -174 z "},"z":{"ha":848,"x_min":61,"x_max":783,"o":"m 500 272 l 726 272 l 726 265 l 783 208 l 783 -86 l 125 -86 l 68 -29 l 61 -29 l 61 254 l 345 521 l 125 521 l 68 578 l 61 578 l 61 879 l 726 879 l 726 872 l 783 815 l 783 538 l 500 272 m 697 0 l 697 243 l 309 243 l 697 607 l 697 850 l 90 850 l 90 607 l 479 607 l 90 243 l 90 0 l 697 0 z "},"{":{"ha":665,"x_min":61,"x_max":541,"o":"m 419 182 q 419 173 419 178 q 421 164 420 168 q 451 154 435 157 q 484 150 467 150 l 484 143 l 541 86 l 541 -182 l 515 -208 q 412 -188 460 -208 q 325 -129 365 -168 l 297 -102 q 280 -87 289 -95 q 262 -71 271 -79 q 182 121 182 9 l 182 339 l 125 339 l 68 396 l 61 396 l 61 576 l 182 576 l 182 850 q 202 955 182 907 q 262 1043 222 1002 q 484 1122 342 1122 l 484 1116 l 541 1059 l 541 764 q 493 756 515 764 q 455 736 471 749 q 429 705 438 723 q 419 668 419 688 l 419 182 m 454 -122 l 454 121 q 407 131 429 121 q 369 157 385 140 q 343 196 353 174 q 334 243 334 218 l 334 729 q 343 776 334 754 q 369 814 353 798 q 407 840 385 831 q 454 850 429 850 l 454 1093 q 283 1022 353 1093 q 211 850 211 951 l 211 547 l 90 547 l 90 425 l 211 425 l 211 121 q 229 28 211 71 q 283 -50 248 -14 q 361 -104 319 -85 q 454 -122 404 -122 z "},"|":{"ha":363,"x_min":61,"x_max":297,"o":"m 68 -151 l 61 -151 l 61 1122 l 240 1122 l 240 1116 l 297 1059 l 297 -208 l 125 -208 l 68 -151 m 211 -122 l 211 1093 l 90 1093 l 90 -122 l 211 -122 z "},"}":{"ha":665,"x_min":121,"x_max":602,"o":"m 481 576 l 545 576 l 545 568 l 602 511 l 602 339 l 481 339 l 481 61 q 460 -42 481 5 q 401 -129 440 -90 q 308 -188 361 -168 q 186 -208 254 -208 l 129 -151 l 121 -151 l 121 150 q 169 157 146 150 q 208 178 191 165 q 233 208 224 191 q 243 243 243 224 l 243 729 q 241 742 243 735 q 237 755 239 749 q 212 762 225 761 q 186 764 199 764 l 129 821 l 121 821 l 121 1122 q 248 1103 193 1122 q 343 1043 302 1083 q 359 1024 351 1034 q 374 1006 366 1015 l 401 979 q 460 893 440 941 q 481 790 481 846 l 481 576 m 515 425 l 515 547 l 393 547 l 393 850 q 322 1022 393 951 q 150 1093 252 1093 l 150 850 q 198 840 176 850 q 237 814 220 831 q 262 776 253 798 q 272 729 272 754 l 272 243 q 262 196 272 218 q 237 157 253 174 q 198 131 220 140 q 150 121 176 121 l 150 -122 q 244 -104 201 -122 q 322 -50 287 -85 q 393 121 393 21 l 393 425 l 515 425 z "},"~":{"ha":751,"x_min":61,"x_max":686,"o":"m 66 326 q 63 325 64 325 q 61 323 62 325 l 61 490 q 260 551 155 551 q 302 545 279 551 q 355 525 325 538 q 431 503 405 503 q 522 521 473 503 q 629 576 570 540 l 629 566 l 686 509 l 686 364 l 675 343 q 490 290 591 290 q 450 297 473 290 q 396 317 427 304 q 321 339 348 339 q 125 269 237 339 l 66 326 m 600 425 l 600 522 q 431 473 522 473 q 394 480 415 473 q 345 498 373 486 q 260 522 290 522 q 171 511 214 522 q 90 473 129 499 l 90 376 q 171 413 129 401 q 260 425 214 425 q 296 419 275 425 q 345 401 317 413 q 431 376 399 376 q 600 425 522 376 z "},"€":{"ha":848,"x_min":61,"x_max":783,"o":"m 301 278 q 317 273 309 275 q 334 272 325 272 l 726 272 l 726 265 l 783 208 l 783 -86 l 393 -86 q 204 -7 283 -86 l 176 20 q 158 35 167 27 q 140 52 149 42 q 61 243 61 131 l 61 729 q 140 921 61 842 q 229 982 181 962 q 334 1002 276 1002 l 726 1002 l 726 994 l 783 937 l 783 643 l 393 643 q 376 641 385 643 q 359 636 368 640 l 606 636 l 606 629 l 663 572 l 663 436 l 640 436 l 663 414 l 663 278 l 301 278 m 697 0 l 697 243 l 334 243 q 286 252 309 243 q 247 278 264 262 q 221 317 231 295 q 211 364 211 339 l 576 364 l 576 450 l 211 450 l 211 522 l 576 522 l 576 607 l 211 607 q 221 654 211 632 q 247 693 231 677 q 286 720 264 710 q 334 729 309 729 l 697 729 l 697 972 l 334 972 q 161 900 233 972 q 90 729 90 829 l 90 243 q 161 72 90 143 q 334 0 231 0 l 697 0 z "},"‚":{"ha":411,"x_min":61,"x_max":346,"o":"m 117 -151 l 110 -151 l 110 -71 l 68 -29 l 61 -29 l 61 199 l 289 199 l 289 192 l 346 135 l 346 -208 l 174 -208 l 117 -151 m 260 -122 l 260 170 l 90 170 l 90 0 l 211 0 l 211 -74 l 139 -74 l 139 -122 l 260 -122 z "},"ƒ":{"ha":818,"x_min":-184,"x_max":786,"o":"m 728 1054 l 786 997 l 761 704 l 494 704 q 424 678 452 704 q 389 610 395 652 q 386 598 387 606 q 383 576 385 590 l 566 576 l 564 568 l 623 511 l 607 339 l 364 339 l 329 -64 q 325 -114 327 -83 q 318 -186 322 -145 q 289 -289 312 -241 q 224 -375 266 -336 q 29 -452 141 -452 l -121 -452 l -178 -395 l -184 -395 l -160 -93 l -11 -93 q 27 -85 9 -93 q 59 -65 45 -78 q 81 -35 73 -53 q 92 3 90 -18 l 161 791 q 190 896 167 849 q 257 983 213 943 q 349 1043 301 1023 q 454 1063 397 1063 l 729 1063 l 728 1054 m 697 1034 l 454 1034 q 277 962 351 1034 q 191 790 201 893 l 121 0 q 107 -48 119 -26 q 79 -87 96 -71 q 38 -113 61 -103 q -11 -122 15 -122 l -132 -122 l -153 -366 l -32 -366 q 146 -296 72 -366 q 205 -217 184 -260 q 232 -122 226 -174 q 238 -50 236 -80 q 243 0 241 -20 l 281 425 l 524 425 l 533 547 l 290 547 q 297 635 294 605 q 301 668 300 665 q 317 718 305 695 q 345 756 328 740 q 385 781 362 772 q 433 790 407 790 l 676 790 l 697 1034 z "},"„":{"ha":677,"x_min":61,"x_max":614,"o":"m 117 -151 l 110 -151 l 110 -71 l 68 -29 l 61 -29 l 61 199 l 289 199 l 289 192 l 328 153 l 328 199 l 557 199 l 557 192 l 614 135 l 614 -208 l 441 -208 l 383 -151 l 376 -151 l 376 -71 l 346 -40 l 346 -208 l 174 -208 l 117 -151 m 528 -122 l 528 170 l 357 170 l 357 0 l 479 0 l 479 -74 l 406 -74 l 406 -122 l 528 -122 m 260 -122 l 260 170 l 90 170 l 90 0 l 211 0 l 211 -74 l 139 -74 l 139 -122 l 260 -122 z "},"…":{"ha":994,"x_min":61,"x_max":929,"o":"m 359 -29 l 353 -29 l 353 199 l 581 199 l 581 192 l 637 135 l 637 -86 l 416 -86 l 359 -29 m 68 -29 l 61 -29 l 61 199 l 289 199 l 289 192 l 346 135 l 346 -86 l 125 -86 l 68 -29 m 652 -29 l 644 -29 l 644 199 l 872 199 l 872 192 l 929 135 l 929 -86 l 708 -86 l 652 -29 m 843 0 l 843 170 l 673 170 l 673 0 l 843 0 m 551 0 l 551 170 l 382 170 l 382 0 l 551 0 m 260 0 l 260 170 l 90 170 l 90 0 l 260 0 z "},"†":{"ha":726,"x_min":61,"x_max":663,"o":"m 481 758 l 606 758 l 606 751 l 663 694 l 663 521 l 481 521 l 481 -329 l 307 -329 l 250 -272 l 243 -272 l 243 521 l 125 521 l 68 578 l 61 578 l 61 758 l 243 758 l 243 1002 l 422 1002 l 422 994 l 481 937 l 481 758 m 576 607 l 576 729 l 393 729 l 393 972 l 272 972 l 272 729 l 90 729 l 90 607 l 272 607 l 272 -243 l 393 -243 l 393 607 l 576 607 z "},"‡":{"ha":726,"x_min":61,"x_max":663,"o":"m 481 393 l 606 393 l 606 386 l 663 329 l 663 157 l 481 157 l 481 -329 l 307 -329 l 250 -272 l 243 -272 l 243 157 l 125 157 l 68 214 l 61 214 l 61 393 l 243 393 l 243 521 l 125 521 l 68 578 l 61 578 l 61 758 l 243 758 l 243 1002 l 422 1002 l 422 994 l 481 937 l 481 758 l 606 758 l 606 751 l 663 694 l 663 521 l 481 521 l 481 393 m 576 243 l 576 364 l 393 364 l 393 607 l 576 607 l 576 729 l 393 729 l 393 972 l 272 972 l 272 729 l 90 729 l 90 607 l 272 607 l 272 364 l 90 364 l 90 243 l 272 243 l 272 -243 l 393 -243 l 393 243 l 576 243 z "},"ˆ":{"ha":532,"x_min":40,"x_max":486,"o":"m 50 772 l 40 772 l 170 1002 l 301 1002 l 309 986 l 359 937 l 486 715 l 355 715 l 298 772 l 294 772 l 285 785 l 237 715 l 107 715 l 50 772 m 382 802 l 285 972 l 187 972 l 90 802 l 163 802 l 236 904 l 309 802 l 382 802 z "},"‰":{"ha":1784,"x_min":61,"x_max":1719,"o":"m 1512 364 l 1512 370 l 1421 370 q 1375 351 1394 370 q 1356 304 1356 332 l 1356 211 l 1360 211 l 1451 211 q 1475 216 1463 211 q 1494 229 1486 220 q 1508 249 1503 237 q 1512 273 1512 260 l 1512 364 m 425 699 l 425 704 l 334 704 q 307 699 319 704 q 286 685 295 694 q 272 664 277 675 q 267 637 267 652 l 267 546 l 272 546 l 364 546 q 408 564 390 546 q 425 607 425 581 l 425 699 m 1149 364 l 1149 370 l 1055 370 q 1009 351 1028 370 q 990 304 990 332 l 990 211 l 996 211 l 1086 211 q 1131 229 1114 211 q 1149 273 1149 246 l 1149 364 m 827 583 q 836 594 831 589 q 846 606 840 600 q 915 651 878 636 q 996 667 951 667 l 1038 667 q 1141 641 1092 667 q 1223 570 1191 614 q 1304 641 1255 614 q 1409 667 1354 667 l 1451 667 q 1600 606 1539 667 q 1614 590 1607 598 q 1626 574 1620 582 l 1658 542 q 1719 395 1719 481 l 1719 121 q 1704 41 1719 78 q 1658 -25 1689 4 q 1511 -86 1597 -86 l 1470 -86 q 1382 -69 1423 -86 q 1308 -21 1340 -52 l 1282 5 q 1202 -61 1251 -37 q 1099 -86 1153 -86 l 1055 -86 q 908 -25 970 -86 l 876 5 q 861 19 868 12 q 846 33 853 26 q 827 54 835 44 l 827 -86 l 654 -86 l 597 -29 l 589 -29 l 589 326 q 581 317 585 321 q 571 307 576 313 q 424 248 511 248 l 334 248 q 186 309 247 248 l 153 340 q 137 353 144 346 q 122 367 130 359 q 61 517 61 430 l 61 790 q 122 939 61 878 q 272 1002 185 1002 l 364 1002 q 445 986 408 1002 q 513 939 481 970 q 526 923 520 931 q 539 908 532 916 l 571 876 l 589 854 l 589 1002 l 770 1002 l 770 994 l 827 937 l 827 583 m 1633 182 l 1633 456 q 1579 585 1633 531 q 1451 637 1525 637 l 1409 637 q 1349 628 1378 637 q 1295 602 1319 619 q 1252 562 1270 585 q 1223 510 1233 538 q 1195 562 1214 538 q 1152 602 1177 585 q 1098 628 1127 619 q 1038 637 1068 637 l 996 637 q 867 585 920 637 q 812 456 812 530 l 812 182 q 867 53 812 107 q 996 0 920 0 l 1038 0 q 1098 9 1068 0 q 1152 35 1127 18 q 1195 76 1177 52 q 1223 127 1214 99 q 1252 76 1233 99 q 1295 35 1270 52 q 1349 9 1319 18 q 1409 0 1378 0 l 1451 0 q 1579 53 1525 0 q 1633 182 1633 106 m 741 0 l 741 972 l 618 972 l 618 0 l 741 0 m 546 517 l 546 790 q 492 918 546 866 q 433 959 466 945 q 364 972 401 972 l 272 972 q 143 918 197 972 q 90 790 90 865 l 90 517 q 143 387 90 441 q 272 335 197 335 l 364 335 q 434 348 401 335 q 492 386 466 360 q 532 446 519 414 q 546 517 546 478 m 1541 273 q 1534 238 1541 255 q 1515 209 1527 222 q 1487 189 1503 197 q 1451 182 1470 182 l 1360 182 q 1323 189 1340 182 q 1294 208 1306 196 q 1275 237 1282 220 q 1268 273 1268 254 l 1268 364 q 1275 399 1268 382 q 1295 428 1282 416 q 1324 448 1308 441 q 1360 456 1341 456 l 1451 456 q 1487 448 1470 456 q 1515 428 1503 441 q 1534 399 1527 416 q 1541 364 1541 382 l 1541 273 m 1178 273 q 1171 237 1178 254 q 1152 208 1164 220 q 1123 189 1139 196 q 1086 182 1106 182 l 996 182 q 961 189 977 182 q 931 209 944 197 q 911 238 919 222 q 904 273 904 255 l 904 364 q 911 399 904 382 q 931 428 919 416 q 961 448 944 441 q 996 456 977 456 l 1086 456 q 1121 448 1105 456 q 1151 428 1138 441 q 1171 399 1163 416 q 1178 364 1178 382 l 1178 273 m 454 607 q 448 571 454 587 q 429 543 441 555 q 400 524 416 530 q 364 517 383 517 l 272 517 q 237 524 254 517 q 208 544 220 531 q 188 572 195 556 q 180 607 180 589 l 180 699 q 188 734 180 718 q 208 763 195 751 q 237 783 220 776 q 272 790 254 790 l 364 790 q 399 783 382 790 q 427 763 415 776 q 447 734 439 751 q 454 699 454 718 l 454 607 z "},"Š":{"ha":848,"x_min":61,"x_max":783,"o":"m 586 1239 l 644 1181 l 541 1002 l 726 1002 l 726 994 l 783 937 l 783 643 l 424 643 q 377 624 396 643 q 358 578 358 605 l 358 576 l 364 576 l 454 576 q 646 496 565 576 q 662 477 654 486 q 676 460 669 468 l 704 432 q 783 243 783 355 l 783 182 q 704 -7 783 71 q 618 -66 665 -47 q 515 -86 570 -86 l 125 -86 l 68 -29 l 61 -29 l 61 272 l 424 272 q 448 277 437 272 q 468 290 460 281 q 481 310 477 299 q 486 335 486 321 l 486 339 l 393 339 q 204 418 284 339 l 176 444 q 158 459 167 452 q 140 476 149 467 q 61 668 61 555 l 61 729 q 140 921 61 842 q 229 982 181 962 q 334 1002 276 1002 l 349 1002 l 335 1015 l 328 1015 l 199 1244 l 335 1244 l 347 1227 l 395 1181 l 400 1171 l 452 1244 l 589 1244 l 586 1239 m 539 1215 l 467 1215 l 393 1112 l 321 1215 l 248 1215 l 345 1044 l 441 1044 l 539 1215 m 697 243 l 697 304 q 627 475 697 404 q 547 529 590 511 q 454 547 505 547 l 364 547 q 329 554 345 547 q 299 574 312 562 q 279 602 287 586 q 272 637 272 618 q 279 673 272 656 q 299 702 287 690 q 329 722 312 715 q 364 729 345 729 l 697 729 l 697 972 l 334 972 q 161 900 233 972 q 90 729 90 829 l 90 668 q 161 497 90 568 q 240 444 197 462 q 334 425 283 425 l 424 425 q 459 418 442 425 q 488 398 475 410 q 508 370 500 386 q 515 335 515 353 q 508 299 515 316 q 488 270 500 283 q 459 250 475 258 q 424 243 442 243 l 90 243 l 90 0 l 454 0 q 627 72 554 0 q 697 243 697 144 z "},"‹":{"ha":599,"x_min":61,"x_max":546,"o":"m 488 325 l 546 267 l 464 143 l 125 363 l 78 410 l 61 421 l 61 551 l 404 774 l 418 753 l 464 707 l 546 583 l 321 439 l 490 329 l 488 325 m 449 321 l 193 486 l 449 652 l 395 733 l 90 534 l 90 437 l 395 239 l 449 321 z "},"Œ":{"ha":1152,"x_min":61,"x_max":1088,"o":"m 547 607 q 541 639 547 623 q 527 642 534 640 q 515 643 521 643 l 393 643 q 356 635 374 643 q 326 614 339 627 q 305 584 313 602 q 297 547 297 566 l 297 304 q 297 291 297 297 q 300 278 298 284 q 317 274 309 276 q 334 272 325 272 l 454 272 q 491 279 474 272 q 520 299 508 286 q 540 328 533 311 q 547 364 547 345 l 547 607 m 783 304 q 784 291 783 297 q 786 277 784 284 q 819 272 802 272 l 1031 272 l 1031 265 l 1088 208 l 1088 -86 l 928 -86 q 827 -67 873 -86 q 746 -12 781 -48 l 714 21 q 703 28 707 24 q 694 36 699 32 q 598 -54 658 -22 q 467 -86 538 -86 l 393 -86 q 290 -67 338 -86 q 203 -8 243 -48 l 172 21 q 156 34 164 27 q 140 50 148 41 q 80 138 100 90 q 61 243 61 186 l 61 729 q 80 833 61 786 q 140 921 100 881 q 334 1002 219 1002 l 406 1002 q 479 991 444 1002 q 547 961 513 981 l 547 1002 l 1031 1002 l 1031 994 l 1088 937 l 1088 643 l 783 643 l 783 576 l 908 576 l 908 568 l 966 511 l 966 339 l 783 339 l 783 304 m 1002 0 l 1002 243 l 819 243 q 771 252 793 243 q 732 278 749 262 q 707 316 716 294 q 697 364 697 338 l 697 425 l 879 425 l 879 547 l 697 547 l 697 729 l 1002 729 l 1002 972 l 576 972 l 576 903 q 406 972 505 972 l 334 972 q 240 954 283 972 q 160 900 197 936 q 90 729 90 830 l 90 243 q 107 150 90 193 q 160 71 124 106 q 334 0 233 0 l 406 0 q 485 12 447 0 q 553 47 522 24 q 606 102 583 70 q 639 174 628 134 q 674 102 652 134 q 726 47 696 70 q 791 12 755 24 q 868 0 827 0 l 1002 0 m 576 364 q 567 316 576 338 q 541 278 557 294 q 503 252 525 262 q 454 243 480 243 l 334 243 q 286 252 309 243 q 247 278 264 262 q 221 317 231 295 q 211 364 211 339 l 211 607 q 221 654 211 632 q 247 693 231 677 q 286 720 264 710 q 334 729 309 729 l 454 729 q 502 720 479 729 q 540 693 524 710 q 567 654 557 677 q 576 607 576 632 l 576 364 z "},"Ž":{"ha":848,"x_min":61,"x_max":783,"o":"m 586 1239 l 644 1181 l 541 1002 l 726 1002 l 726 994 l 783 937 l 783 659 l 444 272 l 726 272 l 726 265 l 783 208 l 783 -86 l 125 -86 l 68 -29 l 61 -29 l 61 254 l 401 643 l 125 643 l 68 700 l 61 700 l 61 1002 l 349 1002 l 335 1015 l 328 1015 l 199 1244 l 335 1244 l 347 1227 l 395 1181 l 400 1171 l 452 1244 l 589 1244 l 586 1239 m 539 1215 l 467 1215 l 393 1112 l 321 1215 l 248 1215 l 345 1044 l 441 1044 l 539 1215 m 697 0 l 697 243 l 272 243 l 697 729 l 697 972 l 90 972 l 90 729 l 515 729 l 90 243 l 90 0 l 697 0 z "},"‘":{"ha":411,"x_min":61,"x_max":346,"o":"m 68 713 l 61 713 l 61 1063 l 240 1063 l 240 1054 l 297 997 l 297 925 l 346 876 l 346 656 l 125 656 l 68 713 m 260 742 l 260 911 l 139 911 l 139 985 l 211 985 l 211 1034 l 90 1034 l 90 742 l 260 742 z "},"’":{"ha":411,"x_min":61,"x_max":346,"o":"m 117 713 l 110 713 l 110 791 l 68 833 l 61 833 l 61 1063 l 289 1063 l 289 1054 l 346 997 l 346 656 l 174 656 l 117 713 m 260 742 l 260 1034 l 90 1034 l 90 863 l 211 863 l 211 790 l 139 790 l 139 742 l 260 742 z "},"“":{"ha":677,"x_min":61,"x_max":614,"o":"m 297 925 l 328 895 l 328 1063 l 509 1063 l 509 1054 l 566 997 l 566 925 l 614 876 l 614 656 l 393 656 l 346 701 l 346 656 l 125 656 l 68 713 l 61 713 l 61 1063 l 240 1063 l 240 1054 l 297 997 l 297 925 m 528 742 l 528 911 l 406 911 l 406 985 l 479 985 l 479 1034 l 357 1034 l 357 742 l 528 742 m 260 742 l 260 911 l 139 911 l 139 985 l 211 985 l 211 1034 l 90 1034 l 90 742 l 260 742 z "},"”":{"ha":677,"x_min":61,"x_max":614,"o":"m 117 713 l 110 713 l 110 791 l 68 833 l 61 833 l 61 1063 l 289 1063 l 289 1054 l 328 1015 l 328 1063 l 557 1063 l 557 1054 l 614 997 l 614 656 l 441 656 l 383 713 l 376 713 l 376 791 l 346 822 l 346 656 l 174 656 l 117 713 m 528 742 l 528 1034 l 357 1034 l 357 863 l 479 863 l 479 790 l 406 790 l 406 742 l 528 742 m 260 742 l 260 1034 l 90 1034 l 90 863 l 211 863 l 211 790 l 139 790 l 139 742 l 260 742 z "},"•":{"ha":665,"x_min":92,"x_max":571,"o":"m 160 214 q 110 267 128 233 q 92 340 92 300 l 92 510 q 103 569 92 542 q 135 617 115 597 q 183 649 155 637 q 241 661 210 661 l 364 661 q 436 643 404 661 q 490 593 469 625 l 529 554 q 560 508 549 534 q 571 450 571 481 l 571 279 q 560 221 571 248 q 529 175 549 195 q 483 143 509 155 q 424 132 456 132 l 302 132 q 245 144 271 132 q 199 175 218 155 l 160 214 m 485 340 l 485 510 q 475 557 485 535 q 450 596 466 580 q 411 623 433 613 q 364 632 389 632 l 241 632 q 194 623 216 632 q 156 596 172 613 q 130 557 140 580 q 121 510 121 535 l 121 340 q 130 293 121 315 q 156 254 140 271 q 194 228 172 237 q 241 218 216 218 l 364 218 q 411 228 389 218 q 450 253 433 237 q 475 292 466 269 q 485 340 485 314 z "},"–":{"ha":606,"x_min":61,"x_max":541,"o":"m 68 347 l 61 347 l 61 503 l 484 503 l 484 496 l 541 439 l 541 290 l 125 290 l 68 347 m 454 376 l 454 473 l 90 473 l 90 376 l 454 376 z "},"—":{"ha":848,"x_min":61,"x_max":783,"o":"m 68 347 l 61 347 l 61 503 l 726 503 l 726 496 l 783 439 l 783 290 l 125 290 l 68 347 m 697 376 l 697 473 l 90 473 l 90 376 l 697 376 z "},"˜":{"ha":606,"x_min":61,"x_max":541,"o":"m 66 762 l 61 755 l 61 936 q 211 1002 127 1002 q 248 995 229 1002 q 288 974 267 987 q 334 953 319 953 q 399 974 362 953 q 484 1042 437 996 l 484 1029 l 541 972 l 541 814 l 533 796 q 468 754 503 768 q 393 741 434 741 q 319 768 361 741 q 272 789 288 789 q 204 768 241 789 q 125 704 168 747 l 66 762 m 454 875 l 454 972 q 399 935 429 947 q 334 924 369 924 q 272 947 308 924 q 239 966 254 960 q 211 972 224 972 q 145 961 176 972 q 90 924 114 949 l 90 827 q 145 863 114 852 q 211 875 176 875 q 272 850 236 875 q 334 827 309 827 q 399 838 369 827 q 454 875 429 850 z "},"™":{"ha":1480,"x_min":61,"x_max":1415,"o":"m 68 761 l 61 761 l 61 1002 l 575 1002 l 575 994 l 590 977 q 692 1002 637 1002 l 746 1002 q 844 977 798 1002 q 920 909 889 952 q 994 977 949 952 q 1093 1002 1040 1002 l 1147 1002 q 1297 939 1234 1002 q 1311 923 1305 931 q 1322 908 1317 916 l 1356 876 q 1400 809 1385 846 q 1415 729 1415 772 l 1415 278 l 1274 278 l 1217 335 l 1210 335 l 1210 699 l 1210 704 l 1117 704 q 1070 685 1088 704 q 1051 637 1051 666 l 1051 278 l 908 278 l 851 335 l 844 335 l 844 699 l 844 704 l 753 704 q 705 685 724 704 q 686 637 686 666 l 686 278 l 545 278 l 488 335 l 481 335 l 481 704 l 450 704 l 450 278 l 307 278 l 250 335 l 243 335 l 243 704 l 125 704 l 68 761 m 1329 364 l 1329 790 q 1276 918 1329 865 q 1147 972 1222 972 l 1093 972 q 1036 963 1063 972 q 986 938 1009 954 q 946 899 963 922 q 920 848 929 876 q 893 899 911 876 q 853 938 876 922 q 803 963 831 954 q 746 972 776 972 l 692 972 q 546 899 600 972 l 546 972 l 90 972 l 90 790 l 272 790 l 272 364 l 364 364 l 364 790 l 510 790 l 510 364 l 600 364 l 600 699 q 607 734 600 718 q 627 763 614 751 q 656 783 640 776 q 692 790 673 790 l 782 790 q 819 783 802 790 q 848 764 836 777 q 867 735 860 752 q 873 699 873 718 l 873 364 l 965 364 l 965 699 q 972 735 965 718 q 991 764 979 752 q 1020 783 1003 777 q 1055 790 1036 790 l 1147 790 q 1182 783 1166 790 q 1212 763 1199 776 q 1232 734 1224 751 q 1239 699 1239 718 l 1239 364 l 1329 364 z "},"š":{"ha":848,"x_min":61,"x_max":783,"o":"m 586 1117 l 644 1059 l 541 879 l 726 879 l 726 872 l 783 815 l 783 521 l 393 521 q 374 515 379 521 l 454 515 q 646 435 567 515 q 662 417 654 425 q 676 399 669 408 l 704 372 q 783 182 783 293 q 704 -7 783 71 q 618 -66 665 -47 q 515 -86 570 -86 l 125 -86 l 68 -29 l 61 -29 l 61 272 l 454 272 q 464 274 460 272 q 472 278 468 276 l 393 278 q 291 298 338 278 q 204 357 244 318 l 176 383 q 158 398 167 391 q 140 415 149 406 q 81 503 100 456 q 61 607 61 550 q 81 712 61 665 q 140 800 100 760 q 229 859 181 840 q 334 879 276 879 l 349 879 l 335 895 l 328 895 l 199 1122 l 335 1122 l 347 1105 l 395 1059 l 400 1050 l 452 1122 l 589 1122 l 586 1117 m 539 1093 l 467 1093 l 393 991 l 321 1093 l 248 1093 l 345 924 l 441 924 l 539 1093 m 697 243 q 627 414 697 343 q 547 468 590 450 q 454 486 505 486 l 334 486 q 290 504 308 486 q 272 547 272 522 q 290 590 272 572 q 334 607 307 607 l 697 607 l 697 850 l 334 850 q 161 779 231 850 q 90 607 90 708 q 161 436 90 507 q 334 364 232 364 l 454 364 q 478 359 467 364 q 497 347 489 355 q 511 328 506 338 q 515 304 515 317 q 498 260 515 278 q 454 243 480 243 l 90 243 l 90 0 l 454 0 q 627 72 554 0 q 697 243 697 144 z "},"›":{"ha":599,"x_min":47,"x_max":534,"o":"m 68 629 l 47 643 l 134 774 l 478 551 l 478 546 l 534 489 l 534 363 l 196 143 l 138 200 l 134 199 l 47 329 l 277 478 l 114 583 l 68 629 m 449 437 l 449 534 l 143 733 l 90 652 l 345 486 l 90 321 l 143 239 l 449 437 z "},"œ":{"ha":1213,"x_min":61,"x_max":1149,"o":"m 547 486 q 541 518 547 503 q 527 520 534 519 q 515 521 521 521 l 393 521 q 356 513 374 521 q 326 493 339 506 q 305 463 313 480 q 297 425 297 445 l 297 304 q 297 291 297 297 q 300 278 298 284 q 317 274 309 276 q 334 272 325 272 l 454 272 q 491 279 474 272 q 520 299 508 286 q 540 328 533 311 q 547 364 547 345 l 547 486 m 787 278 q 803 273 795 275 q 819 272 811 272 l 1092 272 l 1092 265 l 1149 208 l 1149 -86 l 928 -86 q 772 -35 842 -86 q 754 -21 763 -28 q 737 -5 746 -14 l 704 25 q 697 31 701 28 q 692 35 694 33 q 650 -15 674 7 q 597 -53 626 -37 q 535 -77 568 -68 q 467 -86 502 -86 l 393 -86 q 290 -67 338 -86 q 203 -8 243 -48 l 172 21 q 156 34 164 27 q 140 50 148 41 q 80 138 100 90 q 61 243 61 186 l 61 607 q 80 712 61 665 q 140 800 100 760 q 334 879 220 879 l 406 879 q 575 821 494 879 l 574 821 q 604 792 591 806 q 629 762 618 778 l 637 753 q 666 789 650 772 q 700 821 681 805 l 699 821 q 868 879 777 879 l 1092 879 l 1092 872 l 1149 815 l 1149 521 l 879 521 q 846 515 861 521 l 970 515 l 970 509 l 1026 452 l 1026 278 l 787 278 m 1063 0 l 1063 243 l 819 243 q 772 252 794 243 q 733 278 750 262 q 707 317 717 295 q 697 364 697 339 l 940 364 l 940 486 l 697 486 q 707 533 697 511 q 733 572 717 555 q 772 597 750 588 q 819 607 794 607 l 1063 607 l 1063 850 l 868 850 q 725 803 789 850 q 671 750 694 780 q 636 684 649 721 q 602 750 625 721 q 549 803 580 780 q 406 850 485 850 l 334 850 q 160 779 231 850 q 90 607 90 709 l 90 243 q 107 150 90 193 q 160 71 124 106 q 334 0 233 0 l 406 0 q 482 12 446 0 q 549 45 519 24 q 602 98 579 67 q 636 167 624 129 q 671 99 649 129 q 725 46 694 69 q 793 12 758 23 q 868 0 828 0 l 1063 0 m 576 364 q 567 316 576 338 q 541 278 557 294 q 503 252 525 262 q 454 243 480 243 l 334 243 q 286 252 309 243 q 247 278 264 262 q 221 317 231 295 q 211 364 211 339 l 211 486 q 221 533 211 511 q 247 572 231 555 q 286 597 264 588 q 334 607 309 607 l 454 607 q 502 597 479 607 q 540 572 524 588 q 567 533 557 555 q 576 486 576 511 l 576 364 z "},"ž":{"ha":848,"x_min":61,"x_max":783,"o":"m 586 1117 l 644 1059 l 541 879 l 726 879 l 726 872 l 783 815 l 783 538 l 500 272 l 726 272 l 726 265 l 783 208 l 783 -86 l 125 -86 l 68 -29 l 61 -29 l 61 254 l 345 521 l 125 521 l 68 578 l 61 578 l 61 879 l 349 879 l 335 895 l 328 895 l 199 1122 l 335 1122 l 347 1105 l 395 1059 l 400 1050 l 452 1122 l 589 1122 l 586 1117 m 539 1093 l 467 1093 l 393 991 l 321 1093 l 248 1093 l 345 924 l 441 924 l 539 1093 m 697 0 l 697 243 l 309 243 l 697 607 l 697 850 l 90 850 l 90 607 l 479 607 l 90 243 l 90 0 l 697 0 z "},"Ÿ":{"ha":848,"x_min":61,"x_max":783,"o":"m 432 1015 l 425 1015 l 425 1196 l 606 1196 l 606 1189 l 663 1132 l 663 1002 l 726 1002 l 726 994 l 783 937 l 783 473 q 764 370 783 417 q 705 283 745 322 q 630 230 671 249 q 541 207 589 210 l 541 -86 l 368 -86 l 311 -29 l 304 -29 l 304 218 q 251 244 276 229 q 204 283 226 260 l 176 311 q 158 325 167 317 q 140 342 149 332 q 61 534 61 421 l 61 1002 l 204 1002 l 189 1015 l 182 1015 l 182 1196 l 363 1196 l 363 1189 l 419 1132 l 419 958 l 277 958 l 297 937 l 297 596 q 297 582 297 589 q 300 570 298 576 q 317 566 309 568 q 334 564 325 564 l 454 564 q 491 571 474 564 q 520 590 508 578 q 540 620 533 603 q 547 656 547 636 l 547 958 l 490 958 l 432 1015 m 576 1044 l 576 1166 l 454 1166 l 454 1044 l 576 1044 m 334 1044 l 334 1166 l 211 1166 l 211 1044 l 334 1044 m 697 534 l 697 972 l 576 972 l 576 656 q 567 608 576 630 q 541 570 557 586 q 503 544 525 553 q 454 534 480 534 l 334 534 q 286 544 309 534 q 247 570 264 553 q 221 609 231 587 q 211 656 211 631 l 211 972 l 90 972 l 90 534 q 108 441 90 484 q 161 363 125 398 q 334 292 231 292 l 334 0 l 454 0 l 454 292 q 627 363 555 292 q 680 441 663 398 q 697 534 697 484 z "},"¡":{"ha":411,"x_min":58,"x_max":349,"o":"m 68 652 l 61 652 l 61 879 l 289 879 l 289 872 l 346 815 l 346 595 l 125 595 l 68 652 m 65 -151 l 58 -151 l 111 587 l 239 587 l 239 579 l 296 524 l 349 -208 l 122 -208 l 65 -151 m 260 681 l 260 850 l 90 850 l 90 681 l 260 681 m 260 -122 l 211 558 l 139 558 l 90 -122 l 260 -122 z "},"¢":{"ha":848,"x_min":61,"x_max":783,"o":"m 297 425 q 297 412 297 418 q 300 400 298 406 q 317 395 309 397 q 334 393 325 393 l 726 393 l 726 386 l 783 329 l 783 35 l 602 35 l 602 -86 l 429 -86 l 372 -29 l 364 -29 l 364 36 q 278 60 317 40 q 204 114 238 80 l 176 140 q 158 155 167 148 q 140 172 149 163 q 81 260 100 213 q 61 364 61 307 l 61 729 q 140 921 61 842 q 229 982 181 962 q 334 1002 276 1002 l 364 1002 l 364 1122 l 545 1122 l 545 1116 l 602 1059 l 602 1002 l 726 1002 l 726 994 l 783 937 l 783 643 l 393 643 q 356 635 374 643 q 326 614 339 627 q 305 584 313 602 q 297 547 297 566 l 297 425 m 697 121 l 697 364 l 334 364 q 286 374 309 364 q 247 400 264 383 q 221 439 231 416 q 211 486 211 461 l 211 607 q 221 654 211 632 q 247 693 231 677 q 286 720 264 710 q 334 729 309 729 l 697 729 l 697 972 l 515 972 l 515 1093 l 393 1093 l 393 972 l 334 972 q 161 900 233 972 q 90 729 90 829 l 90 364 q 161 193 90 263 q 334 121 233 121 l 393 121 l 393 0 l 515 0 l 515 121 l 697 121 z "},"£":{"ha":848,"x_min":61,"x_max":783,"o":"m 297 272 l 726 272 l 726 265 l 783 208 l 783 -86 l 125 -86 l 68 -29 l 61 -29 l 61 790 q 80 895 61 848 q 140 983 100 943 q 334 1063 220 1063 l 606 1063 l 606 1054 l 663 997 l 663 704 l 393 704 q 355 696 373 704 q 325 676 338 689 q 304 646 312 663 q 297 607 297 628 l 297 576 l 484 576 l 484 568 l 541 511 l 541 339 l 297 339 l 297 272 m 697 0 l 697 243 l 211 243 l 211 425 l 454 425 l 454 547 l 211 547 l 211 668 q 220 716 211 694 q 246 755 230 739 q 285 781 262 771 q 334 790 307 790 l 576 790 l 576 1034 l 334 1034 q 160 962 232 1034 q 90 790 90 893 l 90 0 l 697 0 z "},"¤":{"ha":848,"x_min":61,"x_max":783,"o":"m 301 278 q 317 273 309 275 q 334 272 325 272 l 726 272 l 726 265 l 783 208 l 783 -86 l 393 -86 q 204 -7 283 -86 l 176 20 q 158 35 167 27 q 140 52 149 42 q 61 243 61 131 l 61 729 q 140 921 61 842 q 229 982 181 962 q 334 1002 276 1002 l 726 1002 l 726 994 l 783 937 l 783 643 l 393 643 q 376 641 385 643 q 359 636 368 640 l 606 636 l 606 629 l 663 572 l 663 436 l 640 436 l 663 414 l 663 278 l 301 278 m 697 0 l 697 243 l 334 243 q 286 252 309 243 q 247 278 264 262 q 221 317 231 295 q 211 364 211 339 l 576 364 l 576 450 l 211 450 l 211 522 l 576 522 l 576 607 l 211 607 q 221 654 211 632 q 247 693 231 677 q 286 720 264 710 q 334 729 309 729 l 697 729 l 697 972 l 334 972 q 161 900 233 972 q 90 729 90 829 l 90 243 q 161 72 90 143 q 334 0 231 0 l 697 0 z "},"¥":{"ha":848,"x_min":61,"x_max":783,"o":"m 541 272 l 726 272 l 726 265 l 783 208 l 783 35 l 541 35 l 541 -86 l 368 -86 l 311 -29 l 304 -29 l 304 35 l 125 35 l 68 92 l 61 92 l 61 272 l 304 272 l 304 278 l 125 278 l 68 335 l 61 335 l 61 515 l 164 515 q 152 525 157 519 q 140 536 146 531 q 81 624 100 576 q 61 729 61 673 l 61 1002 l 240 1002 l 240 994 l 297 937 l 297 717 q 297 703 297 709 q 300 692 298 697 q 317 687 309 688 q 334 685 325 685 l 454 685 q 491 692 474 685 q 520 712 508 699 q 540 741 533 724 q 547 778 547 758 l 547 1002 l 726 1002 l 726 994 l 783 937 l 783 668 q 729 504 783 576 l 783 452 l 783 278 l 541 278 l 541 272 m 697 121 l 697 243 l 454 243 l 454 364 l 697 364 l 697 486 l 454 486 q 627 557 555 486 q 680 635 663 593 q 697 729 697 678 l 697 972 l 576 972 l 576 778 q 567 729 576 751 q 541 690 557 707 q 503 665 525 674 q 454 656 480 656 l 334 656 q 286 666 309 656 q 247 692 264 675 q 221 731 231 709 q 211 778 211 753 l 211 972 l 90 972 l 90 729 q 161 557 90 628 q 334 486 232 486 l 90 486 l 90 364 l 334 364 l 334 243 l 90 243 l 90 121 l 334 121 l 334 0 l 454 0 l 454 121 l 697 121 z "},"¦":{"ha":363,"x_min":61,"x_max":297,"o":"m 68 -151 l 61 -151 l 61 431 l 240 431 l 240 422 l 297 366 l 297 -208 l 125 -208 l 68 -151 m 68 542 l 61 542 l 61 1122 l 240 1122 l 240 1116 l 297 1059 l 297 485 l 125 485 l 68 542 m 211 571 l 211 1093 l 90 1093 l 90 571 l 211 571 m 211 -122 l 211 401 l 90 401 l 90 -122 l 211 -122 z "},"§":{"ha":848,"x_min":61,"x_max":783,"o":"m 205 476 q 210 471 208 473 q 216 467 213 469 l 205 476 m 708 125 q 693 140 702 134 l 708 125 m 486 364 q 485 380 486 372 q 481 396 483 389 q 467 399 473 397 q 454 400 460 400 q 417 392 435 400 q 387 371 400 385 q 366 341 374 358 q 358 304 358 323 q 358 291 358 297 q 361 278 359 284 q 378 274 370 276 q 393 272 386 272 q 429 279 412 272 q 458 300 446 287 q 479 329 471 313 q 486 364 486 346 m 393 643 q 374 636 380 643 l 454 636 q 646 557 566 636 q 662 538 654 547 q 676 519 669 529 l 704 493 q 783 304 783 416 q 713 121 783 197 q 783 -61 783 45 q 704 -250 783 -173 q 618 -309 665 -290 q 515 -329 570 -329 l 125 -329 l 68 -272 l 61 -272 l 61 29 l 454 29 q 464 31 460 29 q 472 35 468 33 l 393 35 q 291 55 338 35 q 204 114 244 75 l 176 140 q 158 155 167 148 q 140 172 149 163 q 81 260 100 213 q 61 364 61 307 q 131 547 61 469 q 78 631 95 585 q 61 729 61 677 q 140 921 61 842 q 229 982 181 962 q 334 1002 276 1002 l 726 1002 l 726 994 l 783 937 l 783 643 l 393 643 m 697 0 q 615 182 697 109 q 697 364 697 256 q 627 536 697 465 q 454 607 553 607 l 334 607 q 310 612 321 607 q 290 626 298 617 q 277 645 281 634 q 272 668 272 656 q 290 711 272 693 q 334 729 308 729 l 697 729 l 697 972 l 334 972 q 161 900 233 972 q 90 729 90 829 q 111 629 90 674 q 172 547 132 584 q 90 364 90 473 q 161 193 90 263 q 334 121 233 121 l 454 121 q 478 116 467 121 q 497 103 489 111 q 511 84 506 95 q 515 61 515 73 q 497 18 515 36 q 454 0 479 0 l 90 0 l 90 -243 l 454 -243 q 627 -171 555 -243 q 697 0 697 -99 m 515 364 q 506 317 515 339 q 480 278 496 295 q 441 252 463 262 q 393 243 418 243 q 346 252 368 243 q 308 278 324 262 q 281 317 291 295 q 272 364 272 339 q 281 412 272 389 q 308 451 291 434 q 346 477 324 467 q 393 486 368 486 q 441 477 418 486 q 480 451 463 467 q 506 412 496 434 q 515 364 515 389 z "},"¨":{"ha":606,"x_min":61,"x_max":541,"o":"m 68 821 l 61 821 l 61 1002 l 240 1002 l 240 994 l 297 937 l 297 764 l 125 764 l 68 821 m 311 821 l 304 821 l 304 1002 l 484 1002 l 484 994 l 541 937 l 541 764 l 368 764 l 311 821 m 454 850 l 454 972 l 334 972 l 334 850 l 454 850 m 211 850 l 211 972 l 90 972 l 90 850 l 211 850 z "},"©":{"ha":970,"x_min":61,"x_max":905,"o":"m 249 517 q 252 542 249 529 q 258 566 254 554 q 252 544 254 555 q 249 522 249 534 l 249 517 m 317 140 q 268 191 286 160 q 249 261 250 222 l 249 134 q 249 120 249 126 q 252 109 250 114 q 268 103 260 105 q 285 102 276 102 l 355 102 l 317 140 m 717 583 q 715 600 717 592 q 711 615 713 608 q 698 617 705 616 q 685 618 691 618 l 646 618 l 668 597 l 668 424 l 461 424 q 436 414 446 424 q 425 389 425 404 l 425 296 l 611 296 l 611 289 l 668 232 l 668 111 q 703 145 690 123 q 717 195 717 167 l 717 583 m 172 21 q 156 34 164 27 q 140 50 148 41 q 80 138 100 90 q 61 243 61 186 l 61 534 q 80 639 61 591 q 140 726 100 686 q 334 807 219 807 l 576 807 q 768 726 688 807 q 784 708 777 717 q 799 690 791 700 l 827 664 q 886 577 866 624 q 905 473 905 530 l 905 182 q 828 -8 905 69 q 636 -86 750 -86 l 393 -86 q 290 -67 338 -86 q 203 -8 243 -48 l 172 21 m 819 243 l 819 534 q 801 628 819 585 q 747 705 783 670 q 669 760 711 741 q 576 778 627 778 l 334 778 q 240 760 283 778 q 160 705 197 741 q 90 534 90 636 l 90 243 q 107 150 90 193 q 160 71 124 106 q 334 0 233 0 l 576 0 q 749 71 677 0 q 819 243 819 141 m 746 195 q 737 146 746 168 q 711 107 728 123 q 673 81 695 91 q 625 72 651 72 l 285 72 q 238 82 260 72 q 199 108 216 92 q 173 147 182 125 q 163 195 163 170 l 163 583 q 173 630 163 608 q 199 669 182 652 q 238 694 216 685 q 285 704 260 704 l 625 704 q 672 694 650 704 q 711 669 694 685 q 736 630 727 652 q 746 583 746 608 l 746 195 m 582 146 l 582 267 l 400 267 q 377 272 388 267 q 357 285 366 277 q 344 304 349 294 q 339 328 339 315 l 339 450 q 344 473 339 463 q 357 492 349 484 q 377 505 366 500 q 400 510 388 510 l 582 510 l 582 632 l 400 632 q 353 623 375 632 q 314 596 331 613 q 288 557 298 580 q 278 510 278 535 l 278 267 q 288 219 278 241 q 314 181 298 197 q 353 155 331 165 q 400 146 375 146 l 582 146 z "},"ª":{"ha":696,"x_min":61,"x_max":632,"o":"m 425 699 l 425 704 l 334 704 q 307 699 319 704 q 286 685 295 694 q 272 664 277 675 q 267 637 267 652 l 267 546 l 272 546 l 364 546 q 407 564 389 546 q 425 607 425 582 l 425 699 m 153 340 q 137 353 144 346 q 122 367 130 359 q 61 517 61 430 l 61 790 q 122 939 61 878 q 272 1002 185 1002 l 364 1002 q 445 986 408 1002 q 513 939 481 970 q 527 923 520 930 q 539 907 534 916 l 571 876 q 632 729 632 815 l 632 248 l 490 248 l 479 257 q 424 248 454 248 l 334 248 q 186 309 247 248 l 153 340 m 546 335 l 546 790 q 492 918 546 866 q 364 972 439 972 l 272 972 q 143 918 197 972 q 90 790 90 865 l 90 517 q 143 387 90 441 q 272 335 197 335 l 364 335 q 422 349 396 335 q 454 395 452 366 l 454 335 l 546 335 m 454 607 q 447 572 454 589 q 427 544 439 556 q 399 524 415 531 q 364 517 382 517 l 272 517 q 237 524 254 517 q 208 544 220 531 q 188 572 195 556 q 180 607 180 589 l 180 699 q 188 734 180 718 q 208 763 195 751 q 237 783 220 776 q 272 790 254 790 l 364 790 q 400 783 383 790 q 429 764 416 777 q 448 735 441 752 q 454 699 454 718 l 454 607 z "},"«":{"ha":964,"x_min":61,"x_max":909,"o":"m 488 85 l 546 28 l 464 -96 l 125 122 l 78 170 l 61 180 l 61 313 l 404 534 l 418 513 l 464 468 l 524 375 l 770 534 l 782 513 l 829 468 l 909 345 l 685 199 l 856 90 l 851 85 l 909 28 l 829 -96 l 490 122 l 441 170 l 425 180 l 425 267 l 321 199 l 490 90 l 488 85 m 812 82 l 558 248 l 812 412 l 760 493 l 454 296 l 454 199 l 760 0 l 812 82 m 449 82 l 193 248 l 449 412 l 395 493 l 90 296 l 90 199 l 395 0 l 449 82 z "},"¬":{"ha":726,"x_min":61,"x_max":663,"o":"m 68 347 l 61 347 l 61 503 l 606 503 l 606 496 l 663 439 l 663 170 l 514 170 l 457 227 l 450 227 l 450 290 l 125 290 l 68 347 m 576 256 l 576 473 l 90 473 l 90 376 l 479 376 l 479 256 l 576 256 z "},"®":{"ha":970,"x_min":61,"x_max":905,"o":"m 249 134 q 249 120 249 126 q 252 109 250 114 q 268 103 260 105 q 285 102 276 102 l 296 102 l 281 117 l 273 117 l 273 585 q 255 556 262 572 q 249 522 249 540 l 249 134 m 450 102 l 539 102 l 524 117 l 517 117 l 517 272 l 450 272 l 450 102 m 717 583 q 715 600 717 592 q 711 615 713 608 q 698 617 705 616 q 685 618 691 618 l 590 618 q 601 606 595 612 q 611 593 607 600 l 650 554 q 681 508 669 534 q 693 450 693 481 q 640 329 693 370 l 652 318 q 650 321 650 319 l 656 315 q 693 212 693 278 l 693 131 q 710 159 703 143 q 717 195 717 176 l 717 583 m 172 21 q 156 34 164 27 q 140 50 148 41 q 80 138 100 90 q 61 243 61 186 l 61 534 q 80 639 61 591 q 140 726 100 686 q 334 807 219 807 l 576 807 q 768 726 688 807 q 784 708 777 717 q 799 690 791 700 l 822 665 l 821 667 l 827 664 q 886 577 866 624 q 905 473 905 530 l 905 182 q 828 -8 905 69 q 636 -86 750 -86 l 393 -86 q 290 -67 338 -86 q 203 -8 243 -48 l 172 21 m 819 243 l 819 534 q 801 628 819 585 q 747 705 783 670 q 669 760 711 741 q 576 778 627 778 l 334 778 q 240 760 283 778 q 160 705 197 741 q 90 534 90 636 l 90 243 q 107 150 90 193 q 160 71 124 106 q 334 0 233 0 l 576 0 q 749 71 677 0 q 819 243 819 141 m 746 195 q 737 146 746 168 q 711 107 728 123 q 673 81 695 91 q 625 72 651 72 l 285 72 q 238 82 260 72 q 199 108 216 92 q 173 147 182 125 q 163 195 163 170 l 163 583 q 173 630 163 608 q 199 669 182 652 q 238 694 216 685 q 285 704 260 704 l 625 704 q 672 694 650 704 q 711 669 694 685 q 736 630 727 652 q 746 583 746 608 l 746 195 m 607 146 l 607 273 q 522 389 607 361 q 586 433 564 402 q 607 510 607 464 q 597 557 607 535 q 571 596 587 580 q 532 623 554 613 q 485 632 510 632 l 302 632 l 302 146 l 364 146 l 364 358 l 471 358 q 502 352 488 358 q 525 334 515 345 q 541 307 535 322 q 546 273 546 291 l 546 146 l 607 146 m 515 465 q 502 433 515 448 q 471 419 488 419 l 364 419 l 364 510 l 471 510 q 502 497 488 510 q 515 465 515 484 z "},"°":{"ha":532,"x_min":61,"x_max":468,"o":"m 304 888 q 304 892 304 890 q 302 899 304 895 l 296 899 q 269 893 281 899 q 246 877 256 887 q 231 854 236 867 q 225 827 225 841 l 225 819 l 236 819 q 262 825 250 819 q 283 839 274 830 q 299 861 293 848 q 304 888 304 873 m 140 739 q 126 750 133 745 q 111 762 119 755 q 61 888 61 816 q 111 1011 61 959 q 168 1049 137 1036 q 236 1063 199 1063 q 303 1049 273 1063 q 359 1011 334 1036 q 372 997 366 1004 q 383 982 378 990 l 418 947 q 456 893 444 924 q 468 827 468 862 q 456 760 468 791 q 418 704 444 729 q 296 656 368 656 q 175 704 225 656 l 140 739 m 382 888 q 339 990 382 947 q 292 1022 318 1011 q 236 1034 267 1034 q 179 1022 205 1034 q 132 990 153 1011 q 90 888 90 948 q 132 783 90 825 q 179 752 153 762 q 236 742 205 742 q 339 783 298 742 q 382 888 382 826 m 334 888 q 326 849 334 867 q 305 818 318 831 q 274 798 292 805 q 236 790 256 790 q 198 798 216 790 q 167 818 180 805 q 146 849 154 831 q 139 888 139 867 q 146 925 139 907 q 167 956 154 943 q 198 977 180 969 q 236 985 216 985 q 274 977 256 985 q 305 956 292 969 q 326 925 318 943 q 334 888 334 907 z "},"±":{"ha":726,"x_min":61,"x_max":663,"o":"m 68 -29 l 61 -29 l 61 126 l 606 126 l 606 119 l 663 62 l 663 -86 l 125 -86 l 68 -29 m 468 564 l 606 564 l 606 557 l 663 500 l 663 351 l 468 351 l 468 157 l 319 157 l 262 214 l 256 214 l 256 351 l 125 351 l 68 408 l 61 408 l 61 564 l 256 564 l 256 758 l 411 758 l 411 751 l 468 694 l 468 564 m 576 437 l 576 534 l 382 534 l 382 729 l 285 729 l 285 534 l 90 534 l 90 437 l 285 437 l 285 243 l 382 243 l 382 437 l 576 437 m 576 0 l 576 97 l 90 97 l 90 0 l 576 0 z "},"²":{"ha":545,"x_min":61,"x_max":481,"o":"m 481 880 q 462 810 481 843 q 412 758 443 777 l 422 758 l 422 751 l 481 694 l 481 521 l 125 521 l 68 578 l 61 578 l 61 760 q 79 833 61 800 q 129 886 98 867 l 125 886 l 68 943 l 61 943 l 61 1122 l 272 1122 q 346 1104 312 1122 q 399 1054 379 1086 l 437 1015 q 469 968 457 996 q 481 911 481 941 l 481 880 m 393 607 l 393 729 l 150 729 l 150 775 q 164 807 150 794 q 197 821 178 821 l 272 821 q 319 830 297 821 q 358 856 341 840 q 384 895 374 873 q 393 942 393 917 l 393 972 q 384 1020 393 998 q 358 1058 374 1042 q 319 1084 341 1074 q 272 1093 297 1093 l 90 1093 l 90 972 l 257 972 q 289 959 276 972 q 302 928 302 945 q 235 880 302 878 l 211 880 q 164 871 186 880 q 125 845 142 861 q 100 807 109 829 q 90 760 90 785 l 90 607 l 393 607 z "},"³":{"ha":545,"x_min":61,"x_max":481,"o":"m 68 578 l 61 578 l 61 758 l 161 758 l 129 791 l 121 791 l 121 889 l 68 943 l 61 943 l 61 1122 l 272 1122 q 346 1104 313 1122 q 399 1054 379 1086 l 436 1017 q 469 967 457 996 q 481 905 481 939 q 466 842 481 871 q 427 791 452 812 l 441 778 q 471 731 460 758 q 481 668 481 704 q 469 611 481 637 q 437 564 457 584 q 390 532 417 544 q 334 521 363 521 l 125 521 l 68 578 m 393 729 q 310 850 393 823 q 343 868 328 856 q 370 895 359 880 q 387 928 381 910 q 393 966 393 947 q 385 1016 393 993 q 360 1057 376 1040 q 321 1083 344 1074 q 272 1093 299 1093 l 90 1093 l 90 972 l 257 972 q 289 959 276 972 q 302 928 302 945 q 289 895 302 909 q 257 880 276 880 l 150 880 l 150 821 l 257 821 q 289 807 276 821 q 302 775 302 794 q 289 743 302 758 q 257 729 276 729 l 90 729 l 90 607 l 272 607 q 319 617 297 607 q 358 643 341 627 q 384 682 374 660 q 393 729 393 704 z "},"´":{"ha":411,"x_min":40,"x_max":358,"o":"m 176 772 l 170 772 l 40 1002 l 205 1002 l 210 990 l 264 937 l 358 715 l 233 715 l 176 772 m 260 802 l 187 972 l 90 972 l 187 802 l 260 802 z "},"µ":{"ha":848,"x_min":61,"x_max":783,"o":"m 297 304 q 297 291 297 297 q 300 278 298 284 q 317 274 309 276 q 334 272 325 272 l 547 272 l 547 879 l 726 879 l 726 872 l 783 815 l 783 -86 l 393 -86 q 346 -81 369 -86 q 302 -64 322 -75 l 301 -62 q 297 -60 300 -62 l 297 -329 l 125 -329 l 68 -272 l 61 -272 l 61 879 l 240 879 l 240 872 l 297 815 l 297 304 m 697 0 l 697 850 l 576 850 l 576 243 l 334 243 q 286 252 309 243 q 247 278 264 262 q 221 317 231 295 q 211 364 211 339 l 211 850 l 90 850 l 90 -243 l 211 -243 l 211 82 q 256 20 213 43 q 293 4 273 9 q 334 0 313 0 l 697 0 z "},"μ":{"ha":848,"x_min":61,"x_max":783,"o":"m 297 304 q 297 291 297 297 q 300 278 298 284 q 317 274 309 276 q 334 272 325 272 l 547 272 l 547 879 l 726 879 l 726 872 l 783 815 l 783 -86 l 393 -86 q 346 -81 369 -86 q 302 -64 322 -75 l 301 -62 q 297 -60 300 -62 l 297 -329 l 125 -329 l 68 -272 l 61 -272 l 61 879 l 240 879 l 240 872 l 297 815 l 297 304 m 697 0 l 697 850 l 576 850 l 576 243 l 334 243 q 286 252 309 243 q 247 278 264 262 q 221 317 231 295 q 211 364 211 339 l 211 850 l 90 850 l 90 -243 l 211 -243 l 211 82 q 256 20 213 43 q 293 4 273 9 q 334 0 313 0 l 697 0 z "},"¶":{"ha":970,"x_min":61,"x_max":905,"o":"m 176 446 q 158 459 167 452 q 140 476 149 467 q 61 668 61 555 l 61 729 q 140 921 61 842 q 229 982 181 962 q 334 1002 276 1002 l 848 1002 l 848 994 l 905 937 l 905 764 l 783 764 l 783 -329 l 611 -329 l 554 -272 l 547 -272 l 547 764 l 541 764 l 541 -329 l 368 -329 l 311 -272 l 304 -272 l 304 354 q 204 418 249 371 l 176 446 m 819 850 l 819 972 l 334 972 q 161 900 233 972 q 90 729 90 829 l 90 668 q 161 497 90 568 q 240 444 197 462 q 334 425 283 425 l 334 -243 l 454 -243 l 454 850 l 576 850 l 576 -243 l 697 -243 l 697 850 l 819 850 z "},"·":{"ha":411,"x_min":61,"x_max":346,"o":"m 68 311 l 61 311 l 61 539 l 289 539 l 289 532 l 346 475 l 346 254 l 125 254 l 68 311 m 260 340 l 260 510 l 90 510 l 90 340 l 260 340 z "},"¸":{"ha":435,"x_min":50,"x_max":371,"o":"m 98 -114 l 90 -114 l 127 53 l 260 53 l 257 46 l 315 -11 l 298 -85 l 335 -121 q 361 -160 351 -138 q 371 -207 371 -182 q 361 -255 371 -233 q 335 -294 351 -277 q 295 -319 318 -310 q 248 -329 273 -329 l 115 -329 l 58 -272 l 50 -272 l 82 -178 l 187 -178 q 196 -176 192 -178 q 205 -171 200 -174 l 155 -171 l 98 -114 m 285 -146 q 279 -114 285 -130 q 263 -86 273 -98 q 238 -64 252 -73 q 207 -52 224 -55 l 224 24 l 150 24 l 126 -85 l 187 -85 q 210 -90 199 -85 q 230 -103 221 -94 q 243 -122 238 -111 q 248 -146 248 -134 q 243 -169 248 -158 q 230 -189 238 -180 q 210 -202 221 -197 q 187 -207 199 -207 l 102 -207 l 90 -243 l 187 -243 q 225 -235 207 -243 q 256 -215 243 -228 q 277 -184 269 -201 q 285 -146 285 -166 z "},"¹":{"ha":363,"x_min":61,"x_max":297,"o":"m 68 578 l 61 578 l 61 758 l 92 758 l 92 920 l 68 943 l 61 943 l 61 1122 l 210 1122 l 210 1116 l 267 1059 l 267 724 l 297 694 l 297 521 l 125 521 l 68 578 m 211 607 l 211 729 l 180 729 l 180 1093 l 90 1093 l 90 972 l 121 972 l 121 729 l 90 729 l 90 607 l 211 607 z "},"º":{"ha":696,"x_min":61,"x_max":632,"o":"m 425 699 l 425 704 l 334 704 q 307 699 319 704 q 286 685 295 694 q 272 664 277 675 q 267 637 267 652 l 267 546 l 272 546 l 364 546 q 408 564 390 546 q 425 607 425 581 l 425 699 m 153 340 q 137 353 144 346 q 122 367 130 359 q 61 517 61 430 l 61 790 q 122 939 61 878 q 272 1002 185 1002 l 364 1002 q 445 986 408 1002 q 513 939 481 970 q 526 923 520 931 q 539 908 532 916 l 571 876 q 632 729 632 815 l 632 456 q 571 307 632 368 q 424 248 511 248 l 334 248 q 186 309 247 248 l 153 340 m 546 517 l 546 790 q 492 918 546 866 q 433 959 466 945 q 364 972 401 972 l 272 972 q 143 918 197 972 q 90 790 90 865 l 90 517 q 143 387 90 441 q 272 335 197 335 l 364 335 q 434 348 401 335 q 492 386 466 360 q 532 446 519 414 q 546 517 546 478 m 454 607 q 448 571 454 587 q 429 543 441 555 q 400 524 416 530 q 364 517 383 517 l 272 517 q 237 524 254 517 q 208 544 220 531 q 188 572 195 556 q 180 607 180 589 l 180 699 q 188 734 180 718 q 208 763 195 751 q 237 783 220 776 q 272 790 254 790 l 364 790 q 399 783 382 790 q 427 763 415 776 q 447 734 439 751 q 454 699 454 718 l 454 607 z "},"»":{"ha":964,"x_min":47,"x_max":899,"o":"m 432 390 l 412 403 l 498 534 l 842 313 l 842 306 l 899 249 l 899 122 l 559 -96 l 501 -37 l 498 -41 l 432 57 l 196 -96 l 138 -37 l 134 -41 l 47 90 l 277 237 l 114 345 l 68 390 l 47 403 l 134 534 l 478 313 l 478 306 l 534 249 l 534 170 l 642 237 l 479 345 l 432 390 m 812 199 l 812 296 l 509 493 l 454 412 l 710 248 l 454 82 l 509 0 l 812 199 m 449 199 l 449 296 l 143 493 l 90 412 l 345 248 l 90 82 l 143 0 l 449 199 z "},"¼":{"ha":726,"x_min":61,"x_max":663,"o":"m 68 421 l 61 421 l 61 551 l 265 551 l 262 554 l 256 554 l 256 710 l 279 710 l 279 829 l 262 846 l 256 846 l 256 1002 l 386 1002 l 386 994 l 443 937 l 443 669 l 468 646 l 468 551 l 606 551 l 606 545 l 663 488 l 663 364 l 530 364 l 541 354 l 541 -86 l 441 -86 l 383 -29 l 376 -29 l 376 -18 l 248 -18 l 189 39 l 182 39 l 182 321 l 289 321 l 289 314 l 346 257 l 346 195 l 376 195 l 376 364 l 125 364 l 68 421 m 382 583 l 382 681 l 357 681 l 357 972 l 285 972 l 285 875 l 309 875 l 309 681 l 285 681 l 285 583 l 382 583 m 576 450 l 576 522 l 90 522 l 90 450 l 576 450 m 454 0 l 454 389 l 406 389 l 406 165 l 260 165 l 260 292 l 211 292 l 211 68 l 406 68 l 406 0 l 454 0 z "},"½":{"ha":726,"x_min":61,"x_max":663,"o":"m 68 421 l 61 421 l 61 551 l 265 551 l 262 554 l 256 554 l 256 710 l 279 710 l 279 829 l 262 846 l 256 846 l 256 1002 l 386 1002 l 386 994 l 443 937 l 443 669 l 468 646 l 468 551 l 606 551 l 606 545 l 663 488 l 663 364 l 461 364 q 464 358 463 361 q 467 354 465 356 l 504 317 q 531 279 521 301 q 541 231 541 256 l 541 207 q 528 151 541 176 q 493 110 515 125 l 541 62 l 541 -86 l 248 -86 l 189 -29 l 182 -29 l 182 121 q 195 178 182 151 q 231 221 208 204 l 189 262 l 182 262 l 182 364 l 125 364 l 68 421 m 382 583 l 382 681 l 357 681 l 357 972 l 285 972 l 285 875 l 309 875 l 309 681 l 285 681 l 285 583 l 382 583 m 576 450 l 576 522 l 90 522 l 90 450 l 576 450 m 454 0 l 454 97 l 260 97 l 260 134 q 296 170 260 170 l 357 170 q 395 177 377 170 q 426 198 412 185 q 447 229 439 212 q 454 267 454 247 l 454 292 q 447 329 454 311 q 426 360 439 347 q 395 381 412 373 q 357 389 377 389 l 211 389 l 211 292 l 345 292 q 382 256 382 292 q 345 218 382 218 l 309 218 q 271 211 289 218 q 240 190 253 203 q 219 159 227 176 q 211 121 211 141 l 211 0 l 454 0 z "},"¾":{"ha":726,"x_min":61,"x_max":663,"o":"m 68 421 l 61 421 l 61 551 l 192 551 l 189 554 l 182 554 l 182 710 l 253 710 l 237 724 l 231 724 l 231 804 l 189 846 l 182 846 l 182 1002 l 357 1002 q 421 984 393 1002 q 467 937 450 967 l 504 900 q 531 862 521 884 q 541 814 541 840 l 541 810 q 531 756 541 779 q 501 717 521 732 l 509 711 q 532 672 524 694 q 541 619 541 649 q 535 583 541 601 q 519 551 530 565 l 606 551 l 606 545 l 663 488 l 663 364 l 530 364 l 541 354 l 541 -86 l 441 -86 l 383 -29 l 376 -29 l 376 -18 l 248 -18 l 189 39 l 182 39 l 182 321 l 289 321 l 289 314 l 346 257 l 346 195 l 376 195 l 376 364 l 125 364 l 68 421 m 454 681 q 387 778 454 754 q 454 869 454 798 l 454 875 q 447 912 454 895 q 426 944 439 930 q 395 965 412 957 q 357 972 377 972 l 211 972 l 211 875 l 345 875 q 382 839 382 875 q 345 802 382 802 l 260 802 l 260 753 l 345 753 q 382 717 382 753 q 345 681 382 681 l 211 681 l 211 583 l 357 583 q 395 591 377 583 q 426 611 412 598 q 447 643 439 625 q 454 681 454 661 m 576 450 l 576 522 l 90 522 l 90 450 l 576 450 m 454 0 l 454 389 l 406 389 l 406 165 l 260 165 l 260 292 l 211 292 l 211 68 l 406 68 l 406 0 l 454 0 z "},"¿":{"ha":775,"x_min":61,"x_max":711,"o":"m 372 652 l 364 652 l 364 879 l 593 879 l 593 872 l 650 815 l 650 595 l 429 595 l 372 652 m 393 157 q 374 150 380 157 l 654 150 l 654 143 l 711 86 l 711 -208 l 393 -208 q 291 -188 338 -208 q 204 -129 244 -168 l 176 -102 q 158 -87 167 -95 q 140 -71 149 -79 q 61 121 61 9 q 81 226 61 178 q 140 314 100 273 q 229 374 181 354 q 334 393 276 393 l 403 393 l 414 587 l 543 587 l 543 579 l 600 524 l 627 157 l 393 157 m 564 681 l 564 850 l 393 850 l 393 681 l 564 681 m 625 -122 l 625 121 l 334 121 q 310 126 321 121 q 290 139 298 131 q 277 159 281 148 q 272 182 272 170 q 290 225 272 207 q 334 243 308 243 l 539 243 l 515 558 l 441 558 l 429 364 l 334 364 q 161 293 231 364 q 90 121 90 222 q 161 -50 90 21 q 240 -104 197 -85 q 334 -122 283 -122 l 625 -122 z "},"À":{"ha":848,"x_min":61,"x_max":783,"o":"m 297 393 l 547 393 l 547 607 q 546 623 547 615 q 542 639 545 631 q 529 642 535 640 q 515 643 523 643 l 393 643 q 356 635 374 643 q 326 614 339 627 q 305 584 313 602 q 297 547 297 566 l 297 393 m 68 -29 l 61 -29 l 61 729 q 140 921 61 842 q 229 982 181 962 q 334 1002 276 1002 l 361 1002 l 346 1015 l 340 1015 l 210 1244 l 375 1244 l 380 1234 l 433 1181 l 511 996 q 584 970 551 988 q 647 922 616 951 q 662 905 656 913 q 675 889 669 897 l 705 860 q 764 772 745 820 q 783 668 783 725 l 783 -86 l 611 -86 l 554 -29 l 547 -29 l 547 157 l 297 157 l 297 -86 l 125 -86 l 68 -29 m 431 1044 l 357 1215 l 260 1215 l 357 1044 l 431 1044 m 697 0 l 697 729 q 680 823 697 781 q 627 901 663 866 q 454 972 555 972 l 334 972 q 161 900 233 972 q 90 729 90 829 l 90 0 l 211 0 l 211 243 l 576 243 l 576 0 l 697 0 m 576 364 l 211 364 l 211 607 q 221 654 211 632 q 247 693 231 677 q 286 720 264 710 q 334 729 309 729 l 454 729 q 503 720 480 729 q 541 694 525 710 q 567 655 557 677 q 576 607 576 633 l 576 364 z "},"Á":{"ha":848,"x_min":61,"x_max":783,"o":"m 297 393 l 547 393 l 547 607 q 546 623 547 615 q 542 639 545 631 q 529 642 535 640 q 515 643 523 643 l 393 643 q 356 635 374 643 q 326 614 339 627 q 305 584 313 602 q 297 547 297 566 l 297 393 m 574 1239 l 632 1181 l 525 993 q 590 966 559 985 q 647 922 620 948 q 662 905 656 913 q 675 889 669 897 l 705 860 q 764 772 745 820 q 783 668 783 725 l 783 -86 l 611 -86 l 554 -29 l 547 -29 l 547 157 l 297 157 l 297 -86 l 125 -86 l 68 -29 l 61 -29 l 61 729 q 140 921 61 842 q 229 982 181 962 q 334 1002 276 1002 l 338 1002 l 323 1015 l 314 1015 l 412 1244 l 578 1244 l 574 1239 m 528 1215 l 431 1215 l 357 1044 l 431 1044 l 528 1215 m 697 0 l 697 729 q 680 823 697 781 q 627 901 663 866 q 454 972 555 972 l 334 972 q 161 900 233 972 q 90 729 90 829 l 90 0 l 211 0 l 211 243 l 576 243 l 576 0 l 697 0 m 576 364 l 211 364 l 211 607 q 221 654 211 632 q 247 693 231 677 q 286 720 264 710 q 334 729 309 729 l 454 729 q 503 720 480 729 q 541 694 525 710 q 567 655 557 677 q 576 607 576 633 l 576 364 z "},"Â":{"ha":848,"x_min":61,"x_max":783,"o":"m 471 1002 l 457 1015 l 452 1015 l 441 1028 l 424 1002 l 454 1002 l 471 1002 m 297 393 l 547 393 l 547 607 q 546 623 547 615 q 542 639 545 631 q 529 642 535 640 q 515 643 523 643 l 393 643 q 356 635 374 643 q 326 614 339 627 q 305 584 313 602 q 297 547 297 566 l 297 393 m 68 -29 l 61 -29 l 61 729 q 140 921 61 842 q 187 959 162 943 q 237 985 212 975 l 208 1015 l 199 1015 l 328 1244 l 460 1244 l 467 1229 l 518 1181 l 644 958 l 603 958 q 626 941 614 950 q 647 922 637 932 q 662 905 656 913 q 675 889 669 897 l 705 860 q 764 772 745 820 q 783 668 783 725 l 783 -86 l 611 -86 l 554 -29 l 547 -29 l 547 157 l 297 157 l 297 -86 l 125 -86 l 68 -29 m 539 1044 l 441 1215 l 345 1215 l 248 1044 l 321 1044 l 393 1147 l 467 1044 l 539 1044 m 697 0 l 697 729 q 680 823 697 781 q 627 901 663 866 q 454 972 555 972 l 334 972 q 161 900 233 972 q 90 729 90 829 l 90 0 l 211 0 l 211 243 l 576 243 l 576 0 l 697 0 m 576 364 l 211 364 l 211 607 q 221 654 211 632 q 247 693 231 677 q 286 720 264 710 q 334 729 309 729 l 454 729 q 503 720 480 729 q 541 694 525 710 q 567 655 557 677 q 576 607 576 633 l 576 364 z "},"Ã":{"ha":848,"x_min":61,"x_max":783,"o":"m 393 1007 q 377 1006 386 1007 q 358 1002 368 1005 l 415 1002 q 403 1006 409 1005 q 393 1007 397 1007 m 297 393 l 547 393 l 547 607 q 546 623 547 615 q 542 639 545 631 q 529 642 535 640 q 515 643 523 643 l 393 643 q 356 635 374 643 q 326 614 339 627 q 305 584 313 602 q 297 547 297 566 l 297 393 m 68 -29 l 61 -29 l 61 729 q 140 921 61 842 q 170 946 155 935 q 200 966 184 958 l 189 981 l 182 975 l 182 1154 q 334 1219 248 1219 q 410 1192 368 1219 q 436 1176 425 1182 q 454 1171 447 1171 q 606 1260 511 1171 l 606 1249 l 663 1190 l 663 1034 l 656 1015 q 585 970 623 984 q 617 949 602 960 q 647 922 633 937 q 662 905 656 913 q 675 889 669 897 l 705 860 q 764 772 745 820 q 783 668 783 725 l 783 -86 l 611 -86 l 554 -29 l 547 -29 l 547 157 l 297 157 l 297 -86 l 125 -86 l 68 -29 m 576 1093 l 576 1190 q 454 1141 524 1141 q 427 1148 443 1141 q 393 1166 412 1155 q 334 1190 357 1190 q 267 1179 298 1190 q 211 1141 236 1167 l 211 1044 q 267 1081 236 1069 q 334 1093 298 1093 q 360 1087 345 1093 q 393 1069 376 1081 q 427 1051 412 1058 q 454 1044 443 1044 q 576 1093 524 1044 m 697 0 l 697 729 q 680 823 697 781 q 627 901 663 866 q 454 972 555 972 l 334 972 q 161 900 233 972 q 90 729 90 829 l 90 0 l 211 0 l 211 243 l 576 243 l 576 0 l 697 0 m 576 364 l 211 364 l 211 607 q 221 654 211 632 q 247 693 231 677 q 286 720 264 710 q 334 729 309 729 l 454 729 q 503 720 480 729 q 541 694 525 710 q 567 655 557 677 q 576 607 576 633 l 576 364 z "},"Ä":{"ha":848,"x_min":61,"x_max":783,"o":"m 297 393 l 547 393 l 547 607 q 546 623 547 615 q 542 639 545 631 q 529 642 535 640 q 515 643 523 643 l 393 643 q 356 635 374 643 q 326 614 339 627 q 305 584 313 602 q 297 547 297 566 l 297 393 m 419 1002 l 447 1002 l 432 1015 l 425 1015 l 425 1196 l 606 1196 l 606 1189 l 663 1132 l 663 958 l 603 958 q 626 941 614 950 q 647 922 637 932 q 662 905 656 913 q 675 889 669 897 l 705 860 q 764 772 745 820 q 783 668 783 725 l 783 -86 l 611 -86 l 554 -29 l 547 -29 l 547 157 l 297 157 l 297 -86 l 125 -86 l 68 -29 l 61 -29 l 61 729 q 140 921 61 842 q 225 979 179 960 l 189 1015 l 182 1015 l 182 1196 l 363 1196 l 363 1189 l 419 1132 l 419 1002 m 576 1044 l 576 1166 l 454 1166 l 454 1044 l 576 1044 m 334 1044 l 334 1166 l 211 1166 l 211 1044 l 334 1044 m 697 0 l 697 729 q 680 823 697 781 q 627 901 663 866 q 454 972 555 972 l 334 972 q 161 900 233 972 q 90 729 90 829 l 90 0 l 211 0 l 211 243 l 576 243 l 576 0 l 697 0 m 576 364 l 211 364 l 211 607 q 221 654 211 632 q 247 693 231 677 q 286 720 264 710 q 334 729 309 729 l 454 729 q 503 720 480 729 q 541 694 525 710 q 567 655 557 677 q 576 607 576 633 l 576 364 z "},"Å":{"ha":848,"x_min":61,"x_max":783,"o":"m 461 1069 l 461 1080 l 454 1080 q 427 1075 439 1080 q 404 1059 414 1069 q 389 1036 394 1049 q 383 1008 383 1023 l 383 1002 l 393 1002 q 420 1007 408 1002 q 441 1022 432 1013 q 456 1044 450 1031 q 461 1069 461 1056 m 297 393 l 547 393 l 547 607 q 546 623 547 615 q 542 639 545 631 q 529 642 535 640 q 515 643 523 643 l 393 643 q 356 635 374 643 q 326 614 339 627 q 305 584 313 602 q 297 547 297 566 l 297 393 m 627 1008 q 624 977 627 991 q 616 947 621 962 q 641 927 629 939 q 664 903 652 916 q 668 897 666 899 q 673 890 670 894 l 700 864 q 711 852 705 859 q 722 840 716 846 q 768 760 753 802 q 783 668 783 717 l 783 -86 l 611 -86 l 554 -29 l 547 -29 l 547 157 l 297 157 l 297 -86 l 125 -86 l 68 -29 l 61 -29 l 61 729 q 123 903 61 825 q 177 951 147 931 q 240 985 207 971 q 224 1025 230 1004 q 218 1069 218 1046 q 269 1193 218 1142 q 393 1244 321 1244 q 518 1193 467 1244 q 530 1179 524 1185 q 541 1164 536 1173 l 576 1131 q 613 1075 600 1105 q 627 1008 627 1044 m 697 0 l 697 729 q 642 885 697 819 q 500 968 587 951 q 539 1069 539 1009 q 497 1173 539 1131 q 450 1204 476 1193 q 393 1215 424 1215 q 337 1204 363 1215 q 290 1173 311 1193 q 248 1069 248 1130 q 258 1015 248 1040 q 289 968 268 989 q 146 885 202 951 q 104 812 117 851 q 90 729 90 773 l 90 0 l 211 0 l 211 243 l 576 243 l 576 0 l 697 0 m 490 1069 q 483 1031 490 1049 q 462 1001 475 1014 q 431 980 449 987 q 393 972 414 972 q 356 980 374 972 q 325 1001 338 987 q 303 1031 311 1014 q 296 1069 296 1049 q 303 1107 296 1089 q 325 1138 311 1124 q 356 1159 338 1151 q 393 1166 374 1166 q 431 1159 414 1166 q 462 1138 449 1151 q 483 1107 475 1124 q 490 1069 490 1089 m 576 364 l 211 364 l 211 607 q 221 654 211 632 q 247 693 231 677 q 286 720 264 710 q 334 729 309 729 l 454 729 q 503 720 480 729 q 541 694 525 710 q 567 655 557 677 q 576 607 576 633 l 576 364 z "},"Æ":{"ha":1152,"x_min":61,"x_max":1088,"o":"m 297 393 l 547 393 l 547 607 q 546 623 547 615 q 542 639 545 631 q 529 642 535 640 q 515 643 523 643 l 393 643 q 356 635 374 643 q 326 614 339 627 q 305 584 313 602 q 297 547 297 566 l 297 393 m 783 304 q 784 291 783 297 q 786 277 784 284 q 819 272 802 272 l 1031 272 l 1031 265 l 1088 208 l 1088 -86 l 879 -86 q 776 -67 823 -86 q 689 -8 729 -48 l 659 21 q 642 34 650 27 q 627 50 634 41 q 559 157 578 96 l 297 157 l 297 -86 l 125 -86 l 68 -29 l 61 -29 l 61 729 q 140 921 61 842 q 229 982 181 962 q 334 1002 276 1002 l 406 1002 q 480 991 446 1002 q 547 961 515 981 l 547 1002 l 1031 1002 l 1031 994 l 1088 937 l 1088 643 l 783 643 l 783 576 l 908 576 l 908 568 l 966 511 l 966 339 l 783 339 l 783 304 m 1002 0 l 1002 243 l 819 243 q 771 252 793 243 q 732 278 749 262 q 707 316 716 294 q 697 364 697 338 l 697 425 l 879 425 l 879 547 l 697 547 l 697 729 l 1002 729 l 1002 972 l 576 972 l 576 904 q 406 972 504 972 l 334 972 q 161 900 233 972 q 90 729 90 829 l 90 0 l 211 0 l 211 243 l 576 243 q 646 71 576 140 q 725 18 682 35 q 819 0 768 0 l 1002 0 m 576 364 l 211 364 l 211 607 q 221 654 211 632 q 247 693 231 677 q 286 720 264 710 q 334 729 309 729 l 454 729 q 503 720 480 729 q 541 694 525 710 q 567 655 557 677 q 576 607 576 633 l 576 364 z "},"Ç":{"ha":848,"x_min":61,"x_max":783,"o":"m 297 304 q 297 291 297 297 q 300 278 298 284 q 317 274 309 276 q 334 272 325 272 l 726 272 l 726 265 l 783 208 l 783 -86 l 555 -86 l 589 -121 q 616 -160 606 -138 q 627 -207 627 -182 q 617 -255 627 -233 q 590 -294 607 -277 q 551 -319 574 -310 q 503 -329 528 -329 l 371 -329 l 314 -272 l 306 -272 l 336 -178 l 441 -178 q 451 -176 447 -178 q 461 -171 456 -174 l 411 -171 l 354 -114 l 345 -114 l 353 -83 q 273 -57 310 -76 q 204 -7 235 -39 l 176 20 q 158 35 167 27 q 140 52 149 42 q 61 243 61 131 l 61 729 q 140 921 61 842 q 229 982 181 962 q 334 1002 276 1002 l 726 1002 l 726 994 l 783 937 l 783 643 l 393 643 q 356 635 374 643 q 326 614 339 627 q 305 584 313 602 q 297 547 297 566 l 297 304 m 697 0 l 697 243 l 334 243 q 286 252 309 243 q 247 278 264 262 q 221 317 231 295 q 211 364 211 339 l 211 607 q 221 654 211 632 q 247 693 231 677 q 286 720 264 710 q 334 729 309 729 l 697 729 l 697 972 l 334 972 q 161 900 233 972 q 90 729 90 829 l 90 243 q 161 72 90 143 q 334 0 231 0 l 401 0 l 382 -85 l 441 -85 q 485 -103 467 -85 q 503 -146 503 -121 q 485 -189 503 -171 q 441 -207 467 -207 l 357 -207 l 345 -243 l 441 -243 q 479 -235 462 -243 q 510 -215 497 -228 q 531 -184 524 -201 q 539 -146 539 -166 q 533 -114 539 -130 q 517 -86 528 -98 q 493 -64 507 -73 q 461 -52 478 -55 l 472 0 l 697 0 z "},"È":{"ha":726,"x_min":61,"x_max":663,"o":"m 172 21 q 156 34 164 27 q 140 50 148 41 q 80 138 100 90 q 61 243 61 185 l 61 1002 l 300 1002 l 286 1015 l 279 1015 l 150 1244 l 315 1244 l 319 1234 l 374 1181 l 449 1002 l 606 1002 l 606 994 l 663 937 l 663 643 l 297 643 l 297 576 l 484 576 l 484 568 l 541 511 l 541 339 l 297 339 l 297 304 q 297 291 297 297 q 300 277 298 284 q 334 272 316 272 l 606 272 l 606 265 l 663 208 l 663 -86 l 393 -86 q 290 -67 336 -86 q 203 -8 243 -48 l 172 21 m 370 1044 l 296 1215 l 199 1215 l 296 1044 l 370 1044 m 576 0 l 576 243 l 334 243 q 285 252 307 243 q 246 278 262 262 q 220 316 230 294 q 211 364 211 338 l 211 425 l 454 425 l 454 547 l 211 547 l 211 729 l 576 729 l 576 972 l 90 972 l 90 243 q 160 71 90 140 q 334 0 233 0 l 576 0 z "},"É":{"ha":726,"x_min":61,"x_max":663,"o":"m 513 1239 l 571 1181 l 468 1002 l 606 1002 l 606 994 l 663 937 l 663 643 l 297 643 l 297 576 l 484 576 l 484 568 l 541 511 l 541 339 l 297 339 l 297 304 q 297 291 297 297 q 300 277 298 284 q 334 272 316 272 l 606 272 l 606 265 l 663 208 l 663 -86 l 393 -86 q 290 -67 336 -86 q 203 -8 243 -48 l 172 21 q 156 34 164 27 q 140 50 148 41 q 80 138 100 90 q 61 243 61 185 l 61 1002 l 277 1002 l 262 1015 l 253 1015 l 351 1244 l 517 1244 l 513 1239 m 467 1215 l 370 1215 l 296 1044 l 370 1044 l 467 1215 m 576 0 l 576 243 l 334 243 q 285 252 307 243 q 246 278 262 262 q 220 316 230 294 q 211 364 211 338 l 211 425 l 454 425 l 454 547 l 211 547 l 211 729 l 576 729 l 576 972 l 90 972 l 90 243 q 160 71 90 140 q 334 0 233 0 l 576 0 z "},"Ê":{"ha":726,"x_min":61,"x_max":663,"o":"m 382 1028 l 364 1002 l 411 1002 l 396 1015 l 392 1015 l 382 1028 m 172 21 q 156 34 164 27 q 140 50 148 41 q 80 138 100 90 q 61 243 61 185 l 61 1002 l 161 1002 l 147 1015 l 138 1015 l 267 1244 l 399 1244 l 406 1229 l 457 1181 l 558 1002 l 606 1002 l 606 994 l 663 937 l 663 643 l 297 643 l 297 576 l 484 576 l 484 568 l 541 511 l 541 339 l 297 339 l 297 304 q 297 291 297 297 q 300 277 298 284 q 334 272 316 272 l 606 272 l 606 265 l 663 208 l 663 -86 l 393 -86 q 290 -67 336 -86 q 203 -8 243 -48 l 172 21 m 479 1044 l 382 1215 l 285 1215 l 187 1044 l 260 1044 l 334 1147 l 406 1044 l 479 1044 m 576 0 l 576 243 l 334 243 q 285 252 307 243 q 246 278 262 262 q 220 316 230 294 q 211 364 211 338 l 211 425 l 454 425 l 454 547 l 211 547 l 211 729 l 576 729 l 576 972 l 90 972 l 90 243 q 160 71 90 140 q 334 0 233 0 l 576 0 z "},"Ë":{"ha":726,"x_min":61,"x_max":663,"o":"m 358 1002 l 386 1002 l 372 1015 l 364 1015 l 364 1196 l 545 1196 l 545 1189 l 602 1132 l 602 1002 l 606 1002 l 606 994 l 663 937 l 663 643 l 297 643 l 297 576 l 484 576 l 484 568 l 541 511 l 541 339 l 297 339 l 297 304 q 297 291 297 297 q 300 277 298 284 q 334 272 316 272 l 606 272 l 606 265 l 663 208 l 663 -86 l 393 -86 q 290 -67 336 -86 q 203 -8 243 -48 l 172 21 q 156 34 164 27 q 140 50 148 41 q 80 138 100 90 q 61 243 61 185 l 61 1002 l 143 1002 l 129 1015 l 121 1015 l 121 1196 l 301 1196 l 301 1189 l 358 1132 l 358 1002 m 515 1044 l 515 1166 l 393 1166 l 393 1044 l 515 1044 m 272 1044 l 272 1166 l 150 1166 l 150 1044 l 272 1044 m 576 0 l 576 243 l 334 243 q 285 252 307 243 q 246 278 262 262 q 220 316 230 294 q 211 364 211 338 l 211 425 l 454 425 l 454 547 l 211 547 l 211 729 l 576 729 l 576 972 l 90 972 l 90 243 q 160 71 90 140 q 334 0 233 0 l 576 0 z "},"Ì":{"ha":484,"x_min":28,"x_max":419,"o":"m 68 -29 l 61 -29 l 61 272 l 121 272 l 121 646 l 68 700 l 61 700 l 61 1002 l 179 1002 l 164 1015 l 158 1015 l 28 1244 l 193 1244 l 199 1234 l 252 1181 l 326 1002 l 363 1002 l 363 994 l 419 937 l 419 643 l 358 643 l 358 272 l 363 272 l 363 265 l 419 208 l 419 -86 l 125 -86 l 68 -29 m 248 1044 l 175 1215 l 78 1215 l 175 1044 l 248 1044 m 334 0 l 334 243 l 272 243 l 272 729 l 334 729 l 334 972 l 90 972 l 90 729 l 150 729 l 150 243 l 90 243 l 90 0 l 334 0 z "},"Í":{"ha":484,"x_min":61,"x_max":450,"o":"m 392 1239 l 450 1181 l 346 1002 l 363 1002 l 363 994 l 419 937 l 419 643 l 358 643 l 358 272 l 363 272 l 363 265 l 419 208 l 419 -86 l 125 -86 l 68 -29 l 61 -29 l 61 272 l 121 272 l 121 646 l 68 700 l 61 700 l 61 1002 l 155 1002 l 140 1015 l 131 1015 l 229 1244 l 395 1244 l 392 1239 m 345 1215 l 248 1215 l 175 1044 l 248 1044 l 345 1215 m 334 0 l 334 243 l 272 243 l 272 729 l 334 729 l 334 972 l 90 972 l 90 729 l 150 729 l 150 243 l 90 243 l 90 0 l 334 0 z "},"Î":{"ha":484,"x_min":16,"x_max":461,"o":"m 260 1028 l 241 1002 l 289 1002 l 275 1015 l 269 1015 l 260 1028 m 68 -29 l 61 -29 l 61 272 l 121 272 l 121 646 l 68 700 l 61 700 l 61 981 l 25 1015 l 16 1015 l 146 1244 l 277 1244 l 285 1229 l 335 1181 l 461 958 l 397 958 l 419 937 l 419 643 l 358 643 l 358 272 l 363 272 l 363 265 l 419 208 l 419 -86 l 125 -86 l 68 -29 m 357 1044 l 260 1215 l 163 1215 l 65 1044 l 139 1044 l 211 1147 l 285 1044 l 357 1044 m 334 0 l 334 243 l 272 243 l 272 729 l 334 729 l 334 972 l 90 972 l 90 729 l 150 729 l 150 243 l 90 243 l 90 0 l 334 0 z "},"Ï":{"ha":484,"x_min":0,"x_max":481,"o":"m 237 1002 l 265 1002 l 250 1015 l 243 1015 l 243 1196 l 422 1196 l 422 1189 l 481 1132 l 481 958 l 397 958 l 419 937 l 419 643 l 358 643 l 358 272 l 363 272 l 363 265 l 419 208 l 419 -86 l 125 -86 l 68 -29 l 61 -29 l 61 272 l 121 272 l 121 646 l 68 700 l 61 700 l 61 962 l 7 1015 l 0 1015 l 0 1196 l 179 1196 l 179 1189 l 237 1132 l 237 1002 m 393 1044 l 393 1166 l 272 1166 l 272 1044 l 393 1044 m 150 1044 l 150 1166 l 29 1166 l 29 1044 l 150 1044 m 334 0 l 334 243 l 272 243 l 272 729 l 334 729 l 334 972 l 90 972 l 90 729 l 150 729 l 150 243 l 90 243 l 90 0 l 334 0 z "},"Ð":{"ha":939,"x_min":31,"x_max":875,"o":"m 637 607 q 636 623 637 615 q 632 639 635 631 q 619 642 626 640 q 607 643 612 643 l 389 643 l 389 576 l 575 576 l 575 568 l 632 511 l 632 339 l 389 339 l 389 272 l 546 272 q 582 279 565 272 q 611 299 599 286 q 630 328 623 311 q 637 364 637 345 l 637 607 m 37 396 l 31 396 l 31 576 l 151 576 l 151 1002 l 546 1002 q 737 921 659 1002 q 753 903 746 911 q 768 885 761 895 l 796 859 q 855 772 836 819 q 875 668 875 725 l 875 182 q 856 78 875 125 q 798 -8 837 31 q 607 -86 720 -86 l 216 -86 l 160 -29 l 151 -29 l 151 339 l 94 339 l 37 396 m 789 243 l 789 729 q 770 822 789 780 q 717 900 752 864 q 546 972 644 972 l 180 972 l 180 547 l 60 547 l 60 425 l 180 425 l 180 0 l 546 0 q 718 71 646 0 q 789 243 789 142 m 667 364 q 657 316 667 338 q 632 278 648 294 q 594 252 616 262 q 546 243 572 243 l 302 243 l 302 425 l 546 425 l 546 547 l 302 547 l 302 729 l 546 729 q 593 720 571 729 q 631 693 615 710 q 657 654 648 677 q 667 607 667 632 l 667 364 z "},"Ñ":{"ha":848,"x_min":61,"x_max":783,"o":"m 393 1007 q 377 1006 386 1007 q 358 1002 368 1005 l 415 1002 q 403 1006 409 1005 q 393 1007 397 1007 m 68 -29 l 61 -29 l 61 729 q 80 833 61 786 q 140 921 100 881 q 169 946 154 935 q 200 966 184 958 l 189 981 l 182 975 l 182 1154 q 334 1219 248 1219 q 410 1192 368 1219 q 436 1176 425 1182 q 454 1171 447 1171 q 606 1260 511 1171 l 606 1249 l 663 1190 l 663 1034 l 656 1015 q 585 970 623 984 q 617 949 602 960 q 647 922 633 937 q 662 905 656 913 q 675 889 669 897 l 703 861 l 701 863 l 705 860 q 764 772 745 820 q 783 668 783 725 l 783 -86 l 611 -86 l 554 -29 l 547 -29 l 547 607 q 546 623 547 615 q 542 639 545 631 q 529 642 535 640 q 515 643 523 643 l 393 643 q 356 635 374 643 q 326 614 339 627 q 305 584 313 602 q 297 547 297 566 l 297 -86 l 125 -86 l 68 -29 m 576 1093 l 576 1190 q 454 1141 524 1141 q 427 1148 443 1141 q 393 1166 412 1155 q 334 1190 357 1190 q 267 1179 298 1190 q 211 1141 236 1167 l 211 1044 q 267 1081 236 1069 q 334 1093 298 1093 q 360 1087 345 1093 q 393 1069 376 1081 q 427 1051 412 1058 q 454 1044 443 1044 q 576 1093 524 1044 m 697 0 l 697 729 q 680 823 697 781 q 627 901 663 866 q 454 972 555 972 l 334 972 q 240 954 283 972 q 160 900 197 936 q 90 729 90 830 l 90 0 l 211 0 l 211 607 q 221 654 211 632 q 247 693 231 677 q 286 720 264 710 q 334 729 309 729 l 454 729 q 503 720 480 729 q 541 694 525 710 q 567 655 557 677 q 576 607 576 633 l 576 0 l 697 0 z "},"Ò":{"ha":848,"x_min":61,"x_max":783,"o":"m 547 607 q 541 639 547 623 q 527 642 534 640 q 515 643 521 643 l 393 643 q 356 635 374 643 q 326 614 339 627 q 305 584 313 602 q 297 547 297 566 l 297 304 q 297 291 297 297 q 300 278 298 284 q 317 274 309 276 q 334 272 325 272 l 454 272 q 491 279 474 272 q 520 299 508 286 q 540 328 533 311 q 547 364 547 345 l 547 607 m 172 21 q 156 34 164 27 q 140 50 148 41 q 80 138 100 90 q 61 243 61 186 l 61 729 q 80 833 61 786 q 140 921 100 881 q 334 1002 219 1002 l 361 1002 l 346 1015 l 340 1015 l 210 1244 l 375 1244 l 380 1234 l 433 1181 l 511 996 q 583 969 550 988 q 646 921 616 950 q 662 903 654 911 q 676 885 669 895 l 704 859 q 783 668 783 779 l 783 182 q 764 78 783 125 q 705 -8 745 31 q 619 -67 667 -48 q 515 -86 572 -86 l 393 -86 q 290 -67 338 -86 q 203 -8 243 -48 l 172 21 m 431 1044 l 357 1215 l 260 1215 l 357 1044 l 431 1044 m 697 243 l 697 729 q 627 900 697 828 q 547 954 590 936 q 454 972 505 972 l 334 972 q 240 954 283 972 q 160 900 197 936 q 90 729 90 830 l 90 243 q 107 150 90 193 q 160 71 124 106 q 334 0 233 0 l 454 0 q 627 71 555 0 q 680 149 663 106 q 697 243 697 192 m 576 364 q 567 316 576 338 q 541 278 557 294 q 503 252 525 262 q 454 243 480 243 l 334 243 q 286 252 309 243 q 247 278 264 262 q 221 317 231 295 q 211 364 211 339 l 211 607 q 221 654 211 632 q 247 693 231 677 q 286 720 264 710 q 334 729 309 729 l 454 729 q 502 720 479 729 q 540 693 524 710 q 567 654 557 677 q 576 607 576 632 l 576 364 z "},"Ó":{"ha":848,"x_min":61,"x_max":783,"o":"m 547 607 q 541 639 547 623 q 527 642 534 640 q 515 643 521 643 l 393 643 q 356 635 374 643 q 326 614 339 627 q 305 584 313 602 q 297 547 297 566 l 297 304 q 297 291 297 297 q 300 278 298 284 q 317 274 309 276 q 334 272 325 272 l 454 272 q 491 279 474 272 q 520 299 508 286 q 540 328 533 311 q 547 364 547 345 l 547 607 m 574 1239 l 632 1181 l 524 993 q 646 921 592 975 q 662 903 654 911 q 676 885 669 895 l 704 859 q 783 668 783 779 l 783 182 q 764 78 783 125 q 705 -8 745 31 q 619 -67 667 -48 q 515 -86 572 -86 l 393 -86 q 290 -67 338 -86 q 203 -8 243 -48 l 172 21 q 156 34 164 27 q 140 50 148 41 q 80 138 100 90 q 61 243 61 186 l 61 729 q 80 833 61 786 q 140 921 100 881 q 334 1002 219 1002 l 338 1002 l 323 1015 l 314 1015 l 412 1244 l 578 1244 l 574 1239 m 528 1215 l 431 1215 l 357 1044 l 431 1044 l 528 1215 m 697 243 l 697 729 q 627 900 697 828 q 547 954 590 936 q 454 972 505 972 l 334 972 q 240 954 283 972 q 160 900 197 936 q 90 729 90 830 l 90 243 q 107 150 90 193 q 160 71 124 106 q 334 0 233 0 l 454 0 q 627 71 555 0 q 680 149 663 106 q 697 243 697 192 m 576 364 q 567 316 576 338 q 541 278 557 294 q 503 252 525 262 q 454 243 480 243 l 334 243 q 286 252 309 243 q 247 278 264 262 q 221 317 231 295 q 211 364 211 339 l 211 607 q 221 654 211 632 q 247 693 231 677 q 286 720 264 710 q 334 729 309 729 l 454 729 q 502 720 479 729 q 540 693 524 710 q 567 654 557 677 q 576 607 576 632 l 576 364 z "},"Ô":{"ha":848,"x_min":61,"x_max":783,"o":"m 471 1002 l 457 1015 l 452 1015 l 441 1028 l 424 1002 l 454 1002 l 471 1002 m 547 607 q 541 639 547 623 q 527 642 534 640 q 515 643 521 643 l 393 643 q 356 635 374 643 q 326 614 339 627 q 305 584 313 602 q 297 547 297 566 l 297 304 q 297 291 297 297 q 300 278 298 284 q 317 274 309 276 q 334 272 325 272 l 454 272 q 491 279 474 272 q 520 299 508 286 q 540 328 533 311 q 547 364 547 345 l 547 607 m 172 21 q 156 34 164 27 q 140 50 148 41 q 80 138 100 90 q 61 243 61 186 l 61 729 q 80 833 61 786 q 140 921 100 881 q 237 985 184 964 l 208 1015 l 199 1015 l 328 1244 l 460 1244 l 467 1229 l 518 1181 l 644 958 l 600 958 q 624 941 612 950 q 646 921 635 932 q 662 903 654 911 q 676 885 669 895 l 701 860 l 700 861 l 704 859 q 783 668 783 779 l 783 182 q 764 78 783 125 q 705 -8 745 31 q 619 -67 667 -48 q 515 -86 572 -86 l 393 -86 q 290 -67 338 -86 q 203 -8 243 -48 l 172 21 m 539 1044 l 441 1215 l 345 1215 l 248 1044 l 321 1044 l 393 1147 l 467 1044 l 539 1044 m 697 243 l 697 729 q 627 900 697 828 q 547 954 590 936 q 454 972 505 972 l 334 972 q 240 954 283 972 q 160 900 197 936 q 90 729 90 830 l 90 243 q 107 150 90 193 q 160 71 124 106 q 334 0 233 0 l 454 0 q 627 71 555 0 q 680 149 663 106 q 697 243 697 192 m 576 364 q 567 316 576 338 q 541 278 557 294 q 503 252 525 262 q 454 243 480 243 l 334 243 q 286 252 309 243 q 247 278 264 262 q 221 317 231 295 q 211 364 211 339 l 211 607 q 221 654 211 632 q 247 693 231 677 q 286 720 264 710 q 334 729 309 729 l 454 729 q 502 720 479 729 q 540 693 524 710 q 567 654 557 677 q 576 607 576 632 l 576 364 z "},"Õ":{"ha":848,"x_min":61,"x_max":783,"o":"m 393 1007 q 377 1006 386 1007 q 358 1002 368 1005 l 415 1002 q 403 1006 409 1005 q 393 1007 397 1007 m 547 607 q 541 639 547 623 q 527 642 534 640 q 515 643 521 643 l 393 643 q 356 635 374 643 q 326 614 339 627 q 305 584 313 602 q 297 547 297 566 l 297 304 q 297 291 297 297 q 300 278 298 284 q 317 274 309 276 q 334 272 325 272 l 454 272 q 491 279 474 272 q 520 299 508 286 q 540 328 533 311 q 547 364 547 345 l 547 607 m 172 21 q 156 34 164 27 q 140 50 148 41 q 80 138 100 90 q 61 243 61 186 l 61 729 q 80 833 61 786 q 140 921 100 881 q 169 946 154 935 q 200 966 184 958 l 189 981 l 182 975 l 182 1154 q 334 1219 248 1219 q 410 1192 368 1219 q 436 1176 425 1182 q 454 1171 447 1171 q 606 1260 511 1171 l 606 1249 l 663 1190 l 663 1034 l 656 1015 q 620 987 638 1000 q 583 968 602 975 q 616 947 601 960 q 646 921 631 935 q 662 903 654 911 q 676 885 669 895 l 704 859 q 783 668 783 779 l 783 182 q 764 78 783 125 q 705 -8 745 31 q 619 -67 667 -48 q 515 -86 572 -86 l 393 -86 q 290 -67 338 -86 q 203 -8 243 -48 l 172 21 m 576 1093 l 576 1190 q 454 1141 524 1141 q 427 1148 443 1141 q 393 1166 412 1155 q 334 1190 357 1190 q 267 1179 298 1190 q 211 1141 236 1167 l 211 1044 q 267 1081 236 1069 q 334 1093 298 1093 q 360 1087 345 1093 q 393 1069 376 1081 q 427 1051 412 1058 q 454 1044 443 1044 q 576 1093 524 1044 m 697 243 l 697 729 q 627 900 697 828 q 547 954 590 936 q 454 972 505 972 l 334 972 q 240 954 283 972 q 160 900 197 936 q 90 729 90 830 l 90 243 q 107 150 90 193 q 160 71 124 106 q 334 0 233 0 l 454 0 q 627 71 555 0 q 680 149 663 106 q 697 243 697 192 m 576 364 q 567 316 576 338 q 541 278 557 294 q 503 252 525 262 q 454 243 480 243 l 334 243 q 286 252 309 243 q 247 278 264 262 q 221 317 231 295 q 211 364 211 339 l 211 607 q 221 654 211 632 q 247 693 231 677 q 286 720 264 710 q 334 729 309 729 l 454 729 q 502 720 479 729 q 540 693 524 710 q 567 654 557 677 q 576 607 576 632 l 576 364 z "},"Ö":{"ha":848,"x_min":61,"x_max":783,"o":"m 547 607 q 541 639 547 623 q 527 642 534 640 q 515 643 521 643 l 393 643 q 356 635 374 643 q 326 614 339 627 q 305 584 313 602 q 297 547 297 566 l 297 304 q 297 291 297 297 q 300 278 298 284 q 317 274 309 276 q 334 272 325 272 l 454 272 q 491 279 474 272 q 520 299 508 286 q 540 328 533 311 q 547 364 547 345 l 547 607 m 419 1002 l 447 1002 l 432 1015 l 425 1015 l 425 1196 l 606 1196 l 606 1189 l 663 1132 l 663 958 l 600 958 q 624 941 612 950 q 646 921 635 932 q 662 903 654 911 q 676 885 669 895 l 704 859 q 783 668 783 779 l 783 182 q 764 78 783 125 q 705 -8 745 31 q 619 -67 667 -48 q 515 -86 572 -86 l 393 -86 q 290 -67 338 -86 q 203 -8 243 -48 l 172 21 q 156 34 164 27 q 140 50 148 41 q 80 138 100 90 q 61 243 61 186 l 61 729 q 80 833 61 786 q 140 921 100 881 q 181 955 159 941 q 225 979 202 970 l 189 1015 l 182 1015 l 182 1196 l 363 1196 l 363 1189 l 419 1132 l 419 1002 m 576 1044 l 576 1166 l 454 1166 l 454 1044 l 576 1044 m 334 1044 l 334 1166 l 211 1166 l 211 1044 l 334 1044 m 697 243 l 697 729 q 627 900 697 828 q 547 954 590 936 q 454 972 505 972 l 334 972 q 240 954 283 972 q 160 900 197 936 q 90 729 90 830 l 90 243 q 107 150 90 193 q 160 71 124 106 q 334 0 233 0 l 454 0 q 627 71 555 0 q 680 149 663 106 q 697 243 697 192 m 576 364 q 567 316 576 338 q 541 278 557 294 q 503 252 525 262 q 454 243 480 243 l 334 243 q 286 252 309 243 q 247 278 264 262 q 221 317 231 295 q 211 364 211 339 l 211 607 q 221 654 211 632 q 247 693 231 677 q 286 720 264 710 q 334 729 309 729 l 454 729 q 502 720 479 729 q 540 693 524 710 q 567 654 557 677 q 576 607 576 632 l 576 364 z "},"×":{"ha":688,"x_min":49,"x_max":635,"o":"m 576 268 l 635 210 l 529 104 l 471 163 l 468 160 l 372 257 l 220 104 l 161 163 l 160 160 l 49 271 l 203 425 l 49 579 l 160 690 l 314 536 l 468 690 l 578 579 l 576 578 l 635 519 l 482 367 l 578 271 l 576 268 m 538 271 l 383 425 l 538 579 l 468 648 l 314 494 l 160 648 l 90 579 l 244 425 l 90 271 l 160 201 l 314 355 l 468 201 l 538 271 z "},"Ø":{"ha":848,"x_min":-11,"x_max":854,"o":"m 207 -9 q 207 -10 207 -9 q 208 -11 207 -11 l 207 -9 m 192 4 q 199 -3 196 0 q 207 -9 203 -6 l 192 4 m 547 457 l 412 272 l 454 272 q 491 279 474 272 q 520 299 508 286 q 540 328 533 311 q 547 364 547 345 l 547 457 m 297 453 l 435 643 l 393 643 q 356 635 374 643 q 326 614 339 627 q 305 584 313 602 q 297 547 297 566 l 297 453 m 143 -97 l 54 -31 l 14 11 l -11 29 l 77 150 q 64 196 68 173 q 61 243 61 219 l 61 729 q 80 833 61 786 q 140 921 100 881 q 334 1002 219 1002 l 454 1002 q 640 926 561 1002 l 704 1014 l 799 943 l 796 939 l 854 880 l 766 761 q 783 668 783 716 l 783 182 q 764 78 783 125 q 705 -8 745 31 q 619 -67 667 -48 q 515 -86 572 -86 l 393 -86 q 292 -68 338 -86 q 208 -11 246 -50 l 207 -9 l 143 -97 m 758 936 l 710 972 l 644 880 q 559 950 607 927 q 454 972 512 972 l 334 972 q 240 954 283 972 q 160 900 197 936 q 90 729 90 830 l 90 243 q 95 194 90 217 q 110 147 99 170 l 29 36 l 78 0 l 143 92 q 334 0 218 0 l 454 0 q 627 71 555 0 q 680 149 663 106 q 697 243 697 192 l 697 729 q 693 778 697 754 q 677 825 688 802 l 758 936 m 519 710 l 227 307 q 211 364 211 334 l 211 607 q 221 654 211 632 q 247 693 231 677 q 286 720 264 710 q 334 729 309 729 l 454 729 q 488 725 472 729 q 519 710 504 720 m 576 364 q 567 316 576 338 q 541 278 557 294 q 503 252 525 262 q 454 243 480 243 l 334 243 q 268 262 298 243 l 561 665 q 572 636 568 650 q 576 607 576 623 l 576 364 z "},"Ù":{"ha":848,"x_min":61,"x_max":783,"o":"m 346 1015 l 340 1015 l 210 1244 l 375 1244 l 380 1234 l 433 1181 l 529 958 l 403 958 l 346 1015 m 297 304 q 297 291 297 297 q 300 278 298 284 q 317 274 309 276 q 334 272 325 272 l 454 272 q 491 279 474 272 q 520 299 508 286 q 540 328 533 311 q 547 364 547 345 l 547 1002 l 726 1002 l 726 994 l 783 937 l 783 182 q 764 78 783 125 q 705 -8 745 31 q 619 -67 667 -48 q 515 -86 572 -86 l 393 -86 q 290 -67 338 -86 q 203 -8 243 -48 l 172 21 q 156 34 164 27 q 140 50 148 41 q 80 138 100 90 q 61 243 61 186 l 61 1002 l 240 1002 l 240 994 l 297 937 l 297 304 m 431 1044 l 357 1215 l 260 1215 l 357 1044 l 431 1044 m 697 243 l 697 972 l 576 972 l 576 364 q 567 316 576 338 q 541 278 557 294 q 503 252 525 262 q 454 243 480 243 l 334 243 q 286 252 309 243 q 247 278 264 262 q 221 317 231 295 q 211 364 211 339 l 211 972 l 90 972 l 90 243 q 107 150 90 193 q 160 71 124 106 q 334 0 233 0 l 454 0 q 627 71 555 0 q 680 149 663 106 q 697 243 697 192 z "},"Ú":{"ha":848,"x_min":61,"x_max":783,"o":"m 574 1239 l 632 1181 l 505 958 l 380 958 l 323 1015 l 314 1015 l 412 1244 l 578 1244 l 574 1239 m 297 304 q 297 291 297 297 q 300 278 298 284 q 317 274 309 276 q 334 272 325 272 l 454 272 q 491 279 474 272 q 520 299 508 286 q 540 328 533 311 q 547 364 547 345 l 547 1002 l 726 1002 l 726 994 l 783 937 l 783 182 q 764 78 783 125 q 705 -8 745 31 q 619 -67 667 -48 q 515 -86 572 -86 l 393 -86 q 290 -67 338 -86 q 203 -8 243 -48 l 172 21 q 156 34 164 27 q 140 50 148 41 q 80 138 100 90 q 61 243 61 186 l 61 1002 l 240 1002 l 240 994 l 297 937 l 297 304 m 528 1215 l 431 1215 l 357 1044 l 431 1044 l 528 1215 m 697 243 l 697 972 l 576 972 l 576 364 q 567 316 576 338 q 541 278 557 294 q 503 252 525 262 q 454 243 480 243 l 334 243 q 286 252 309 243 q 247 278 264 262 q 221 317 231 295 q 211 364 211 339 l 211 972 l 90 972 l 90 243 q 107 150 90 193 q 160 71 124 106 q 334 0 233 0 l 454 0 q 627 71 555 0 q 680 149 663 106 q 697 243 697 192 z "},"Û":{"ha":848,"x_min":61,"x_max":783,"o":"m 297 304 q 297 291 297 297 q 300 278 298 284 q 317 274 309 276 q 334 272 325 272 l 454 272 q 491 279 474 272 q 520 299 508 286 q 540 328 533 311 q 547 364 547 345 l 547 958 l 514 958 l 457 1015 l 452 1015 l 441 1028 l 395 958 l 277 958 l 297 937 l 297 304 m 172 21 q 156 34 164 27 q 140 50 148 41 q 80 138 100 90 q 61 243 61 186 l 61 1002 l 222 1002 l 208 1015 l 199 1015 l 328 1244 l 460 1244 l 467 1229 l 518 1181 l 618 1002 l 726 1002 l 726 994 l 783 937 l 783 182 q 764 78 783 125 q 705 -8 745 31 q 619 -67 667 -48 q 515 -86 572 -86 l 393 -86 q 290 -67 338 -86 q 203 -8 243 -48 l 172 21 m 539 1044 l 441 1215 l 345 1215 l 248 1044 l 321 1044 l 393 1147 l 467 1044 l 539 1044 m 697 243 l 697 972 l 576 972 l 576 364 q 567 316 576 338 q 541 278 557 294 q 503 252 525 262 q 454 243 480 243 l 334 243 q 286 252 309 243 q 247 278 264 262 q 221 317 231 295 q 211 364 211 339 l 211 972 l 90 972 l 90 243 q 107 150 90 193 q 160 71 124 106 q 334 0 233 0 l 454 0 q 627 71 555 0 q 680 149 663 106 q 697 243 697 192 z "},"Ü":{"ha":848,"x_min":61,"x_max":783,"o":"m 432 1015 l 425 1015 l 425 1196 l 606 1196 l 606 1189 l 663 1132 l 663 1002 l 726 1002 l 726 994 l 783 937 l 783 182 q 764 78 783 125 q 705 -8 745 31 q 619 -67 667 -48 q 515 -86 572 -86 l 393 -86 q 290 -67 338 -86 q 203 -8 243 -48 l 172 21 q 156 34 164 27 q 140 50 148 41 q 80 138 100 90 q 61 243 61 186 l 61 1002 l 204 1002 l 189 1015 l 182 1015 l 182 1196 l 363 1196 l 363 1189 l 419 1132 l 419 958 l 277 958 l 297 937 l 297 304 q 297 291 297 297 q 300 278 298 284 q 317 274 309 276 q 334 272 325 272 l 454 272 q 491 279 474 272 q 520 299 508 286 q 540 328 533 311 q 547 364 547 345 l 547 958 l 490 958 l 432 1015 m 576 1044 l 576 1166 l 454 1166 l 454 1044 l 576 1044 m 334 1044 l 334 1166 l 211 1166 l 211 1044 l 334 1044 m 697 243 l 697 972 l 576 972 l 576 364 q 567 316 576 338 q 541 278 557 294 q 503 252 525 262 q 454 243 480 243 l 334 243 q 286 252 309 243 q 247 278 264 262 q 221 317 231 295 q 211 364 211 339 l 211 972 l 90 972 l 90 243 q 107 150 90 193 q 160 71 124 106 q 334 0 233 0 l 454 0 q 627 71 555 0 q 680 149 663 106 q 697 243 697 192 z "},"Ý":{"ha":848,"x_min":61,"x_max":783,"o":"m 574 1239 l 632 1181 l 505 958 l 380 958 l 323 1015 l 314 1015 l 412 1244 l 578 1244 l 574 1239 m 297 596 q 297 582 297 589 q 300 570 298 576 q 317 566 309 568 q 334 564 325 564 l 454 564 q 491 571 474 564 q 520 590 508 578 q 540 620 533 603 q 547 656 547 636 l 547 1002 l 726 1002 l 726 994 l 783 937 l 783 473 q 764 370 783 417 q 705 283 745 322 q 630 230 671 249 q 541 207 589 210 l 541 -86 l 368 -86 l 311 -29 l 304 -29 l 304 218 q 251 244 276 229 q 204 283 226 260 l 176 311 q 158 325 167 317 q 140 342 149 332 q 61 534 61 421 l 61 1002 l 240 1002 l 240 994 l 297 937 l 297 596 m 528 1215 l 431 1215 l 357 1044 l 431 1044 l 528 1215 m 697 534 l 697 972 l 576 972 l 576 656 q 567 608 576 630 q 541 570 557 586 q 503 544 525 553 q 454 534 480 534 l 334 534 q 286 544 309 534 q 247 570 264 553 q 221 609 231 587 q 211 656 211 631 l 211 972 l 90 972 l 90 534 q 108 441 90 484 q 161 363 125 398 q 334 292 231 292 l 334 0 l 454 0 l 454 292 q 627 363 555 292 q 680 441 663 398 q 697 534 697 484 z "},"Þ":{"ha":848,"x_min":61,"x_max":783,"o":"m 486 431 l 297 431 l 297 364 l 424 364 q 448 369 437 364 q 468 382 460 374 q 481 402 477 391 q 486 425 486 413 l 486 431 m 297 789 l 454 789 q 646 708 567 789 q 662 690 654 699 q 676 672 669 682 l 704 646 q 783 456 783 566 l 783 395 q 704 205 783 283 q 618 146 665 165 q 515 126 570 126 l 297 126 l 297 -86 l 125 -86 l 68 -29 l 61 -29 l 61 1002 l 240 1002 l 240 994 l 297 937 l 297 789 m 697 456 l 697 517 q 627 688 697 616 q 547 741 590 723 q 454 760 505 760 l 211 760 l 211 972 l 90 972 l 90 0 l 211 0 l 211 212 l 454 212 q 547 231 505 212 q 627 285 590 249 q 697 456 697 355 m 515 425 q 508 390 515 406 q 488 361 500 374 q 459 342 475 349 q 424 335 442 335 l 211 335 l 211 517 l 424 517 q 459 509 442 517 q 488 489 475 502 q 508 460 500 477 q 515 425 515 444 z "},"ß":{"ha":848,"x_min":61,"x_max":783,"o":"m 68 -151 l 61 -151 l 61 729 q 80 834 61 787 q 140 922 100 882 q 228 982 180 963 q 334 1002 276 1002 l 454 1002 q 646 921 567 1002 q 662 903 654 911 q 676 885 669 895 l 701 860 l 700 861 l 704 859 q 783 668 783 779 l 783 656 q 732 498 783 569 l 730 498 q 699 461 716 477 q 661 431 681 444 q 673 412 667 422 l 675 412 l 704 385 q 763 295 742 347 q 783 182 783 243 q 704 -7 783 71 q 618 -66 665 -47 q 515 -86 570 -86 l 368 -86 l 311 -29 l 304 -29 l 304 272 l 424 272 q 448 277 437 272 q 468 290 460 281 q 481 310 477 299 q 486 335 486 321 l 486 339 l 368 339 l 311 396 l 304 396 l 304 576 l 424 576 q 448 581 437 576 q 468 594 460 586 q 481 614 477 603 q 486 637 486 625 l 486 643 l 364 643 q 338 638 350 643 q 316 624 326 633 q 302 603 307 615 q 297 578 297 591 l 297 -208 l 125 -208 l 68 -151 m 697 243 q 686 323 697 285 q 653 394 675 362 q 601 450 632 426 q 529 486 569 473 q 597 520 567 498 q 650 575 627 543 q 686 642 674 606 q 697 717 697 678 l 697 729 q 627 900 697 828 q 547 954 590 936 q 454 972 505 972 l 334 972 q 160 901 232 972 q 90 729 90 832 l 90 -122 l 211 -122 l 211 637 q 218 673 211 656 q 238 702 226 690 q 268 722 251 715 q 302 729 284 729 l 424 729 q 459 722 442 729 q 488 702 475 715 q 508 673 500 690 q 515 637 515 656 q 508 602 515 618 q 488 574 500 586 q 459 554 475 562 q 424 547 442 547 l 334 547 l 334 425 l 424 425 q 459 418 442 425 q 488 398 475 410 q 508 370 500 386 q 515 335 515 353 q 508 299 515 316 q 488 270 500 283 q 459 250 475 258 q 424 243 442 243 l 334 243 l 334 0 l 454 0 q 627 72 554 0 q 697 243 697 144 z "},"à":{"ha":848,"x_min":61,"x_max":783,"o":"m 547 486 q 546 503 547 494 q 542 518 545 511 q 529 520 535 519 q 515 521 523 521 l 393 521 q 356 513 374 521 q 326 493 339 506 q 305 463 313 480 q 297 425 297 445 l 297 304 q 297 291 297 297 q 300 278 298 284 q 317 274 309 276 q 334 272 325 272 l 454 272 q 490 279 473 272 q 519 300 507 287 q 540 329 532 313 q 547 364 547 346 l 547 486 m 176 20 q 158 35 167 27 q 140 52 149 42 q 61 243 61 131 l 61 607 q 81 712 61 665 q 140 800 100 760 q 229 859 181 840 q 334 879 276 879 l 361 879 l 346 895 l 340 895 l 210 1122 l 375 1122 l 380 1112 l 433 1059 l 511 875 q 584 849 551 867 q 647 802 616 831 q 662 784 656 793 q 675 766 669 776 l 703 741 l 701 742 l 705 737 q 783 547 783 660 l 783 -86 l 611 -86 l 595 -69 q 556 -82 576 -79 q 515 -86 536 -86 l 393 -86 q 204 -7 283 -86 l 176 20 m 431 924 l 357 1093 l 260 1093 l 357 924 l 431 924 m 697 0 l 697 607 q 680 701 697 658 q 627 781 663 745 q 548 833 591 817 q 454 850 505 850 l 334 850 q 161 779 231 850 q 90 607 90 708 l 90 243 q 161 72 90 143 q 334 0 231 0 l 454 0 q 495 4 475 0 q 532 20 515 9 q 576 82 574 43 l 576 0 l 697 0 m 576 364 q 567 317 576 339 q 540 278 557 295 q 502 252 524 262 q 454 243 479 243 l 334 243 q 286 252 309 243 q 247 278 264 262 q 221 317 231 295 q 211 364 211 339 l 211 486 q 221 533 211 511 q 247 572 231 555 q 286 597 264 588 q 334 607 309 607 l 454 607 q 503 598 480 607 q 541 572 525 589 q 567 534 557 556 q 576 486 576 512 l 576 364 z "},"á":{"ha":848,"x_min":61,"x_max":783,"o":"m 547 486 q 546 503 547 494 q 542 518 545 511 q 529 520 535 519 q 515 521 523 521 l 393 521 q 356 513 374 521 q 326 493 339 506 q 305 463 313 480 q 297 425 297 445 l 297 304 q 297 291 297 297 q 300 278 298 284 q 317 274 309 276 q 334 272 325 272 l 454 272 q 490 279 473 272 q 519 300 507 287 q 540 329 532 313 q 547 364 547 346 l 547 486 m 574 1117 l 632 1059 l 525 871 q 590 845 559 863 q 647 802 620 827 q 662 784 656 793 q 675 766 669 776 l 705 737 q 783 547 783 660 l 783 -86 l 611 -86 l 595 -69 q 556 -82 576 -79 q 515 -86 536 -86 l 393 -86 q 204 -7 283 -86 l 176 20 q 158 35 167 27 q 140 52 149 42 q 61 243 61 131 l 61 607 q 81 712 61 665 q 140 800 100 760 q 229 859 181 840 q 334 879 276 879 l 338 879 l 323 895 l 314 895 l 412 1122 l 578 1122 l 574 1117 m 528 1093 l 431 1093 l 357 924 l 431 924 l 528 1093 m 697 0 l 697 607 q 680 701 697 658 q 627 781 663 745 q 548 833 591 817 q 454 850 505 850 l 334 850 q 161 779 231 850 q 90 607 90 708 l 90 243 q 161 72 90 143 q 334 0 231 0 l 454 0 q 495 4 475 0 q 532 20 515 9 q 576 82 574 43 l 576 0 l 697 0 m 576 364 q 567 317 576 339 q 540 278 557 295 q 502 252 524 262 q 454 243 479 243 l 334 243 q 286 252 309 243 q 247 278 264 262 q 221 317 231 295 q 211 364 211 339 l 211 486 q 221 533 211 511 q 247 572 231 555 q 286 597 264 588 q 334 607 309 607 l 454 607 q 503 598 480 607 q 541 572 525 589 q 567 534 557 556 q 576 486 576 512 l 576 364 z "},"â":{"ha":848,"x_min":61,"x_max":783,"o":"m 471 879 l 457 895 l 452 895 l 441 907 l 424 879 l 454 879 l 471 879 m 547 486 q 546 503 547 494 q 542 518 545 511 q 529 520 535 519 q 515 521 523 521 l 393 521 q 356 513 374 521 q 326 493 339 506 q 305 463 313 480 q 297 425 297 445 l 297 304 q 297 291 297 297 q 300 278 298 284 q 317 274 309 276 q 334 272 325 272 l 454 272 q 490 279 473 272 q 519 300 507 287 q 540 329 532 313 q 547 364 547 346 l 547 486 m 176 20 q 158 35 167 27 q 140 52 149 42 q 61 243 61 131 l 61 607 q 81 712 61 665 q 140 800 100 760 q 187 838 162 822 q 237 863 212 853 l 208 895 l 199 895 l 328 1122 l 460 1122 l 467 1108 l 518 1059 l 644 838 l 603 838 q 626 820 614 829 q 647 802 637 811 q 662 784 656 793 q 675 766 669 776 l 703 741 l 701 742 l 705 737 q 783 547 783 660 l 783 -86 l 611 -86 l 595 -69 q 556 -82 576 -79 q 515 -86 536 -86 l 393 -86 q 204 -7 283 -86 l 176 20 m 539 924 l 441 1093 l 345 1093 l 248 924 l 321 924 l 393 1025 l 467 924 l 539 924 m 697 0 l 697 607 q 680 701 697 658 q 627 781 663 745 q 548 833 591 817 q 454 850 505 850 l 334 850 q 161 779 231 850 q 90 607 90 708 l 90 243 q 161 72 90 143 q 334 0 231 0 l 454 0 q 495 4 475 0 q 532 20 515 9 q 576 82 574 43 l 576 0 l 697 0 m 576 364 q 567 317 576 339 q 540 278 557 295 q 502 252 524 262 q 454 243 479 243 l 334 243 q 286 252 309 243 q 247 278 264 262 q 221 317 231 295 q 211 364 211 339 l 211 486 q 221 533 211 511 q 247 572 231 555 q 286 597 264 588 q 334 607 309 607 l 454 607 q 503 598 480 607 q 541 572 525 589 q 567 534 557 556 q 576 486 576 512 l 576 364 z "},"ã":{"ha":848,"x_min":61,"x_max":783,"o":"m 393 886 q 358 879 378 886 l 415 879 q 393 886 402 886 m 547 486 q 546 503 547 494 q 542 518 545 511 q 529 520 535 519 q 515 521 523 521 l 393 521 q 356 513 374 521 q 326 493 339 506 q 305 463 313 480 q 297 425 297 445 l 297 304 q 297 291 297 297 q 300 278 298 284 q 317 274 309 276 q 334 272 325 272 l 454 272 q 490 279 473 272 q 519 300 507 287 q 540 329 532 313 q 547 364 547 346 l 547 486 m 176 20 q 158 35 167 27 q 140 52 149 42 q 61 243 61 131 l 61 607 q 81 712 61 665 q 140 800 100 760 q 170 825 155 814 q 200 846 184 836 l 189 860 l 182 852 l 182 1034 q 253 1082 216 1066 q 334 1099 291 1099 q 410 1071 368 1099 q 436 1055 425 1061 q 454 1050 447 1050 q 520 1071 483 1050 q 606 1139 557 1093 l 606 1126 l 663 1069 l 663 911 l 656 893 q 621 867 639 878 q 585 848 604 856 q 647 802 619 829 q 662 784 656 793 q 675 766 669 776 l 703 741 l 701 742 l 705 737 q 783 547 783 660 l 783 -86 l 611 -86 l 595 -69 q 556 -82 576 -79 q 515 -86 536 -86 l 393 -86 q 204 -7 283 -86 l 176 20 m 576 972 l 576 1069 q 454 1021 526 1021 q 427 1027 443 1021 q 393 1044 412 1033 q 360 1063 376 1057 q 334 1069 345 1069 q 267 1058 298 1069 q 211 1021 236 1046 l 211 924 q 267 961 236 949 q 334 972 298 972 q 393 947 357 972 q 454 924 431 924 q 520 935 490 924 q 576 972 551 947 m 697 0 l 697 607 q 680 701 697 658 q 627 781 663 745 q 548 833 591 817 q 454 850 505 850 l 334 850 q 161 779 231 850 q 90 607 90 708 l 90 243 q 161 72 90 143 q 334 0 231 0 l 454 0 q 495 4 475 0 q 532 20 515 9 q 576 82 574 43 l 576 0 l 697 0 m 576 364 q 567 317 576 339 q 540 278 557 295 q 502 252 524 262 q 454 243 479 243 l 334 243 q 286 252 309 243 q 247 278 264 262 q 221 317 231 295 q 211 364 211 339 l 211 486 q 221 533 211 511 q 247 572 231 555 q 286 597 264 588 q 334 607 309 607 l 454 607 q 503 598 480 607 q 541 572 525 589 q 567 534 557 556 q 576 486 576 512 l 576 364 z "},"ä":{"ha":848,"x_min":61,"x_max":783,"o":"m 547 486 q 546 503 547 494 q 542 518 545 511 q 529 520 535 519 q 515 521 523 521 l 393 521 q 356 513 374 521 q 326 493 339 506 q 305 463 313 480 q 297 425 297 445 l 297 304 q 297 291 297 297 q 300 278 298 284 q 317 274 309 276 q 334 272 325 272 l 454 272 q 490 279 473 272 q 519 300 507 287 q 540 329 532 313 q 547 364 547 346 l 547 486 m 419 879 l 447 879 l 432 895 l 425 895 l 425 1074 l 606 1074 l 606 1067 l 663 1010 l 663 838 l 603 838 q 626 820 614 829 q 647 802 637 811 q 662 784 656 793 q 675 766 669 776 l 703 741 l 701 742 l 705 737 q 783 547 783 660 l 783 -86 l 611 -86 l 595 -69 q 556 -82 576 -79 q 515 -86 536 -86 l 393 -86 q 204 -7 283 -86 l 176 20 q 158 35 167 27 q 140 52 149 42 q 61 243 61 131 l 61 607 q 81 712 61 665 q 140 800 100 760 q 225 859 179 837 l 189 895 l 182 895 l 182 1074 l 363 1074 l 363 1067 l 419 1010 l 419 879 m 576 924 l 576 1044 l 454 1044 l 454 924 l 576 924 m 334 924 l 334 1044 l 211 1044 l 211 924 l 334 924 m 697 0 l 697 607 q 680 701 697 658 q 627 781 663 745 q 548 833 591 817 q 454 850 505 850 l 334 850 q 161 779 231 850 q 90 607 90 708 l 90 243 q 161 72 90 143 q 334 0 231 0 l 454 0 q 495 4 475 0 q 532 20 515 9 q 576 82 574 43 l 576 0 l 697 0 m 576 364 q 567 317 576 339 q 540 278 557 295 q 502 252 524 262 q 454 243 479 243 l 334 243 q 286 252 309 243 q 247 278 264 262 q 221 317 231 295 q 211 364 211 339 l 211 486 q 221 533 211 511 q 247 572 231 555 q 286 597 264 588 q 334 607 309 607 l 454 607 q 503 598 480 607 q 541 572 525 589 q 567 534 557 556 q 576 486 576 512 l 576 364 z "},"å":{"ha":848,"x_min":61,"x_max":783,"o":"m 461 1069 l 461 1080 l 454 1080 q 427 1075 439 1080 q 404 1059 414 1069 q 389 1036 394 1049 q 383 1008 383 1023 l 383 1002 l 393 1002 q 420 1007 408 1002 q 441 1022 432 1013 q 456 1044 450 1031 q 461 1069 461 1056 m 547 486 q 546 503 547 494 q 542 518 545 511 q 529 520 535 519 q 515 521 523 521 l 393 521 q 356 513 374 521 q 326 493 339 506 q 305 463 313 480 q 297 425 297 445 l 297 304 q 297 291 297 297 q 300 278 298 284 q 317 274 309 276 q 334 272 325 272 l 454 272 q 490 279 473 272 q 519 300 507 287 q 540 329 532 313 q 547 364 547 346 l 547 486 m 297 921 q 283 932 290 926 q 269 946 276 939 q 218 1069 218 997 q 269 1193 218 1142 q 393 1244 321 1244 q 518 1193 467 1244 q 530 1179 524 1185 q 541 1164 536 1173 l 576 1131 q 613 1075 600 1105 q 627 1008 627 1044 q 613 942 627 972 q 576 888 600 911 q 563 874 570 881 q 549 864 556 868 q 600 838 576 853 q 647 802 624 823 q 662 784 656 793 q 675 766 669 776 l 703 741 l 701 742 l 705 737 q 783 547 783 660 l 783 -86 l 611 -86 l 595 -69 q 556 -82 576 -79 q 515 -86 536 -86 l 393 -86 q 204 -7 283 -86 l 176 20 q 158 35 167 27 q 140 52 149 42 q 61 243 61 131 l 61 607 q 81 712 61 665 q 140 800 100 760 q 229 859 181 840 q 334 879 276 879 l 340 879 l 297 921 m 539 1069 q 497 1173 539 1131 q 450 1204 476 1193 q 393 1215 424 1215 q 337 1204 363 1215 q 290 1173 311 1193 q 248 1069 248 1130 q 290 966 248 1009 q 337 934 311 945 q 393 924 363 924 q 450 934 424 924 q 497 966 476 945 q 539 1069 539 1008 m 697 0 l 697 607 q 680 701 697 658 q 627 781 663 745 q 548 833 591 817 q 454 850 505 850 l 334 850 q 161 779 231 850 q 90 607 90 708 l 90 243 q 161 72 90 143 q 334 0 231 0 l 454 0 q 495 4 475 0 q 532 20 515 9 q 576 82 574 43 l 576 0 l 697 0 m 490 1069 q 483 1031 490 1049 q 462 1001 475 1014 q 431 980 449 987 q 393 972 414 972 q 356 980 374 972 q 325 1001 338 987 q 303 1031 311 1014 q 296 1069 296 1049 q 303 1107 296 1089 q 325 1138 311 1124 q 356 1159 338 1151 q 393 1166 374 1166 q 431 1159 414 1166 q 462 1138 449 1151 q 483 1107 475 1124 q 490 1069 490 1089 m 576 364 q 567 317 576 339 q 540 278 557 295 q 502 252 524 262 q 454 243 479 243 l 334 243 q 286 252 309 243 q 247 278 264 262 q 221 317 231 295 q 211 364 211 339 l 211 486 q 221 533 211 511 q 247 572 231 555 q 286 597 264 588 q 334 607 309 607 l 454 607 q 503 598 480 607 q 541 572 525 589 q 567 534 557 556 q 576 486 576 512 l 576 364 z "},"æ":{"ha":1213,"x_min":61,"x_max":1149,"o":"m 547 486 q 546 503 547 494 q 542 518 545 511 q 529 520 535 519 q 515 521 523 521 l 393 521 q 356 513 374 521 q 326 493 339 506 q 305 463 313 480 q 297 425 297 445 l 297 304 q 297 291 297 297 q 300 278 298 284 q 317 274 309 276 q 334 272 325 272 l 454 272 q 490 279 473 272 q 519 300 507 287 q 540 329 532 313 q 547 364 547 346 l 547 486 m 787 278 q 803 273 795 275 q 819 272 811 272 l 1092 272 l 1092 265 l 1149 208 l 1149 -86 l 928 -86 q 783 -45 850 -86 l 783 -86 l 611 -86 l 595 -69 q 556 -82 576 -79 q 515 -86 536 -86 l 393 -86 q 204 -7 283 -86 l 176 20 q 158 35 167 27 q 140 52 149 42 q 61 243 61 131 l 61 607 q 81 712 61 665 q 140 800 100 760 q 229 859 181 840 q 334 879 276 879 l 406 879 q 532 848 475 879 q 628 762 590 818 l 637 754 q 669 793 651 775 q 708 828 686 811 q 785 866 745 854 q 868 879 825 879 l 1092 879 l 1092 872 l 1149 815 l 1149 521 l 879 521 q 846 515 861 521 l 970 515 l 970 509 l 1026 452 l 1026 278 l 787 278 m 1063 0 l 1063 243 l 819 243 q 772 252 794 243 q 733 278 750 262 q 707 317 717 295 q 697 364 697 339 l 940 364 l 940 486 l 697 486 q 707 533 697 511 q 733 572 717 555 q 772 597 750 588 q 819 607 794 607 l 1063 607 l 1063 850 l 868 850 q 725 804 789 850 q 636 685 662 758 q 602 753 624 722 q 549 805 579 783 q 482 838 519 826 q 406 850 446 850 l 334 850 q 161 779 231 850 q 90 607 90 708 l 90 243 q 161 72 90 143 q 334 0 231 0 l 454 0 q 495 4 475 0 q 532 20 515 9 q 576 82 574 43 l 576 0 l 697 0 l 697 71 q 868 0 769 0 l 1063 0 m 576 364 q 567 317 576 339 q 540 278 557 295 q 502 252 524 262 q 454 243 479 243 l 334 243 q 286 252 309 243 q 247 278 264 262 q 221 317 231 295 q 211 364 211 339 l 211 486 q 221 533 211 511 q 247 572 231 555 q 286 597 264 588 q 334 607 309 607 l 454 607 q 503 598 480 607 q 541 572 525 589 q 567 534 557 556 q 576 486 576 512 l 576 364 z "},"ç":{"ha":848,"x_min":61,"x_max":783,"o":"m 297 304 q 297 291 297 297 q 300 278 298 284 q 317 274 309 276 q 334 272 325 272 l 726 272 l 726 265 l 783 208 l 783 -86 l 555 -86 l 589 -121 q 616 -160 606 -138 q 627 -207 627 -182 q 617 -255 627 -233 q 590 -294 607 -277 q 551 -319 574 -310 q 503 -329 528 -329 l 371 -329 l 314 -272 l 306 -272 l 336 -178 l 441 -178 q 451 -176 447 -178 q 461 -171 456 -174 l 411 -171 l 354 -114 l 345 -114 l 353 -83 q 273 -57 310 -76 q 204 -7 235 -39 l 176 20 q 158 35 167 27 q 140 52 149 42 q 61 243 61 131 l 61 607 q 81 712 61 665 q 140 800 100 760 q 229 859 181 840 q 334 879 276 879 l 726 879 l 726 872 l 783 815 l 783 521 l 393 521 q 356 513 374 521 q 326 493 339 506 q 305 463 313 480 q 297 425 297 445 l 297 304 m 697 0 l 697 243 l 334 243 q 286 252 309 243 q 247 278 264 262 q 221 317 231 295 q 211 364 211 339 l 211 486 q 221 533 211 511 q 247 572 231 555 q 286 597 264 588 q 334 607 309 607 l 697 607 l 697 850 l 334 850 q 161 779 231 850 q 90 607 90 708 l 90 243 q 161 72 90 143 q 334 0 231 0 l 401 0 l 382 -85 l 441 -85 q 485 -103 467 -85 q 503 -146 503 -121 q 485 -189 503 -171 q 441 -207 467 -207 l 357 -207 l 345 -243 l 441 -243 q 479 -235 462 -243 q 510 -215 497 -228 q 531 -184 524 -201 q 539 -146 539 -166 q 533 -114 539 -130 q 517 -86 528 -98 q 493 -64 507 -73 q 461 -52 478 -55 l 472 0 l 697 0 z "},"è":{"ha":848,"x_min":61,"x_max":783,"o":"m 176 20 q 158 35 167 27 q 140 52 149 42 q 61 243 61 131 l 61 607 q 81 712 61 665 q 140 800 100 760 q 229 859 181 840 q 334 879 276 879 l 361 879 l 346 895 l 340 895 l 210 1122 l 375 1122 l 380 1112 l 433 1059 l 510 879 l 726 879 l 726 872 l 783 815 l 783 521 l 393 521 q 359 515 375 521 l 606 515 l 606 509 l 663 452 l 663 278 l 301 278 q 317 273 309 275 q 334 272 325 272 l 726 272 l 726 265 l 783 208 l 783 -86 l 393 -86 q 204 -7 283 -86 l 176 20 m 431 924 l 357 1093 l 260 1093 l 357 924 l 431 924 m 697 0 l 697 243 l 334 243 q 286 252 309 243 q 247 278 264 262 q 221 317 231 295 q 211 364 211 339 l 576 364 l 576 486 l 211 486 q 221 533 211 511 q 247 572 231 555 q 286 597 264 588 q 334 607 309 607 l 697 607 l 697 850 l 334 850 q 161 779 231 850 q 90 607 90 708 l 90 243 q 161 72 90 143 q 334 0 231 0 l 697 0 z "},"é":{"ha":848,"x_min":61,"x_max":783,"o":"m 574 1117 l 632 1059 l 529 879 l 726 879 l 726 872 l 783 815 l 783 521 l 393 521 q 359 515 375 521 l 606 515 l 606 509 l 663 452 l 663 278 l 301 278 q 317 273 309 275 q 334 272 325 272 l 726 272 l 726 265 l 783 208 l 783 -86 l 393 -86 q 204 -7 283 -86 l 176 20 q 158 35 167 27 q 140 52 149 42 q 61 243 61 131 l 61 607 q 81 712 61 665 q 140 800 100 760 q 229 859 181 840 q 334 879 276 879 l 338 879 l 323 895 l 314 895 l 412 1122 l 578 1122 l 574 1117 m 528 1093 l 431 1093 l 357 924 l 431 924 l 528 1093 m 697 0 l 697 243 l 334 243 q 286 252 309 243 q 247 278 264 262 q 221 317 231 295 q 211 364 211 339 l 576 364 l 576 486 l 211 486 q 221 533 211 511 q 247 572 231 555 q 286 597 264 588 q 334 607 309 607 l 697 607 l 697 850 l 334 850 q 161 779 231 850 q 90 607 90 708 l 90 243 q 161 72 90 143 q 334 0 231 0 l 697 0 z "},"ê":{"ha":848,"x_min":61,"x_max":783,"o":"m 441 907 l 424 879 l 471 879 l 457 895 l 452 895 l 441 907 m 176 20 q 158 35 167 27 q 140 52 149 42 q 61 243 61 131 l 61 607 q 81 712 61 665 q 140 800 100 760 q 187 838 162 822 q 237 863 212 853 l 208 895 l 199 895 l 328 1122 l 460 1122 l 467 1108 l 518 1059 l 618 879 l 726 879 l 726 872 l 783 815 l 783 521 l 393 521 q 359 515 375 521 l 606 515 l 606 509 l 663 452 l 663 278 l 301 278 q 317 273 309 275 q 334 272 325 272 l 726 272 l 726 265 l 783 208 l 783 -86 l 393 -86 q 204 -7 283 -86 l 176 20 m 539 924 l 441 1093 l 345 1093 l 248 924 l 321 924 l 393 1025 l 467 924 l 539 924 m 697 0 l 697 243 l 334 243 q 286 252 309 243 q 247 278 264 262 q 221 317 231 295 q 211 364 211 339 l 576 364 l 576 486 l 211 486 q 221 533 211 511 q 247 572 231 555 q 286 597 264 588 q 334 607 309 607 l 697 607 l 697 850 l 334 850 q 161 779 231 850 q 90 607 90 708 l 90 243 q 161 72 90 143 q 334 0 231 0 l 697 0 z "},"ë":{"ha":848,"x_min":61,"x_max":783,"o":"m 419 879 l 447 879 l 432 895 l 425 895 l 425 1074 l 606 1074 l 606 1067 l 663 1010 l 663 879 l 726 879 l 726 872 l 783 815 l 783 521 l 393 521 q 359 515 375 521 l 606 515 l 606 509 l 663 452 l 663 278 l 301 278 q 317 273 309 275 q 334 272 325 272 l 726 272 l 726 265 l 783 208 l 783 -86 l 393 -86 q 204 -7 283 -86 l 176 20 q 158 35 167 27 q 140 52 149 42 q 61 243 61 131 l 61 607 q 81 712 61 665 q 140 800 100 760 q 225 859 179 837 l 189 895 l 182 895 l 182 1074 l 363 1074 l 363 1067 l 419 1010 l 419 879 m 576 924 l 576 1044 l 454 1044 l 454 924 l 576 924 m 334 924 l 334 1044 l 211 1044 l 211 924 l 334 924 m 697 0 l 697 243 l 334 243 q 286 252 309 243 q 247 278 264 262 q 221 317 231 295 q 211 364 211 339 l 576 364 l 576 486 l 211 486 q 221 533 211 511 q 247 572 231 555 q 286 597 264 588 q 334 607 309 607 l 697 607 l 697 850 l 334 850 q 161 779 231 850 q 90 607 90 708 l 90 243 q 161 72 90 143 q 334 0 231 0 l 697 0 z "},"ì":{"ha":363,"x_min":-33,"x_max":297,"o":"m 68 -29 l 61 -29 l 61 879 l 118 879 l 103 895 l 97 895 l -33 1122 l 132 1122 l 138 1112 l 191 1059 l 286 838 l 277 838 l 297 815 l 297 -86 l 125 -86 l 68 -29 m 187 924 l 114 1093 l 17 1093 l 114 924 l 187 924 m 211 0 l 211 850 l 90 850 l 90 0 l 211 0 z "},"í":{"ha":363,"x_min":61,"x_max":389,"o":"m 330 1117 l 389 1059 l 267 846 l 297 815 l 297 -86 l 125 -86 l 68 -29 l 61 -29 l 61 879 l 94 879 l 81 895 l 71 895 l 170 1122 l 335 1122 l 330 1117 m 285 1093 l 187 1093 l 114 924 l 187 924 l 285 1093 m 211 0 l 211 850 l 90 850 l 90 0 l 211 0 z "},"î":{"ha":363,"x_min":-45,"x_max":401,"o":"m 199 907 l 180 879 l 228 879 l 214 895 l 208 895 l 199 907 m -35 895 l -45 895 l 85 1122 l 216 1122 l 224 1108 l 275 1059 l 401 838 l 277 838 l 297 815 l 297 -86 l 125 -86 l 68 -29 l 61 -29 l 61 838 l 22 838 l -35 895 m 296 924 l 199 1093 l 102 1093 l 4 924 l 78 924 l 150 1025 l 224 924 l 296 924 m 211 0 l 211 850 l 90 850 l 90 0 l 211 0 z "},"ï":{"ha":363,"x_min":-61,"x_max":419,"o":"m 176 879 l 204 879 l 189 895 l 182 895 l 182 1074 l 363 1074 l 363 1067 l 419 1010 l 419 838 l 277 838 l 297 815 l 297 -86 l 125 -86 l 68 -29 l 61 -29 l 61 838 l 4 838 l -54 895 l -61 895 l -61 1074 l 119 1074 l 119 1067 l 176 1010 l 176 879 m 334 924 l 334 1044 l 211 1044 l 211 924 l 334 924 m 90 924 l 90 1044 l -32 1044 l -32 924 l 90 924 m 211 0 l 211 850 l 90 850 l 90 0 l 211 0 z "},"ð":{"ha":848,"x_min":61,"x_max":905,"o":"m 547 486 q 541 518 547 503 q 527 520 534 519 q 515 521 521 521 l 393 521 q 356 513 374 521 q 326 493 339 506 q 305 463 313 480 q 297 425 297 445 l 297 304 q 297 291 297 297 q 300 278 298 284 q 317 274 309 276 q 334 272 325 272 l 454 272 q 491 279 474 272 q 520 299 508 286 q 540 328 533 311 q 547 364 547 345 l 547 486 m 176 20 q 158 35 167 27 q 140 52 149 42 q 61 243 61 131 l 61 607 q 81 712 61 665 q 140 800 100 760 q 229 859 181 840 q 334 879 276 879 l 435 879 l 432 882 l 425 882 l 425 1063 l 848 1063 l 848 1054 l 905 997 l 905 825 l 783 825 l 783 182 q 764 78 783 125 q 705 -8 745 31 q 619 -67 667 -48 q 515 -86 572 -86 l 393 -86 q 204 -7 283 -86 l 176 20 m 819 911 l 819 1034 l 454 1034 l 454 911 l 576 911 l 576 770 q 532 831 574 807 q 495 845 515 841 q 454 850 475 850 l 334 850 q 161 779 231 850 q 90 607 90 708 l 90 243 q 161 72 90 143 q 334 0 231 0 l 454 0 q 627 71 555 0 q 680 149 663 106 q 697 243 697 192 l 697 911 l 819 911 m 576 364 q 567 316 576 338 q 541 278 557 294 q 503 252 525 262 q 454 243 480 243 l 334 243 q 286 252 309 243 q 247 278 264 262 q 221 317 231 295 q 211 364 211 339 l 211 486 q 221 533 211 511 q 247 572 231 555 q 286 597 264 588 q 334 607 309 607 l 454 607 q 502 597 479 607 q 540 572 524 588 q 567 533 557 555 q 576 486 576 511 l 576 364 z "},"ñ":{"ha":848,"x_min":61,"x_max":783,"o":"m 393 886 q 358 879 378 886 l 415 879 q 393 886 402 886 m 68 -29 l 61 -29 l 61 607 q 80 712 61 665 q 140 800 100 760 q 169 825 154 814 q 200 846 184 836 l 189 860 l 182 852 l 182 1034 q 253 1082 216 1066 q 334 1099 291 1099 q 410 1071 368 1099 q 436 1055 425 1061 q 454 1050 447 1050 q 520 1071 483 1050 q 606 1139 557 1093 l 606 1126 l 663 1069 l 663 911 l 656 893 q 621 867 639 878 q 585 848 604 856 q 647 802 619 829 q 662 784 656 793 q 675 766 669 776 l 703 741 l 701 742 l 705 737 q 783 547 783 660 l 783 -86 l 611 -86 l 554 -29 l 547 -29 l 547 486 q 546 503 547 494 q 542 518 545 511 q 529 520 535 519 q 515 521 523 521 l 393 521 q 356 513 374 521 q 326 493 339 506 q 305 463 313 480 q 297 425 297 445 l 297 -86 l 125 -86 l 68 -29 m 576 972 l 576 1069 q 454 1021 526 1021 q 427 1027 443 1021 q 393 1044 412 1033 q 360 1063 376 1057 q 334 1069 345 1069 q 267 1058 298 1069 q 211 1021 236 1046 l 211 924 q 267 961 236 949 q 334 972 298 972 q 393 947 357 972 q 454 924 431 924 q 520 935 490 924 q 576 972 551 947 m 697 0 l 697 607 q 680 701 697 658 q 627 781 663 745 q 548 833 591 817 q 454 850 505 850 l 334 850 q 160 779 231 850 q 90 607 90 709 l 90 0 l 211 0 l 211 486 q 221 533 211 511 q 247 572 231 555 q 286 597 264 588 q 334 607 309 607 l 454 607 q 503 598 480 607 q 541 572 525 589 q 567 534 557 556 q 576 486 576 512 l 576 0 l 697 0 z "},"ò":{"ha":848,"x_min":61,"x_max":783,"o":"m 547 486 q 541 518 547 503 q 527 520 534 519 q 515 521 521 521 l 393 521 q 356 513 374 521 q 326 493 339 506 q 305 463 313 480 q 297 425 297 445 l 297 304 q 297 291 297 297 q 300 278 298 284 q 317 274 309 276 q 334 272 325 272 l 454 272 q 491 279 474 272 q 520 299 508 286 q 540 328 533 311 q 547 364 547 345 l 547 486 m 172 21 q 156 34 164 27 q 140 50 148 41 q 80 138 100 90 q 61 243 61 186 l 61 607 q 80 712 61 665 q 140 800 100 760 q 334 879 220 879 l 361 879 l 346 895 l 340 895 l 210 1122 l 375 1122 l 380 1112 l 433 1059 l 511 873 q 646 800 587 859 q 662 781 654 791 q 676 762 669 772 l 704 736 q 764 650 744 697 q 783 547 783 602 l 783 182 q 764 78 783 125 q 705 -8 745 31 q 619 -67 667 -48 q 515 -86 572 -86 l 393 -86 q 290 -67 338 -86 q 203 -8 243 -48 l 172 21 m 431 924 l 357 1093 l 260 1093 l 357 924 l 431 924 m 697 243 l 697 607 q 627 779 697 707 q 454 850 554 850 l 334 850 q 160 779 231 850 q 90 607 90 709 l 90 243 q 107 150 90 193 q 160 71 124 106 q 334 0 233 0 l 454 0 q 627 71 555 0 q 680 149 663 106 q 697 243 697 192 m 576 364 q 567 316 576 338 q 541 278 557 294 q 503 252 525 262 q 454 243 480 243 l 334 243 q 286 252 309 243 q 247 278 264 262 q 221 317 231 295 q 211 364 211 339 l 211 486 q 221 533 211 511 q 247 572 231 555 q 286 597 264 588 q 334 607 309 607 l 454 607 q 502 597 479 607 q 540 572 524 588 q 567 533 557 555 q 576 486 576 511 l 576 364 z "},"ó":{"ha":848,"x_min":61,"x_max":783,"o":"m 547 486 q 541 518 547 503 q 527 520 534 519 q 515 521 521 521 l 393 521 q 356 513 374 521 q 326 493 339 506 q 305 463 313 480 q 297 425 297 445 l 297 304 q 297 291 297 297 q 300 278 298 284 q 317 274 309 276 q 334 272 325 272 l 454 272 q 491 279 474 272 q 520 299 508 286 q 540 328 533 311 q 547 364 547 345 l 547 486 m 574 1117 l 632 1059 l 524 871 q 588 844 558 863 q 646 800 618 826 q 662 781 654 791 q 676 762 669 772 l 704 736 q 764 650 744 697 q 783 547 783 602 l 783 182 q 764 78 783 125 q 705 -8 745 31 q 619 -67 667 -48 q 515 -86 572 -86 l 393 -86 q 290 -67 338 -86 q 203 -8 243 -48 l 172 21 q 156 34 164 27 q 140 50 148 41 q 80 138 100 90 q 61 243 61 186 l 61 607 q 80 712 61 665 q 140 800 100 760 q 334 879 220 879 l 338 879 l 323 895 l 314 895 l 412 1122 l 578 1122 l 574 1117 m 528 1093 l 431 1093 l 357 924 l 431 924 l 528 1093 m 697 243 l 697 607 q 627 779 697 707 q 454 850 554 850 l 334 850 q 160 779 231 850 q 90 607 90 709 l 90 243 q 107 150 90 193 q 160 71 124 106 q 334 0 233 0 l 454 0 q 627 71 555 0 q 680 149 663 106 q 697 243 697 192 m 576 364 q 567 316 576 338 q 541 278 557 294 q 503 252 525 262 q 454 243 480 243 l 334 243 q 286 252 309 243 q 247 278 264 262 q 221 317 231 295 q 211 364 211 339 l 211 486 q 221 533 211 511 q 247 572 231 555 q 286 597 264 588 q 334 607 309 607 l 454 607 q 502 597 479 607 q 540 572 524 588 q 567 533 557 555 q 576 486 576 511 l 576 364 z "},"ô":{"ha":848,"x_min":61,"x_max":783,"o":"m 471 879 l 457 895 l 452 895 l 441 907 l 424 879 l 454 879 l 471 879 m 547 486 q 541 518 547 503 q 527 520 534 519 q 515 521 521 521 l 393 521 q 356 513 374 521 q 326 493 339 506 q 305 463 313 480 q 297 425 297 445 l 297 304 q 297 291 297 297 q 300 278 298 284 q 317 274 309 276 q 334 272 325 272 l 454 272 q 491 279 474 272 q 520 299 508 286 q 540 328 533 311 q 547 364 547 345 l 547 486 m 172 21 q 156 34 164 27 q 140 50 148 41 q 80 138 100 90 q 61 243 61 186 l 61 607 q 80 712 61 665 q 140 800 100 760 q 237 863 183 843 l 208 895 l 199 895 l 328 1122 l 460 1122 l 467 1108 l 518 1059 l 644 838 l 600 838 q 646 800 625 821 q 662 781 654 791 q 676 762 669 772 l 701 739 l 700 741 l 704 736 q 764 650 744 697 q 783 547 783 602 l 783 182 q 764 78 783 125 q 705 -8 745 31 q 619 -67 667 -48 q 515 -86 572 -86 l 393 -86 q 290 -67 338 -86 q 203 -8 243 -48 l 172 21 m 539 924 l 441 1093 l 345 1093 l 248 924 l 321 924 l 393 1025 l 467 924 l 539 924 m 697 243 l 697 607 q 627 779 697 707 q 454 850 554 850 l 334 850 q 160 779 231 850 q 90 607 90 709 l 90 243 q 107 150 90 193 q 160 71 124 106 q 334 0 233 0 l 454 0 q 627 71 555 0 q 680 149 663 106 q 697 243 697 192 m 576 364 q 567 316 576 338 q 541 278 557 294 q 503 252 525 262 q 454 243 480 243 l 334 243 q 286 252 309 243 q 247 278 264 262 q 221 317 231 295 q 211 364 211 339 l 211 486 q 221 533 211 511 q 247 572 231 555 q 286 597 264 588 q 334 607 309 607 l 454 607 q 502 597 479 607 q 540 572 524 588 q 567 533 557 555 q 576 486 576 511 l 576 364 z "},"õ":{"ha":848,"x_min":61,"x_max":783,"o":"m 393 886 q 358 879 378 886 l 415 879 q 393 886 402 886 m 547 486 q 541 518 547 503 q 527 520 534 519 q 515 521 521 521 l 393 521 q 356 513 374 521 q 326 493 339 506 q 305 463 313 480 q 297 425 297 445 l 297 304 q 297 291 297 297 q 300 278 298 284 q 317 274 309 276 q 334 272 325 272 l 454 272 q 491 279 474 272 q 520 299 508 286 q 540 328 533 311 q 547 364 547 345 l 547 486 m 172 21 q 156 34 164 27 q 140 50 148 41 q 80 138 100 90 q 61 243 61 186 l 61 607 q 80 712 61 665 q 140 800 100 760 q 169 825 154 814 q 200 846 184 836 l 189 860 l 182 852 l 182 1034 q 253 1082 216 1066 q 334 1099 291 1099 q 410 1071 368 1099 q 436 1055 425 1061 q 454 1050 447 1050 q 520 1071 483 1050 q 606 1139 557 1093 l 606 1126 l 663 1069 l 663 911 l 656 893 q 583 847 621 863 q 616 826 601 838 q 646 800 631 814 q 662 781 654 791 q 676 762 669 772 l 704 736 q 764 650 744 697 q 783 547 783 602 l 783 182 q 764 78 783 125 q 705 -8 745 31 q 619 -67 667 -48 q 515 -86 572 -86 l 393 -86 q 290 -67 338 -86 q 203 -8 243 -48 l 172 21 m 576 972 l 576 1069 q 454 1021 526 1021 q 427 1027 443 1021 q 393 1044 412 1033 q 360 1063 376 1057 q 334 1069 345 1069 q 267 1058 298 1069 q 211 1021 236 1046 l 211 924 q 267 961 236 949 q 334 972 298 972 q 393 947 357 972 q 454 924 431 924 q 520 935 490 924 q 576 972 551 947 m 697 243 l 697 607 q 627 779 697 707 q 454 850 554 850 l 334 850 q 160 779 231 850 q 90 607 90 709 l 90 243 q 107 150 90 193 q 160 71 124 106 q 334 0 233 0 l 454 0 q 627 71 555 0 q 680 149 663 106 q 697 243 697 192 m 576 364 q 567 316 576 338 q 541 278 557 294 q 503 252 525 262 q 454 243 480 243 l 334 243 q 286 252 309 243 q 247 278 264 262 q 221 317 231 295 q 211 364 211 339 l 211 486 q 221 533 211 511 q 247 572 231 555 q 286 597 264 588 q 334 607 309 607 l 454 607 q 502 597 479 607 q 540 572 524 588 q 567 533 557 555 q 576 486 576 511 l 576 364 z "},"ö":{"ha":848,"x_min":61,"x_max":783,"o":"m 547 486 q 541 518 547 503 q 527 520 534 519 q 515 521 521 521 l 393 521 q 356 513 374 521 q 326 493 339 506 q 305 463 313 480 q 297 425 297 445 l 297 304 q 297 291 297 297 q 300 278 298 284 q 317 274 309 276 q 334 272 325 272 l 454 272 q 491 279 474 272 q 520 299 508 286 q 540 328 533 311 q 547 364 547 345 l 547 486 m 419 879 l 447 879 l 432 895 l 425 895 l 425 1074 l 606 1074 l 606 1067 l 663 1010 l 663 838 l 600 838 q 646 800 625 821 q 662 781 654 791 q 676 762 669 772 l 704 736 q 764 650 744 697 q 783 547 783 602 l 783 182 q 764 78 783 125 q 705 -8 745 31 q 619 -67 667 -48 q 515 -86 572 -86 l 393 -86 q 290 -67 338 -86 q 203 -8 243 -48 l 172 21 q 156 34 164 27 q 140 50 148 41 q 80 138 100 90 q 61 243 61 186 l 61 607 q 80 712 61 665 q 140 800 100 760 q 181 833 159 819 q 225 859 202 848 l 189 895 l 182 895 l 182 1074 l 363 1074 l 363 1067 l 419 1010 l 419 879 m 576 924 l 576 1044 l 454 1044 l 454 924 l 576 924 m 334 924 l 334 1044 l 211 1044 l 211 924 l 334 924 m 697 243 l 697 607 q 627 779 697 707 q 454 850 554 850 l 334 850 q 160 779 231 850 q 90 607 90 709 l 90 243 q 107 150 90 193 q 160 71 124 106 q 334 0 233 0 l 454 0 q 627 71 555 0 q 680 149 663 106 q 697 243 697 192 m 576 364 q 567 316 576 338 q 541 278 557 294 q 503 252 525 262 q 454 243 480 243 l 334 243 q 286 252 309 243 q 247 278 264 262 q 221 317 231 295 q 211 364 211 339 l 211 486 q 221 533 211 511 q 247 572 231 555 q 286 597 264 588 q 334 607 309 607 l 454 607 q 502 597 479 607 q 540 572 524 588 q 567 533 557 555 q 576 486 576 511 l 576 364 z "},"÷":{"ha":726,"x_min":61,"x_max":663,"o":"m 227 567 l 218 567 l 218 794 l 447 794 l 447 787 l 504 730 l 504 510 l 283 510 l 227 567 m 227 56 l 218 56 l 218 285 l 447 285 l 447 277 l 504 220 l 504 -1 l 283 -1 l 227 56 m 68 347 l 61 347 l 61 503 l 606 503 l 606 496 l 663 439 l 663 290 l 125 290 l 68 347 m 418 596 l 418 765 l 248 765 l 248 596 l 418 596 m 576 376 l 576 473 l 90 473 l 90 376 l 576 376 m 418 85 l 418 256 l 248 256 l 248 85 l 418 85 z "},"ø":{"ha":848,"x_min":-11,"x_max":854,"o":"m 547 393 l 443 272 l 454 272 q 491 279 474 272 q 520 299 508 286 q 540 328 533 311 q 547 364 547 345 l 547 393 m 297 397 l 403 521 l 393 521 q 356 513 374 521 q 326 493 339 506 q 305 463 313 480 q 297 425 297 445 l 297 397 m 796 812 l 854 754 l 762 647 q 778 598 773 624 q 783 547 783 573 l 783 182 q 764 78 783 125 q 705 -8 745 31 q 619 -67 667 -48 q 515 -86 572 -86 l 393 -86 q 208 -11 281 -86 l 205 -8 l 127 -98 l 69 -40 l 66 -43 l -11 35 l 81 143 q 66 193 71 169 q 61 243 61 218 l 61 607 q 80 712 61 665 q 140 800 100 760 q 334 879 220 879 l 454 879 q 556 860 509 879 q 643 802 603 840 l 721 893 l 799 815 l 796 812 m 758 814 l 722 850 l 644 760 q 560 828 608 806 q 454 850 513 850 l 334 850 q 160 779 231 850 q 90 607 90 709 l 90 243 q 114 138 90 186 l 29 36 l 65 0 l 143 92 q 334 0 216 0 l 454 0 q 627 71 555 0 q 680 149 663 106 q 697 243 697 192 l 697 607 q 673 714 697 663 l 758 814 m 576 364 q 567 316 576 338 q 541 278 557 294 q 503 252 525 262 q 454 243 480 243 l 334 243 q 307 246 320 243 q 282 254 294 249 l 547 566 q 576 486 576 530 l 576 364 m 505 597 l 240 286 q 211 364 211 321 l 211 486 q 221 533 211 511 q 247 572 231 555 q 286 597 264 588 q 334 607 309 607 l 454 607 q 481 605 468 607 q 505 597 494 603 z "},"ù":{"ha":848,"x_min":61,"x_max":783,"o":"m 346 895 l 340 895 l 210 1122 l 375 1122 l 380 1112 l 433 1059 l 529 838 l 403 838 l 346 895 m 297 304 q 297 291 297 297 q 300 278 298 284 q 317 274 309 276 q 334 272 325 272 l 454 272 q 491 279 474 272 q 520 299 508 286 q 540 328 533 311 q 547 364 547 345 l 547 879 l 726 879 l 726 872 l 783 815 l 783 182 q 764 78 783 125 q 705 -8 745 31 q 619 -67 667 -48 q 515 -86 572 -86 l 393 -86 q 290 -67 338 -86 q 203 -8 243 -48 l 172 21 q 156 34 164 27 q 140 50 148 41 q 80 138 100 90 q 61 243 61 186 l 61 879 l 240 879 l 240 872 l 297 815 l 297 304 m 431 924 l 357 1093 l 260 1093 l 357 924 l 431 924 m 697 243 l 697 850 l 576 850 l 576 364 q 567 316 576 338 q 541 278 557 294 q 503 252 525 262 q 454 243 480 243 l 334 243 q 286 252 309 243 q 247 278 264 262 q 221 317 231 295 q 211 364 211 339 l 211 850 l 90 850 l 90 243 q 107 150 90 193 q 160 71 124 106 q 334 0 233 0 l 454 0 q 627 71 555 0 q 680 149 663 106 q 697 243 697 192 z "},"ú":{"ha":848,"x_min":61,"x_max":783,"o":"m 574 1117 l 632 1059 l 505 838 l 380 838 l 323 895 l 314 895 l 412 1122 l 578 1122 l 574 1117 m 297 304 q 297 291 297 297 q 300 278 298 284 q 317 274 309 276 q 334 272 325 272 l 454 272 q 491 279 474 272 q 520 299 508 286 q 540 328 533 311 q 547 364 547 345 l 547 879 l 726 879 l 726 872 l 783 815 l 783 182 q 764 78 783 125 q 705 -8 745 31 q 619 -67 667 -48 q 515 -86 572 -86 l 393 -86 q 290 -67 338 -86 q 203 -8 243 -48 l 172 21 q 156 34 164 27 q 140 50 148 41 q 80 138 100 90 q 61 243 61 186 l 61 879 l 240 879 l 240 872 l 297 815 l 297 304 m 528 1093 l 431 1093 l 357 924 l 431 924 l 528 1093 m 697 243 l 697 850 l 576 850 l 576 364 q 567 316 576 338 q 541 278 557 294 q 503 252 525 262 q 454 243 480 243 l 334 243 q 286 252 309 243 q 247 278 264 262 q 221 317 231 295 q 211 364 211 339 l 211 850 l 90 850 l 90 243 q 107 150 90 193 q 160 71 124 106 q 334 0 233 0 l 454 0 q 627 71 555 0 q 680 149 663 106 q 697 243 697 192 z "},"û":{"ha":848,"x_min":61,"x_max":783,"o":"m 297 304 q 297 291 297 297 q 300 278 298 284 q 317 274 309 276 q 334 272 325 272 l 454 272 q 491 279 474 272 q 520 299 508 286 q 540 328 533 311 q 547 364 547 345 l 547 838 l 514 838 l 457 895 l 452 895 l 441 907 l 395 838 l 277 838 l 297 815 l 297 304 m 172 21 q 156 34 164 27 q 140 50 148 41 q 80 138 100 90 q 61 243 61 186 l 61 879 l 222 879 l 208 895 l 199 895 l 328 1122 l 460 1122 l 467 1108 l 518 1059 l 618 879 l 726 879 l 726 872 l 783 815 l 783 182 q 764 78 783 125 q 705 -8 745 31 q 619 -67 667 -48 q 515 -86 572 -86 l 393 -86 q 290 -67 338 -86 q 203 -8 243 -48 l 172 21 m 539 924 l 441 1093 l 345 1093 l 248 924 l 321 924 l 393 1025 l 467 924 l 539 924 m 697 243 l 697 850 l 576 850 l 576 364 q 567 316 576 338 q 541 278 557 294 q 503 252 525 262 q 454 243 480 243 l 334 243 q 286 252 309 243 q 247 278 264 262 q 221 317 231 295 q 211 364 211 339 l 211 850 l 90 850 l 90 243 q 107 150 90 193 q 160 71 124 106 q 334 0 233 0 l 454 0 q 627 71 555 0 q 680 149 663 106 q 697 243 697 192 z "},"ü":{"ha":848,"x_min":61,"x_max":783,"o":"m 432 895 l 425 895 l 425 1074 l 606 1074 l 606 1067 l 663 1010 l 663 879 l 726 879 l 726 872 l 783 815 l 783 182 q 764 78 783 125 q 705 -8 745 31 q 619 -67 667 -48 q 515 -86 572 -86 l 393 -86 q 290 -67 338 -86 q 203 -8 243 -48 l 172 21 q 156 34 164 27 q 140 50 148 41 q 80 138 100 90 q 61 243 61 186 l 61 879 l 204 879 l 189 895 l 182 895 l 182 1074 l 363 1074 l 363 1067 l 419 1010 l 419 838 l 277 838 l 297 815 l 297 304 q 297 291 297 297 q 300 278 298 284 q 317 274 309 276 q 334 272 325 272 l 454 272 q 491 279 474 272 q 520 299 508 286 q 540 328 533 311 q 547 364 547 345 l 547 838 l 490 838 l 432 895 m 576 924 l 576 1044 l 454 1044 l 454 924 l 576 924 m 334 924 l 334 1044 l 211 1044 l 211 924 l 334 924 m 697 243 l 697 850 l 576 850 l 576 364 q 567 316 576 338 q 541 278 557 294 q 503 252 525 262 q 454 243 480 243 l 334 243 q 286 252 309 243 q 247 278 264 262 q 221 317 231 295 q 211 364 211 339 l 211 850 l 90 850 l 90 243 q 107 150 90 193 q 160 71 124 106 q 334 0 233 0 l 454 0 q 627 71 555 0 q 680 149 663 106 q 697 243 697 192 z "},"ý":{"ha":848,"x_min":61,"x_max":783,"o":"m 574 1117 l 632 1059 l 505 838 l 380 838 l 323 895 l 314 895 l 412 1122 l 578 1122 l 574 1117 m 297 304 q 297 291 297 297 q 300 278 298 284 q 317 274 309 276 q 334 272 325 272 l 454 272 q 491 279 474 272 q 520 299 508 286 q 540 328 533 311 q 547 364 547 345 l 547 879 l 726 879 l 726 872 l 783 815 l 783 -182 q 764 -287 783 -239 q 705 -374 745 -334 q 515 -452 629 -452 l 368 -452 l 311 -395 l 304 -395 l 304 -93 l 454 -93 q 488 -86 472 -93 l 393 -86 q 204 -7 283 -86 l 176 20 q 158 35 167 27 q 140 52 149 42 q 61 243 61 131 l 61 879 l 240 879 l 240 872 l 297 815 l 297 304 m 528 1093 l 431 1093 l 357 924 l 431 924 l 528 1093 m 697 -122 l 697 850 l 576 850 l 576 364 q 567 316 576 338 q 541 278 557 294 q 503 252 525 262 q 454 243 480 243 l 334 243 q 286 252 309 243 q 247 278 264 262 q 221 317 231 295 q 211 364 211 339 l 211 850 l 90 850 l 90 243 q 161 72 90 143 q 334 0 231 0 l 454 0 q 496 4 476 0 q 532 20 515 9 q 576 82 574 43 l 576 0 q 567 -48 576 -26 q 541 -87 557 -71 q 503 -113 525 -103 q 454 -122 480 -122 l 334 -122 l 334 -366 l 454 -366 q 627 -294 555 -366 q 680 -216 663 -259 q 697 -122 697 -174 z "},"þ":{"ha":848,"x_min":61,"x_max":783,"o":"m 547 364 q 541 396 547 379 q 527 399 534 397 q 515 400 521 400 l 297 400 l 297 272 l 454 272 q 490 279 473 272 q 519 300 507 287 q 540 329 532 313 q 547 364 547 346 m 297 758 l 454 758 q 646 677 567 758 q 662 660 654 668 q 676 642 669 651 l 701 616 l 700 618 l 704 615 q 783 425 783 536 l 783 182 q 704 -7 783 71 q 618 -66 665 -47 q 515 -86 570 -86 l 297 -86 l 297 -329 l 125 -329 l 68 -272 l 61 -272 l 61 1002 l 240 1002 l 240 994 l 297 937 l 297 758 m 697 243 l 697 486 q 627 657 697 585 q 547 711 590 692 q 454 729 505 729 l 211 729 l 211 972 l 90 972 l 90 -243 l 211 -243 l 211 0 l 454 0 q 627 72 554 0 q 697 243 697 144 m 576 364 q 567 317 576 339 q 540 278 557 295 q 502 252 524 262 q 454 243 479 243 l 211 243 l 211 486 l 454 486 q 502 477 479 486 q 540 451 524 467 q 567 412 557 434 q 576 364 576 389 z "},"ÿ":{"ha":848,"x_min":61,"x_max":783,"o":"m 432 895 l 425 895 l 425 1074 l 606 1074 l 606 1067 l 663 1010 l 663 879 l 726 879 l 726 872 l 783 815 l 783 -182 q 764 -287 783 -239 q 705 -374 745 -334 q 515 -452 629 -452 l 368 -452 l 311 -395 l 304 -395 l 304 -93 l 454 -93 q 488 -86 472 -93 l 393 -86 q 204 -7 283 -86 l 176 20 q 158 35 167 27 q 140 52 149 42 q 61 243 61 131 l 61 879 l 204 879 l 189 895 l 182 895 l 182 1074 l 363 1074 l 363 1067 l 419 1010 l 419 838 l 277 838 l 297 815 l 297 304 q 297 291 297 297 q 300 278 298 284 q 317 274 309 276 q 334 272 325 272 l 454 272 q 491 279 474 272 q 520 299 508 286 q 540 328 533 311 q 547 364 547 345 l 547 838 l 490 838 l 432 895 m 576 924 l 576 1044 l 454 1044 l 454 924 l 576 924 m 334 924 l 334 1044 l 211 1044 l 211 924 l 334 924 m 697 -122 l 697 850 l 576 850 l 576 364 q 567 316 576 338 q 541 278 557 294 q 503 252 525 262 q 454 243 480 243 l 334 243 q 286 252 309 243 q 247 278 264 262 q 221 317 231 295 q 211 364 211 339 l 211 850 l 90 850 l 90 243 q 161 72 90 143 q 334 0 231 0 l 454 0 q 495 4 475 0 q 532 20 515 9 q 576 82 574 43 l 576 0 q 567 -48 576 -26 q 541 -87 557 -71 q 503 -113 525 -103 q 454 -122 480 -122 l 334 -122 l 334 -366 l 454 -366 q 627 -294 555 -366 q 680 -216 663 -259 q 697 -122 697 -174 z "},"¯":{"ha":547,"x_min":0,"x_max":547,"o":"m 0 850 l 0 972 l 547 972 l 547 850 l 0 850 z "},"ˉ":{"ha":547,"x_min":0,"x_max":547,"o":"m 0 850 l 0 972 l 547 972 l 547 850 l 0 850 z "},"ı":{"ha":363,"x_min":61,"x_max":297,"o":"m 68 -29 l 61 -29 l 61 879 l 240 879 l 240 872 l 297 815 l 297 -86 l 125 -86 l 68 -29 m 211 0 l 211 850 l 90 850 l 90 0 l 211 0 z "},"ˇ":{"ha":532,"x_min":40,"x_max":486,"o":"m 428 996 l 486 937 l 359 715 l 233 715 l 176 772 l 170 772 l 40 1002 l 178 1002 l 189 985 l 237 937 l 241 928 l 294 1002 l 432 1002 l 428 996 m 382 972 l 309 972 l 236 869 l 163 972 l 90 972 l 187 802 l 285 802 l 382 972 z "},"˘":{"ha":1371,"x_min":61,"x_max":1310,"o":"m 465 293 l 465 518 l 543 518 l 543 293 l 465 293 m 812 160 l 521 160 l 547 220 l 790 220 l 694 456 l 693 456 l 693 517 l 760 517 l 760 693 l 465 693 l 465 911 l 329 911 l 329 456 l 151 456 l 151 61 l 852 61 l 812 160 m 1244 146 q 1092 236 1244 236 l 961 236 l 961 296 l 1104 296 q 1143 301 1125 296 q 1177 317 1161 307 q 1203 344 1194 330 q 1213 378 1213 359 q 1171 440 1213 420 q 1136 452 1155 449 q 1093 456 1116 456 l 757 456 l 921 60 l 1092 60 q 1150 62 1125 60 q 1190 72 1175 64 q 1244 146 1244 92 m 1310 136 q 1251 33 1310 71 q 1132 0 1204 0 l 90 0 l 90 515 l 267 515 l 267 911 l 122 911 l 122 839 l 61 839 l 72 972 l 597 972 l 597 911 l 530 911 l 530 753 l 822 753 l 822 515 l 1197 515 l 1197 633 l 1257 633 l 1257 456 l 1253 456 q 1271 423 1264 441 q 1278 382 1278 405 q 1260 314 1278 342 q 1207 269 1242 287 q 1310 136 1310 237 m 1194 793 l 1185 909 l 940 909 l 940 753 l 1071 753 l 1071 818 l 1131 818 l 1131 627 l 1071 627 l 1071 692 l 878 692 l 878 971 l 1253 971 l 1253 793 l 1194 793 z "},"˚":{"ha":532,"x_min":61,"x_max":468,"o":"m 304 827 q 304 832 304 830 q 302 838 304 834 l 296 838 q 269 832 281 838 q 246 816 256 826 q 231 793 236 806 q 225 765 225 780 l 225 758 l 236 758 q 262 764 250 758 q 283 779 274 769 q 299 801 293 788 q 304 827 304 813 m 140 677 q 126 689 133 683 q 111 703 119 695 q 61 827 61 753 q 111 950 61 900 q 236 1002 163 1002 q 359 950 308 1002 q 372 936 366 943 q 383 921 378 929 l 418 888 q 456 832 444 863 q 468 765 468 801 q 456 699 468 730 q 418 644 444 668 q 296 595 368 595 q 175 644 224 595 l 140 677 m 382 827 q 339 929 382 886 q 292 961 318 950 q 236 972 267 972 q 179 961 205 972 q 132 929 153 950 q 90 827 90 887 q 132 724 90 766 q 179 691 153 702 q 236 681 205 681 q 339 724 298 681 q 382 827 382 766 m 334 827 q 326 788 334 806 q 305 757 318 770 q 274 736 292 744 q 236 729 256 729 q 198 736 216 729 q 167 757 180 744 q 146 788 154 770 q 139 827 139 806 q 146 864 139 846 q 167 895 154 882 q 198 916 180 908 q 236 924 216 924 q 274 916 256 924 q 305 895 292 908 q 326 864 318 882 q 334 827 334 846 z "},"−":{"ha":726,"x_min":61,"x_max":663,"o":"m 68 347 l 61 347 l 61 503 l 606 503 l 606 496 l 663 439 l 663 290 l 125 290 l 68 347 m 576 376 l 576 473 l 90 473 l 90 376 l 576 376 z "}," ":{"ha":547,"x_min":0,"x_max":0,"o":""}}}
